<?xml version="1.0" standalone="no"?>
<!DOCTYPE svg PUBLIC "-//W3C//DTD SVG 20010904//EN"
 "http://www.w3.org/TR/2001/REC-SVG-20010904/DTD/svg10.dtd">
<svg version="1.0" xmlns="http://www.w3.org/2000/svg"
 width="2560.000000pt" height="2560.000000pt" viewBox="0 0 2560.000000 2560.000000"
 preserveAspectRatio="xMidYMid meet">

<g transform="translate(0.000000,2560.000000) scale(0.100000,-0.100000)"
fill="#000000" stroke="none">
<path d="M0 12800 l0 -12800 12800 0 12800 0 0 12800 0 12800 -12800 0 -12800
0 0 -12800z m9307 10038 c-2 -24 -4 -5 -4 42 0 47 2 66 4 43 2 -24 2 -62 0
-85z m-20 -575 c-3 -10 -5 -4 -5 12 0 17 2 24 5 18 2 -7 2 -21 0 -30z m-625
-215 c7 7 16 12 20 12 13 0 8 -72 -6 -105 l-13 -30 -7 52 c-5 29 -12 55 -17
59 -5 3 -9 15 -8 27 0 21 1 21 10 -2 7 -19 12 -22 21 -13z m-3042 -189 c0 -5
-4 -9 -10 -9 -5 0 -10 7 -10 16 0 8 5 12 10 9 6 -3 10 -10 10 -16z m6500 -244
c0 -8 -2 -15 -4 -15 -2 0 -6 7 -10 15 -3 8 -1 15 4 15 6 0 10 -7 10 -15z m100
-88 c43 -62 111 -92 118 -52 3 11 12 25 20 31 19 14 24 9 65 -69 14 -27 28
-43 32 -38 8 13 67 15 81 2 5 -5 30 -12 56 -15 41 -6 48 -4 58 13 16 32 63 27
100 -9 24 -23 30 -38 30 -70 0 -22 -4 -40 -8 -40 -4 0 -7 -28 -7 -62 1 -53 4
-63 23 -71 22 -10 36 -45 48 -117 5 -28 1 -39 -18 -58 l-25 -22 -49 37 c-27
20 -71 57 -99 81 -51 46 -67 44 -41 -5 8 -16 17 -47 21 -68 4 -22 9 -48 12
-57 3 -12 -1 -18 -11 -18 -9 0 -16 -8 -16 -19 0 -58 -51 -22 -101 72 -27 53
-233 359 -264 394 -5 6 -31 34 -57 62 -44 46 -64 82 -37 65 12 -7 11 -3 -7 63
-6 21 -5 22 24 12 17 -6 40 -25 52 -42z m-6590 33 c0 -5 -4 -10 -10 -10 -5 0
-10 5 -10 10 0 6 5 10 10 10 6 0 10 -4 10 -10z m840 -130 c0 -5 -4 -10 -10
-10 -5 0 -10 5 -10 10 0 6 5 10 10 10 6 0 10 -4 10 -10z m3124 -202 c-5 -13
-7 -88 -5 -168 3 -143 -4 -187 -40 -277 -11 -30 -27 -29 -39 2 -13 34 0 285
14 285 16 0 34 53 29 83 -7 34 15 97 33 97 12 0 13 -6 8 -22z m1153 -32 c17
-15 41 -54 57 -93 15 -37 42 -99 62 -138 32 -66 67 -165 60 -172 -11 -11 -41
17 -83 78 -65 93 -83 129 -83 162 0 26 -15 65 -29 77 -10 8 -29 53 -35 83 -8
35 12 36 51 3z m-4877 -13 c0 -5 -4 -14 -9 -22 -11 -17 -32 -5 -24 14 5 15 33
21 33 8z m6165 -53 c3 -5 1 -10 -4 -10 -6 0 -11 5 -11 10 0 6 2 10 4 10 3 0 8
-4 11 -10z m-20 -73 c-4 -18 -9 -59 -12 -92 -3 -33 -10 -66 -15 -72 -7 -9 -6
-13 3 -13 10 0 10 -3 1 -12 -7 -7 -12 -19 -12 -29 0 -9 -24 -38 -53 -65 -116
-106 -144 -131 -173 -152 -35 -26 -104 -55 -104 -45 0 5 17 26 38 48 49 53
112 132 112 140 0 4 24 42 53 84 78 112 147 233 147 259 1 15 2 15 11 -1 6
-11 8 -33 4 -50z m-1555 -104 c13 -10 44 -37 68 -60 24 -23 41 -36 38 -28 -21
52 -21 50 5 30 44 -33 114 -127 132 -179 29 -79 48 -176 45 -220 -3 -35 -6
-40 -23 -38 -27 5 -33 12 -38 48 -6 39 -38 102 -97 189 -109 161 -177 275
-162 275 4 0 19 -8 32 -17z m1118 -380 c29 -4 39 -9 30 -14 -23 -15 -62 -10
-93 12 -28 20 -29 21 -5 15 14 -4 44 -9 68 -13z m-2253 -250 c45 -77 95 -145
123 -169 14 -11 26 -32 28 -47 1 -15 18 -46 37 -69 41 -51 101 -168 85 -168
-6 0 -8 -10 -4 -27 17 -68 25 -156 16 -173 -7 -13 -5 -30 6 -56 13 -31 14 -48
5 -98 -6 -34 -10 -72 -8 -86 2 -14 34 -70 70 -124 69 -100 79 -134 56 -178 -8
-16 -8 -31 2 -60 12 -36 13 -37 31 -22 10 10 18 12 18 7 0 -6 -6 -16 -14 -22
-21 -17 -26 -48 -11 -68 9 -12 10 -24 4 -35 -5 -9 -8 -28 -7 -42 2 -21 8 -26
30 -26 15 0 28 -4 28 -9 0 -5 19 -7 43 -4 32 3 38 2 27 -6 -12 -9 -9 -11 15
-7 17 2 75 5 130 6 93 2 98 3 70 15 -27 13 -28 14 -7 15 16 0 22 5 20 18 -4
21 39 25 63 5 9 -8 45 -20 80 -28 35 -7 58 -14 51 -14 -7 -1 -10 -5 -7 -11 3
-6 -4 -10 -16 -10 -84 0 144 -45 331 -65 160 -17 266 -19 307 -5 30 11 32 15
36 68 1 15 6 33 10 40 11 17 47 15 47 -3 0 -8 9 -19 20 -25 11 -6 19 -16 17
-23 -1 -7 11 -13 27 -15 23 -3 26 -6 15 -13 -9 -7 -1 -8 26 -4 31 5 37 4 25
-5 -11 -9 13 -10 101 -5 64 3 266 10 450 15 229 6 353 14 394 24 33 8 86 17
118 21 31 4 57 11 57 16 0 14 42 10 74 -6 30 -16 75 -18 116 -5 22 7 20 8 -15
10 -40 2 -109 17 -91 19 6 0 -5 17 -24 36 -23 24 -43 35 -62 35 -32 0 -31 0
-19 33 6 15 25 30 55 41 65 25 61 46 -8 46 -57 0 -72 9 -78 49 -3 20 -6 17
-28 -26 -28 -57 -45 -62 -59 -20 -13 35 -9 42 32 63 64 34 87 35 112 9 12 -14
33 -25 46 -25 13 0 47 -6 76 -14 37 -10 65 -11 100 -5 54 11 362 9 369 -2 4
-7 -45 -19 -81 -19 -32 0 -50 -24 -30 -40 21 -17 195 1 223 23 7 6 51 11 96
13 129 3 163 12 200 49 28 27 44 34 92 40 33 4 91 16 129 28 56 16 100 21 225
22 146 2 190 7 190 25 0 4 -10 12 -22 18 -21 10 -20 11 12 11 19 1 51 -8 71
-18 20 -11 53 -23 73 -26 20 -4 39 -11 42 -16 9 -15 -40 -20 -86 -10 -57 13
-140 14 -140 1 0 -21 90 -34 239 -35 149 0 154 -1 162 -22 7 -18 3 -23 -23
-32 -17 -6 -71 -11 -119 -11 -53 0 -89 -4 -89 -10 0 -5 5 -10 10 -10 6 0 10
-4 10 -10 0 -5 -8 -10 -17 -10 -10 0 -42 -9 -72 -21 -34 -13 -87 -22 -144 -24
-63 -3 -103 -11 -132 -25 -22 -11 -68 -25 -101 -31 -32 -6 -70 -16 -84 -23
-14 -8 -39 -14 -56 -14 -17 0 -57 -9 -90 -20 -32 -10 -95 -27 -139 -37 -44 -9
-109 -26 -145 -36 -36 -10 -74 -20 -85 -22 -40 -9 83 -7 219 4 82 6 148 17
160 24 12 8 57 23 101 35 44 11 131 46 193 75 125 61 147 66 156 32 7 -28 63
-57 114 -57 20 0 46 -7 56 -15 23 -17 77 -20 92 -5 6 6 22 6 44 0 19 -6 48
-10 63 -10 22 0 28 -4 25 -17 -2 -11 -12 -18 -26 -17 -12 0 -22 -3 -22 -8 0
-5 -10 -2 -22 6 -20 14 -24 14 -41 -2 -16 -14 -37 -17 -125 -15 -76 2 -113 -2
-133 -13 -16 -8 -29 -16 -29 -17 0 -2 109 -4 243 -4 171 -2 265 -7 322 -17 44
-9 94 -13 111 -10 24 4 36 1 51 -15 16 -17 33 -22 89 -23 38 -1 80 1 94 5 14
4 45 9 70 11 25 2 79 14 120 26 288 85 535 99 885 50 83 -11 182 -21 220 -20
39 0 89 -3 113 -6 23 -3 49 -3 57 0 14 5 14 9 0 36 -8 16 -23 33 -33 38 -63
33 -870 31 -1101 -3 -34 -4 -34 -4 -13 11 51 36 97 45 256 54 88 5 215 16 280
25 130 17 259 20 348 9 67 -8 128 2 128 20 0 8 6 18 13 24 15 13 84 -15 129
-53 16 -14 37 -25 47 -25 25 0 74 -26 96 -50 9 -10 34 -25 54 -31 20 -7 47
-23 61 -36 23 -23 30 -24 83 -18 33 3 71 11 85 17 15 5 92 12 172 15 233 9
504 -25 740 -92 44 -13 44 -13 -45 -11 -84 1 -92 -1 -126 -27 -31 -23 -43 -27
-80 -22 -24 3 -53 7 -63 8 -15 1 -40 -25 -92 -98 -40 -55 -73 -105 -74 -111 0
-6 -7 -17 -15 -24 -9 -7 -14 -19 -11 -27 3 -8 2 -12 -3 -9 -4 3 -17 -5 -28
-17 -30 -33 -105 -147 -96 -147 4 0 -8 -14 -25 -31 -31 -30 -44 -58 -20 -43 7
4 8 3 4 -5 -4 -6 -11 -9 -16 -6 -5 3 -14 -4 -20 -15 -7 -13 -7 -20 0 -20 5 0
10 5 10 10 0 6 4 10 9 10 5 0 4 -11 -2 -24 -7 -14 -16 -24 -21 -23 -5 1 -10
-11 -13 -27 -2 -16 -9 -38 -15 -49 -8 -16 -12 -17 -20 -6 -8 11 -9 10 -4 -4 3
-10 1 -27 -4 -37 -6 -11 -17 -56 -25 -101 -15 -91 -15 -91 -126 -170 -89 -63
-129 -99 -129 -115 0 -8 -4 -14 -10 -14 -5 0 -10 -7 -10 -15 0 -8 -4 -14 -8
-13 -9 3 -56 -42 -82 -77 -14 -20 -14 -20 7 -1 l22 18 -5 -43 c-5 -48 -29
-122 -51 -156 -10 -15 -27 -23 -51 -25 -29 -2 -41 -10 -57 -35 -15 -23 -25
-31 -40 -27 -12 3 -15 2 -9 -3 17 -12 -12 -74 -31 -67 -11 4 -15 0 -15 -16 0
-14 4 -19 13 -15 6 4 1 -2 -13 -14 -14 -11 -25 -26 -26 -33 -3 -34 -5 -38 -21
-38 -17 0 -43 -35 -69 -91 -17 -37 -46 -69 -57 -62 -5 3 -6 -3 -3 -15 4 -11 3
-23 -3 -26 -16 -10 -52 -87 -45 -98 4 -6 2 -8 -4 -4 -6 3 -15 -8 -22 -28 -12
-39 -44 -71 -59 -61 -8 4 -8 -2 -1 -21 9 -24 9 -25 -5 -14 -13 11 -14 10 -7
-11 6 -15 5 -30 -2 -41 -8 -13 -8 -23 2 -38 7 -12 8 -20 2 -20 -5 0 -10 5 -10
10 0 6 -9 10 -20 10 -27 0 -26 -16 2 -23 18 -5 19 -8 8 -22 -12 -14 -11 -18 1
-26 12 -8 11 -12 -5 -22 -64 -41 -83 -90 -48 -125 38 -39 73 -93 78 -122 8
-35 7 -35 -36 -13 -34 17 -120 26 -120 13 0 -4 -9 -10 -19 -13 -11 -2 -28 -21
-38 -42 -11 -20 -22 -36 -26 -36 -33 5 -54 -5 -95 -42 -26 -24 -55 -47 -65
-50 -9 -4 -20 -15 -23 -24 -3 -10 -10 -26 -15 -35 -5 -10 -9 -24 -9 -33 0 -8
-13 -21 -30 -30 -16 -9 -30 -22 -30 -29 0 -12 -18 -22 -73 -40 -10 -3 -17 -14
-16 -23 1 -10 -1 -26 -6 -36 -5 -11 -2 -24 9 -36 21 -23 21 -57 -1 -65 -9 -4
-31 -2 -50 5 -25 8 -37 8 -48 -1 -8 -6 -19 -9 -26 -5 -8 5 -8 1 1 -15 9 -16 9
-25 1 -33 -6 -6 -11 -19 -11 -28 0 -10 -10 -21 -22 -24 -13 -4 -40 -23 -60
-42 -29 -28 -42 -34 -62 -29 -20 5 -29 1 -41 -17 -8 -14 -13 -32 -9 -41 5 -12
0 -16 -16 -16 -15 0 -20 -4 -16 -15 3 -8 0 -14 -7 -12 -7 1 -11 -7 -10 -20 2
-16 -2 -21 -12 -17 -11 5 -13 2 -8 -12 4 -12 3 -15 -5 -10 -8 4 -12 1 -12 -10
0 -10 -3 -14 -7 -11 -6 6 -105 -153 -121 -193 -5 -13 -3 -13 11 -1 15 12 15
11 1 -18 -9 -17 -19 -29 -24 -26 -13 8 -17 -16 -15 -79 2 -46 0 -56 -9 -45
-23 30 -36 20 -37 -28 -1 -27 -2 -61 -3 -78 -1 -16 2 -58 6 -92 8 -55 6 -66
-12 -90 -21 -30 -47 -111 -57 -180 -3 -24 -10 -43 -14 -43 -11 0 -11 15 1 120
12 100 7 120 -26 120 -18 0 -35 -15 -67 -57 -23 -31 -53 -68 -67 -82 -27 -29
-37 -74 -20 -93 6 -7 20 -24 31 -38 l20 -25 -31 -8 c-37 -9 -66 -2 -33 8 13 4
20 11 17 16 -7 13 -44 -13 -44 -31 0 -27 -22 -40 -69 -40 -39 0 -51 -5 -79
-34 -20 -21 -35 -48 -39 -70 -3 -20 -10 -36 -14 -36 -5 0 -9 -9 -9 -20 0 -22
-45 -70 -64 -70 -36 1 -53 13 -49 33 4 18 3 19 -6 7 -22 -31 -10 8 24 73 19
37 33 67 32 67 -2 0 -21 -24 -42 -52 -22 -29 -48 -62 -58 -73 -10 -10 -15 -25
-12 -33 2 -7 1 -11 -4 -8 -5 4 -21 -14 -35 -38 -14 -24 -47 -68 -73 -97 -27
-28 -53 -65 -60 -80 -7 -16 -16 -29 -22 -29 -5 0 -13 -9 -16 -20 -3 -11 -11
-20 -16 -20 -6 0 -7 5 -3 12 4 7 3 8 -4 4 -7 -4 -12 -26 -12 -49 -1 -42 -4
-53 -55 -181 -22 -54 -30 -65 -37 -52 -5 9 -6 26 -3 39 5 19 5 20 -5 4 -6 -9
-15 -15 -19 -13 -4 3 -22 -28 -41 -67 -19 -40 -38 -73 -42 -75 -4 -2 -5 -9 -2
-15 2 -7 -3 -21 -12 -32 -8 -11 -12 -14 -8 -6 5 9 3 12 -5 7 -6 -4 -9 -11 -6
-16 7 -11 -5 -41 -15 -35 -4 3 -11 -2 -14 -11 -3 -8 -2 -12 4 -9 5 3 7 -1 4
-9 -3 -8 -11 -13 -17 -11 -14 5 -98 -109 -93 -127 1 -7 1 -9 -2 -4 -5 9 -62
-54 -62 -69 0 -5 5 -3 10 5 6 9 10 10 10 3 0 -6 -11 -25 -25 -41 -13 -16 -34
-55 -46 -88 -12 -32 -25 -64 -30 -69 -4 -6 -11 -30 -15 -53 -6 -41 -18 -54
-26 -29 -3 6 -16 12 -30 12 -19 1 -24 -3 -20 -14 4 -11 1 -13 -13 -8 -24 10
-47 -11 -40 -37 3 -12 2 -15 -1 -8 -8 18 -27 15 -20 -3 5 -13 2 -14 -15 -4
-18 9 -19 9 -10 -9 6 -11 7 -23 3 -27 -4 -3 -8 -11 -8 -16 -1 -5 -2 -13 -3
-19 0 -5 -25 -33 -53 -61 -29 -28 -52 -55 -50 -60 1 -5 -2 -9 -7 -9 -5 0 -12
-11 -15 -24 -3 -14 -15 -28 -26 -31 -11 -4 -18 -10 -15 -15 3 -5 0 -12 -7 -17
-7 -4 -31 -28 -53 -53 -22 -25 -42 -45 -45 -45 -3 0 -13 -6 -22 -14 -13 -12
-15 -17 -5 -24 7 -5 4 -6 -9 -2 -15 4 -24 0 -28 -11 -4 -9 -9 -14 -13 -10 -8
7 -64 -44 -59 -53 2 -3 -3 -13 -12 -21 -14 -13 -15 -12 -9 3 9 23 4 21 -19 -5
-10 -12 -13 -18 -5 -13 10 5 12 4 7 -4 -4 -6 -11 -9 -16 -6 -11 7 -51 -26 -44
-37 3 -4 -1 -5 -9 -3 -7 3 -22 -4 -33 -16 -19 -22 -19 -22 1 -16 20 7 20 7 1
-8 -38 -29 0 -15 53 20 30 20 56 33 59 30 3 -3 -1 -5 -8 -5 -7 0 -10 -3 -7 -6
4 -4 12 -3 19 3 7 5 40 19 73 32 33 12 69 27 80 32 117 51 204 68 229 44 24
-25 11 -35 -47 -35 -86 0 -402 -119 -504 -189 -67 -46 -85 -77 -78 -133 4 -31
3 -38 -4 -23 -6 12 -10 15 -10 6 -2 -26 34 -89 52 -94 31 -9 18 -25 -20 -25
-50 0 -73 -4 -73 -11 0 -9 92 -51 110 -51 9 0 5 -7 -10 -17 -14 -10 -33 -16
-42 -15 -12 2 -20 -6 -24 -23 -3 -14 -4 -29 -1 -32 4 -3 2 -13 -3 -22 -4 -9
-11 -145 -15 -301 -6 -260 -9 -296 -35 -420 -37 -178 -64 -252 -116 -325 -162
-227 -366 -397 -459 -382 -31 5 -38 1 -89 -53 -30 -33 -57 -73 -61 -90 -4 -16
-11 -30 -15 -30 -41 0 -26 -135 27 -251 33 -73 35 -81 21 -96 -15 -14 -17 -14
-27 3 -28 50 -28 50 -58 19 -26 -28 -28 -36 -27 -105 1 -58 7 -85 26 -120 13
-25 30 -45 38 -45 11 0 15 -15 17 -60 1 -33 9 -73 17 -89 10 -21 12 -35 5 -48
-5 -10 -6 -18 -2 -18 5 0 17 -13 26 -30 49 -82 135 -127 217 -114 33 5 44 3
58 -13 9 -11 39 -30 66 -44 27 -13 51 -32 54 -42 3 -10 22 -25 44 -34 32 -13
39 -20 34 -36 -3 -11 3 -36 14 -56 19 -38 111 -131 130 -131 6 0 42 -15 80
-34 71 -34 74 -46 9 -46 -25 0 -28 -3 -21 -17 8 -13 4 -21 -13 -35 -38 -30
-61 -22 -142 53 l-78 71 -95 3 c-52 1 -114 8 -138 14 -49 14 -126 6 -143 -15
-9 -11 -8 -15 4 -20 8 -3 17 -14 20 -24 3 -13 0 -17 -9 -13 -8 3 -14 0 -14 -6
0 -8 -6 -7 -20 1 -11 7 -20 18 -20 25 0 13 -48 50 -92 72 l-27 14 22 17 c16
13 19 21 11 31 -30 38 -41 163 -19 200 4 5 2 23 -5 38 -9 22 -20 30 -48 35
-38 6 -52 -4 -52 -37 0 -10 -11 -30 -25 -45 -14 -15 -28 -42 -31 -60 -9 -46 1
-161 15 -175 6 -6 31 -10 55 -9 47 2 54 -10 26 -43 -12 -15 -12 -21 3 -47 9
-16 17 -38 17 -48 0 -10 5 -22 10 -25 6 -3 10 -13 10 -22 0 -9 8 -22 18 -29
16 -12 16 -14 0 -30 -14 -15 -22 -16 -43 -6 -15 7 -25 20 -25 33 0 21 -15 40
-98 127 -31 32 -41 50 -36 64 3 11 -1 34 -9 51 -36 76 -51 368 -22 423 24 47
19 95 -15 134 -16 19 -30 44 -30 55 -1 11 -7 36 -14 55 -13 35 -13 35 -21 10
-16 -50 -49 -88 -80 -93 -41 -7 -283 -157 -322 -199 -6 -7 -50 -54 -97 -103
l-85 -90 -25 -99 c-28 -106 -32 -136 -16 -136 6 0 10 3 10 8 0 13 83 94 105
102 63 24 69 22 28 -9 -36 -26 -55 -51 -39 -51 5 0 176 46 191 51 6 2 12 0 14
-6 3 -5 -4 -12 -15 -14 -10 -2 -41 -17 -69 -35 -28 -17 -73 -42 -100 -56 -61
-32 -123 -91 -130 -127 -4 -16 -13 -43 -21 -61 -8 -18 -14 -42 -14 -54 0 -12
-6 -37 -12 -56 -11 -30 -11 -35 7 -45 11 -6 71 -11 138 -12 64 0 109 3 100 7
-12 4 -2 7 27 8 42 2 43 3 15 10 -28 7 -27 8 14 9 l44 1 -26 20 c-27 22 -27
60 0 60 10 0 13 6 8 18 -21 53 -17 77 24 135 23 32 41 62 41 67 0 6 4 10 8 10
5 0 13 17 18 38 8 33 13 37 44 40 19 2 62 -6 95 -17 l60 -19 -50 -1 c-37 -1
-63 -9 -97 -31 -49 -31 -86 -89 -72 -112 12 -18 19 -114 14 -180 -3 -31 -7
-38 -24 -39 -21 0 -21 -1 -1 -9 11 -4 36 -13 55 -19 l35 -11 -38 6 c-21 3 -44
7 -51 10 -8 3 -16 -1 -19 -8 -4 -11 41 -17 216 -31 153 -12 222 -14 227 -7 4
6 5 24 2 40 -3 22 -12 32 -42 44 -21 8 -41 20 -44 25 -8 12 25 7 122 -19 40
-11 87 -20 105 -20 18 0 41 -6 51 -13 17 -12 17 -15 2 -30 -10 -10 -12 -18 -6
-22 6 -4 8 -11 5 -16 -4 -5 12 -9 35 -9 25 0 39 4 35 10 -3 6 3 10 14 10 11 0
23 5 26 10 3 6 -1 10 -9 10 -20 0 -20 7 -2 26 22 21 55 17 65 -9 7 -17 4 -25
-13 -35 -19 -12 -19 -13 -1 -6 11 4 29 6 40 6 16 -1 17 1 5 9 -12 8 -10 9 7 4
12 -3 64 5 115 19 51 15 107 26 123 27 29 1 30 1 5 9 -21 7 -22 8 -5 9 20 2
20 2 1 16 -32 24 -11 28 30 6 44 -24 54 -26 54 -10 0 5 -4 8 -9 5 -5 -4 -11
-1 -13 6 -2 6 -15 13 -28 15 -14 2 -28 7 -32 11 -4 4 -28 6 -53 4 -40 -4 -46
-7 -42 -23 3 -12 0 -19 -10 -19 -8 0 -12 4 -8 9 3 6 -4 15 -15 21 -26 14 -26
30 1 30 11 0 29 5 39 10 13 7 21 7 25 0 3 -5 18 -10 33 -10 32 0 172 -52 220
-82 17 -11 29 -25 26 -30 -4 -6 -2 -8 4 -4 5 3 33 -19 60 -49 53 -61 121 -95
171 -87 26 3 30 9 36 49 3 25 9 42 12 39 4 -3 15 1 25 11 23 20 24 3 2 -38 -8
-17 -13 -33 -10 -36 7 -7 66 29 60 38 -8 14 105 32 121 19 15 -12 269 -5 320
10 53 15 153 22 160 10 3 -5 25 -10 48 -10 24 0 37 -4 30 -8 -7 -4 17 -6 53
-4 42 3 69 0 73 -6 9 -14 821 2 866 16 23 8 25 11 10 12 -16 1 -14 4 10 15 19
8 37 10 53 4 13 -5 31 -5 40 -1 9 5 33 9 53 11 19 1 51 6 70 12 19 6 107 13
196 16 90 3 160 9 158 14 -3 4 4 13 16 20 18 9 24 8 31 -5 8 -15 68 -21 66 -6
-3 18 17 40 32 35 13 -4 20 0 25 14 7 23 50 35 97 26 31 -5 35 -3 71 51 20 32
54 91 74 131 20 40 41 73 46 73 5 0 6 -21 2 -49 -6 -43 -4 -52 15 -71 16 -16
29 -20 48 -15 26 6 33 13 74 72 24 35 34 38 58 23 12 -7 12 -12 -4 -29 -11
-12 -14 -21 -8 -21 6 0 13 -9 17 -20 5 -16 15 -19 62 -18 47 1 63 7 100 35 24
18 47 33 52 33 5 0 11 7 15 15 6 16 -50 59 -64 50 -4 -3 -42 -5 -84 -7 -88 -2
-113 12 -102 56 8 32 23 33 56 1 23 -22 31 -23 83 -18 31 3 57 10 57 15 0 5
-5 6 -11 2 -7 -4 -10 -1 -7 7 2 7 -9 26 -25 40 -34 31 -31 59 5 59 32 0 68 27
68 51 0 24 2 24 42 -1 24 -14 42 -18 76 -13 24 3 68 0 97 -7 42 -10 57 -10 69
-1 11 9 22 9 49 -3 33 -13 35 -13 46 10 9 21 6 28 -35 66 -25 24 -50 45 -55
46 -5 2 -9 9 -9 15 0 6 -7 18 -16 28 -25 28 -6 45 21 19 28 -26 95 -33 112
-11 10 14 14 11 23 -16 11 -31 55 -63 87 -63 7 0 13 -5 13 -11 0 -5 -4 -7 -10
-4 -5 3 -10 -1 -10 -9 0 -18 4 -19 38 -9 21 5 23 11 20 44 -4 49 18 61 79 43
39 -12 43 -11 44 4 0 14 2 13 8 -3 7 -18 9 -17 25 13 9 17 12 32 6 32 -5 0
-10 -5 -10 -12 0 -6 -8 -3 -20 7 -11 10 -17 21 -14 26 2 5 -8 12 -23 15 -17 5
-28 3 -31 -4 -2 -7 -11 -12 -20 -12 -15 1 -15 2 1 11 21 12 23 33 2 25 -16 -6
-20 11 -7 30 4 6 37 18 73 26 41 10 85 29 118 52 29 20 58 36 64 36 5 0 3 8
-6 18 -9 10 -45 24 -82 31 -36 7 -65 15 -65 16 0 2 18 21 39 42 34 33 38 41
27 56 -7 9 -18 17 -25 17 -6 0 -22 6 -34 14 -28 18 -104 29 -112 17 -3 -6 -15
-7 -28 -4 -12 3 -71 6 -132 8 -60 1 -114 3 -120 4 -17 4 37 23 85 31 168 27
256 43 273 49 10 4 31 31 45 61 15 29 31 52 35 49 5 -2 13 4 18 14 6 10 22 17
39 17 23 0 30 5 30 19 0 10 22 47 50 82 27 35 50 69 50 76 0 19 44 82 58 83
26 0 11 30 -20 38 -31 8 -33 11 -36 58 l-3 49 31 -42 c19 -26 36 -40 45 -37 8
3 28 33 45 67 33 66 35 71 20 62 -16 -10 -12 11 5 25 8 7 12 16 9 22 -3 5 1
20 10 33 9 13 16 36 16 51 0 22 -2 24 -15 14 -8 -7 -26 -36 -41 -66 -41 -83
-55 -85 -31 -3 20 71 12 95 -39 120 -48 25 -84 54 -84 70 0 6 5 7 10 4 14 -8
13 -1 -6 43 -14 35 -16 36 -29 18 -10 -13 -11 -24 -4 -37 6 -12 6 -19 0 -19
-5 0 -16 -3 -25 -6 -11 -4 -16 -1 -16 10 0 8 -18 25 -40 36 -27 14 -40 27 -40
41 0 16 5 20 18 16 60 -19 62 -19 62 -3 0 17 -37 97 -49 106 -43 32 -52 101
-20 165 18 35 62 75 83 75 4 0 6 -40 5 -90 -1 -49 -6 -90 -11 -90 -5 0 -4 -9
2 -19 5 -11 10 -33 10 -49 0 -33 26 -102 38 -102 5 0 7 14 4 30 -3 25 -1 30
16 30 15 0 21 -9 25 -40 6 -50 49 -108 85 -116 15 -4 32 -11 38 -16 18 -13 53
5 127 67 64 53 68 58 65 96 -1 21 -6 39 -10 39 -15 0 -8 33 10 46 9 7 27 14
40 14 13 0 21 4 18 9 -3 5 6 21 19 35 14 15 25 23 25 17 0 -5 -5 -13 -11 -17
-20 -12 6 -25 32 -15 14 5 46 7 71 4 38 -4 46 -9 45 -24 -1 -11 -4 -19 -7 -19
-4 0 -18 -18 -33 -40 l-26 -40 24 0 c13 0 26 4 30 9 10 17 267 210 318 239 71
41 75 25 10 -38 -34 -33 -56 -60 -50 -60 7 0 18 5 24 11 8 8 13 8 17 0 4 -6 2
-11 -3 -11 -6 0 -11 -6 -11 -14 0 -7 -9 -25 -20 -39 -11 -14 -20 -34 -20 -45
0 -11 -9 -42 -21 -69 -15 -34 -20 -62 -16 -96 4 -41 11 -55 55 -100 85 -88
224 -246 247 -280 30 -45 51 -103 60 -165 6 -45 5 -51 -9 -46 -8 3 -31 28 -51
55 -37 51 -87 89 -118 89 -15 0 -18 -7 -16 -37 4 -57 -32 -127 -81 -158 -23
-15 -66 -51 -96 -81 -30 -30 -58 -54 -62 -54 -4 0 -14 -17 -21 -37 -7 -21 -29
-63 -47 -94 -19 -31 -34 -62 -34 -68 0 -7 -4 -10 -9 -7 -9 6 -29 -34 -34 -69
-1 -11 -5 -24 -8 -30 -16 -26 -32 -94 -31 -130 0 -29 -2 -34 -7 -20 -6 14 -8
5 -7 -27 1 -25 4 -44 8 -42 4 3 5 -2 2 -10 -3 -9 -2 -16 3 -16 5 0 24 33 43
73 18 39 36 74 39 77 4 3 17 29 30 58 14 29 31 58 39 65 9 7 13 8 11 2 -14
-32 -92 -194 -105 -218 -37 -67 -44 -83 -44 -103 0 -32 -38 -76 -60 -69 -13 4
-20 -1 -26 -17 -3 -13 -11 -25 -15 -29 -5 -3 -4 -21 1 -39 6 -19 10 -48 10
-63 0 -16 4 -26 8 -23 5 3 8 -18 8 -46 -1 -29 4 -53 10 -55 40 -13 45 -27 37
-93 -7 -58 -11 -66 -36 -78 -16 -8 -35 -29 -43 -48 -13 -31 -13 -37 1 -50 8
-9 15 -22 15 -30 0 -8 5 -14 10 -14 6 0 10 -11 10 -25 0 -16 -6 -25 -15 -25
-8 0 -15 4 -15 8 0 5 -11 14 -25 20 -27 12 -25 13 -39 -32 -3 -7 0 -33 5 -56
11 -48 2 -140 -12 -119 -4 7 -11 10 -15 6 -12 -11 -14 -278 -3 -321 9 -32 7
-45 -7 -72 -10 -19 -22 -34 -26 -34 -5 0 -8 -4 -8 -10 0 -5 6 -10 13 -10 8 0
24 -11 37 -25 l24 -26 -42 -38 c-39 -36 -42 -42 -42 -90 0 -39 3 -51 13 -46 6
4 4 0 -7 -9 -10 -8 -15 -19 -12 -24 3 -5 -13 -14 -36 -20 -51 -13 -64 -7 -19
9 24 9 29 14 19 20 -10 7 -8 9 7 10 11 1 4 5 -15 9 -47 12 -491 4 -557 -9 -29
-6 -58 -9 -65 -6 -7 2 -39 9 -71 15 -31 6 -55 16 -52 21 4 5 41 9 83 9 42 0
84 5 92 10 12 8 10 10 -10 10 -38 0 -70 11 -64 21 3 5 -13 9 -35 9 -23 0 -43
-6 -48 -13 -4 -8 -16 -16 -25 -20 -11 -4 -15 -12 -12 -21 4 -11 -4 -22 -24
-33 -17 -10 -38 -30 -47 -45 -9 -15 -26 -33 -38 -39 -12 -7 -25 -17 -29 -23
-4 -6 -9 -8 -13 -5 -3 3 25 38 63 77 59 62 65 72 45 72 -13 0 -58 -17 -101
-39 -91 -45 -113 -44 -74 5 17 22 39 36 60 40 21 4 30 10 24 16 -16 16 -73
-15 -132 -71 -65 -62 -98 -86 -107 -78 -3 4 0 13 7 22 16 19 12 19 -37 -4 -22
-11 -79 -30 -126 -43 -68 -18 -89 -20 -98 -11 -15 15 6 63 28 63 7 0 21 9 30
19 9 11 20 18 25 15 4 -3 20 2 35 10 26 14 27 15 6 16 -13 0 -23 -4 -23 -9 0
-5 -6 -9 -12 -8 -41 1 -80 -4 -74 -10 3 -4 -33 -16 -81 -28 -49 -12 -108 -31
-133 -43 -154 -72 -235 -104 -284 -112 -40 -6 -72 -21 -115 -51 -62 -44 -91
-46 -91 -8 0 15 -12 26 -50 42 -27 11 -50 27 -50 34 0 7 16 21 36 31 24 13 44
34 58 62 15 31 30 47 51 53 17 6 42 20 58 33 l27 23 24 -24 c28 -28 98 -49
129 -39 12 4 29 17 39 30 12 15 34 25 65 30 l46 7 -89 22 c-49 13 -111 32
-137 44 -27 12 -53 21 -58 21 -5 0 -9 -19 -9 -42 l-1 -43 -22 55 c-18 46 -27
56 -49 58 -32 4 -68 -13 -68 -32 0 -25 -46 -53 -107 -65 -35 -7 -89 -21 -120
-32 -32 -11 -86 -23 -121 -26 -70 -7 -107 -26 -82 -43 8 -5 31 -10 50 -10 31
0 38 -5 63 -45 37 -62 37 -116 0 -145 -26 -21 -87 -50 -103 -50 -4 0 -12 11
-18 25 -7 14 -20 25 -31 25 -18 0 -91 -66 -91 -82 0 -4 -6 -8 -13 -8 -7 0 -24
-11 -39 -25 -32 -30 -47 -102 -29 -150 23 -65 4 -97 -27 -45 -14 22 -20 53
-21 111 l-2 81 54 82 c106 159 111 188 28 144 -29 -15 -47 -30 -40 -32 8 -2
20 -6 27 -8 19 -5 -127 -60 -173 -65 l-40 -4 65 35 c64 34 64 35 30 35 -19 0
-68 -8 -109 -19 -89 -24 -130 -25 -137 -5 -4 8 -12 15 -19 15 -8 0 -17 9 -20
20 -5 15 -15 20 -42 20 -23 0 -48 9 -69 25 -18 14 -40 25 -48 25 -9 0 -16 7
-16 15 0 18 -14 19 -39 3 -13 -8 -29 -9 -52 -2 -41 12 -48 30 -14 38 37 10 33
37 -5 30 -31 -7 -90 12 -90 28 0 5 8 7 18 4 9 -3 24 -1 32 4 21 14 1 26 -59
34 -39 5 -48 3 -61 -14 -13 -18 -28 -21 -87 -22 -42 -1 -77 3 -86 10 -11 9
-18 8 -31 -6 -9 -10 -13 -22 -10 -25 4 -4 -4 -15 -17 -26 -13 -10 -26 -16 -29
-11 -12 18 -46 15 -63 -7 -21 -26 -57 -31 -57 -8 0 8 13 21 29 30 17 8 36 24
44 36 14 20 16 20 27 2 11 -17 11 -17 6 0 -3 10 -6 22 -6 27 0 17 -71 40 -124
40 -31 0 -56 -3 -56 -7 0 -5 -56 -6 -125 -4 -116 3 -125 2 -125 -15 0 -11 4
-26 9 -34 13 -19 5 -29 -18 -23 -10 3 -21 17 -24 32 -4 19 -12 27 -26 27 -12
0 -21 -3 -21 -6 0 -3 -13 -5 -30 -6 -16 -1 -27 3 -24 8 4 6 -26 8 -75 6 -45
-2 -82 0 -84 4 -4 12 -171 25 -227 17 -81 -11 -99 -11 -80 1 8 5 29 10 45 11
l30 1 -30 8 c-50 13 -87 12 -79 -2 6 -10 4 -10 -7 0 -19 17 -240 17 -282 -1
-61 -26 -107 -38 -118 -31 -8 4 -9 3 -5 -4 4 -7 -4 -14 -21 -18 -15 -4 -32
-10 -38 -13 -5 -4 -23 -8 -38 -10 -25 -2 -28 0 -25 20 2 15 12 26 28 30 17 5
19 7 7 8 -10 1 -32 -6 -49 -15 -20 -10 -28 -11 -22 -3 5 9 2 10 -12 5 -18 -7
-117 -25 -239 -43 -27 -5 -149 -8 -270 -7 -179 0 -247 4 -364 23 -90 14 -165
21 -200 18 -34 -4 -44 -3 -26 2 24 6 15 9 -50 16 -130 13 -243 7 -264 -14 -24
-24 -170 -63 -208 -55 -23 4 -48 -2 -98 -26 -61 -29 -74 -32 -134 -27 -90 7
-196 32 -238 57 -36 21 -133 29 -133 10 0 -5 -18 -10 -41 -10 -24 0 -38 4 -34
10 4 7 -95 11 -287 12 -429 4 -511 2 -638 -16 -143 -20 -217 -20 -300 0 -85
21 -208 20 -324 -2 l-93 -17 -54 31 c-30 18 -61 36 -69 42 -12 8 3 27 79 104
62 62 91 98 86 106 -5 9 -4 11 3 6 7 -4 12 -1 12 7 0 8 14 32 30 53 17 22 56
76 88 121 31 45 66 92 77 105 37 43 86 112 155 219 49 76 86 120 132 157 78
64 172 205 155 233 -8 13 -7 21 6 33 20 20 24 20 30 -2 3 -10 5 -6 6 11 0 16
5 25 11 22 5 -3 8 0 6 7 -3 7 -7 39 -10 70 l-6 57 42 12 c51 13 77 34 75 60
-2 25 -18 24 -80 -8 -67 -34 -165 -64 -172 -52 -3 5 -1 18 5 29 9 17 40 26 72
21 4 0 5 6 2 14 -4 8 -1 15 7 15 7 0 19 7 28 16 9 8 42 31 74 50 43 27 57 41
57 59 0 25 -49 136 -73 163 -8 9 -17 25 -20 35 -6 17 -5 17 21 -2 27 -19 47
-41 122 -136 17 -22 37 -43 44 -47 18 -10 108 32 140 66 41 45 143 203 221
346 200 363 257 441 451 617 95 86 260 303 236 311 -7 2 -9 8 -6 14 4 6 -2 6
-14 -1 -11 -6 -34 -11 -51 -11 -16 0 -32 -4 -36 -9 -3 -6 -14 -9 -25 -8 -24 2
-17 11 31 46 21 16 35 31 32 35 -3 3 -2 6 3 7 21 2 110 9 127 9 22 1 40 45 32
80 -3 14 -2 20 3 13 5 -9 11 -3 19 17 9 23 8 28 -3 23 -8 -3 -14 -1 -14 5 0
11 31 38 39 34 3 -2 7 2 9 10 2 9 0 8 -7 -2 -13 -18 -14 -1 -2 19 5 7 13 11
19 7 6 -3 8 1 5 12 -5 19 23 50 34 38 3 -3 1 -6 -5 -6 -7 0 -12 -8 -12 -17 0
-11 18 2 53 38 28 30 65 63 80 72 15 10 31 26 35 35 3 9 15 25 27 35 11 10 14
16 8 12 -18 -8 -16 10 1 24 8 7 17 23 20 36 4 14 13 25 21 25 8 0 15 7 15 16
0 14 -2 15 -17 3 -12 -10 -17 -11 -20 -2 -2 7 -12 9 -21 6 -13 -4 -12 -2 3 10
11 9 26 17 32 17 7 0 19 14 28 30 9 17 20 30 26 30 5 0 19 9 30 19 l20 19 -23
53 c-26 60 -31 150 -10 171 10 10 17 7 35 -16 21 -26 27 -28 63 -22 21 4 49 8
61 9 11 1 19 5 16 10 -2 4 1 24 8 45 7 20 13 54 14 74 1 28 8 42 28 59 19 14
26 27 22 39 -3 10 -1 27 4 37 5 10 12 34 16 54 3 20 14 44 25 54 11 10 20 24
20 31 0 8 13 20 29 29 19 9 32 25 36 45 4 16 12 33 19 37 14 9 39 50 42 72 3
17 23 31 47 31 10 0 21 8 24 18 4 9 15 23 25 30 31 22 37 45 27 93 -5 24 -15
54 -21 66 -18 36 -3 38 39 5 45 -35 147 -59 170 -41 7 7 13 31 13 55 0 32 4
44 14 44 8 0 18 -4 21 -10 13 -20 25 -9 25 23 0 44 31 75 52 54 12 -12 22 -2
75 73 110 156 219 285 368 436 81 82 165 176 188 209 23 33 106 187 184 343
79 156 164 315 189 353 44 69 139 171 239 260 56 49 105 129 80 129 -8 0 -15
5 -15 10 0 6 7 10 15 10 8 0 15 6 15 14 0 9 -8 13 -22 10 -14 -3 -11 1 9 10
24 11 31 19 26 32 -4 11 -3 15 5 10 6 -3 16 2 22 13 9 18 8 20 -7 14 -12 -4
-9 4 11 25 16 17 33 29 37 26 5 -3 6 2 3 10 -4 11 0 16 12 16 9 0 15 3 12 6
-4 3 7 18 24 34 18 17 27 34 22 41 -4 7 -3 9 3 6 12 -7 23 14 23 43 0 10 -13
48 -30 85 -16 37 -30 71 -30 76 0 5 12 9 26 9 17 0 28 -6 31 -20 4 -13 14 -20
30 -20 13 0 22 -3 20 -7 -3 -5 2 -14 10 -22 13 -12 15 -12 11 -1 -5 16 22 51
33 44 5 -2 13 5 19 16 8 15 8 20 -2 21 -7 1 -19 2 -27 3 -38 3 4 46 45 46 6 0
14 7 18 15 3 8 15 15 27 15 12 0 19 3 16 7 -4 3 2 12 13 20 11 8 20 19 20 25
0 7 -5 6 -15 -2 -12 -10 -15 -6 -21 29 -4 25 -12 41 -20 41 -18 0 -18 19 0 26
8 3 17 12 20 21 5 12 -2 14 -34 11 -58 -5 -51 14 14 36 l56 18 -20 28 c-18 26
-19 30 -5 64 10 24 22 36 35 36 11 0 17 5 15 13 -3 6 7 20 23 31 24 16 46 42
84 100 4 6 19 35 32 64 24 51 21 67 -10 61 -5 -1 -11 -1 -14 0 -10 2 175 188
215 217 22 15 45 33 50 39 6 6 38 30 71 53 34 23 79 60 100 81 21 22 41 38 46
35 12 -7 -4 30 -16 38 -6 4 -4 14 7 26 9 10 17 23 17 29 0 6 16 30 35 54 19
24 35 50 35 57 0 6 3 12 8 12 4 0 18 18 32 40 13 22 28 40 32 40 4 0 8 7 8 15
0 8 5 15 10 15 6 0 10 7 10 16 0 15 41 72 142 198 26 33 46 61 44 63 -5 5 -60
-20 -68 -32 -4 -5 -10 -7 -13 -3 -3 3 27 34 66 69 40 35 87 79 106 97 19 17
38 32 43 32 5 0 12 5 15 10 4 7 -3 9 -22 4 -21 -5 -13 4 35 39 35 25 76 51 93
57 42 18 36 27 -16 25 -25 -1 -45 0 -45 2 0 8 25 29 43 36 9 3 17 13 17 21 0
8 18 18 48 26 38 9 50 17 62 43 17 37 112 113 153 122 15 4 27 11 27 16 0 5 7
9 15 9 8 0 15 5 15 10 0 6 -4 10 -9 10 -5 0 2 20 15 45 14 24 23 49 19 54 -3
6 25 41 62 79 37 38 88 92 113 120 l46 50 -45 6 c-80 11 -94 7 -179 -50 -77
-52 -86 -55 -108 -44 -29 16 -29 23 -4 75 l19 40 -22 18 c-12 10 -29 24 -37
30 -14 12 -74 82 -89 104 -10 15 -111 78 -161 101 -48 22 -153 48 -233 58 -76
9 -48 16 65 16 86 1 109 -3 138 -20 26 -14 60 -21 130 -26 52 -3 110 -8 128
-11 22 -3 42 1 60 13 14 9 28 15 30 12 2 -3 10 13 18 35 7 22 18 41 23 43 15
5 -20 39 -52 51 -16 6 -70 11 -122 11 -52 0 -96 4 -99 9 -3 4 -40 11 -82 14
-45 3 -80 11 -85 18 -5 10 -14 8 -35 -6 -23 -15 -40 -17 -113 -11 -47 3 -88
10 -91 14 -7 10 -24 13 -122 19 -70 5 -105 1 -180 -16 -135 -33 -245 -67 -258
-81 -3 -3 -17 -11 -31 -17 -40 -17 -97 -94 -115 -152 -18 -62 -38 -63 -42 -2
-2 28 4 56 20 87 27 54 127 149 195 184 26 14 53 30 60 37 7 6 22 15 34 18 12
4 18 12 15 21 -3 8 -1 14 5 14 6 0 7 5 4 10 -11 17 -154 1 -203 -22 -47 -22
-109 -31 -117 -17 -4 5 -15 9 -25 9 -10 0 -20 5 -22 10 -2 7 -73 12 -193 14
-158 3 -211 8 -315 29 -193 41 -219 42 -365 16 -193 -35 -404 -33 -580 5 -177
38 -259 42 -376 21 -102 -18 -187 -16 -295 6 -58 12 -69 11 -190 -20 -263 -66
-364 -122 -554 -308 -78 -77 -92 -95 -80 -104 12 -8 11 -9 -5 -5 -26 7 -104
-70 -111 -111 -6 -32 -14 -44 -14 -20 0 10 -3 17 -6 17 -11 0 -59 -64 -60 -81
-2 -27 -12 -49 -23 -49 -6 0 -7 8 -4 18 6 15 5 15 -10 3 -9 -7 -17 -20 -17
-28 0 -8 -4 -12 -8 -9 -7 4 -12 -13 -15 -56 -1 -10 -7 -18 -14 -18 -7 0 -13
-4 -13 -10 0 -5 -9 -10 -20 -10 -11 0 -20 -6 -21 -12 -7 -76 -7 -76 10 -70 28
11 135 73 154 89 9 9 17 11 17 5 0 -6 -21 -28 -46 -49 -77 -63 -143 -142 -158
-190 -3 -11 -40 -60 -81 -109 -61 -72 -79 -101 -95 -154 -28 -94 -44 -215 -31
-239 8 -14 7 -20 -2 -24 -7 -3 -21 -34 -31 -68 -10 -35 -27 -91 -37 -125 -11
-33 -16 -69 -13 -79 5 -11 3 -16 -2 -12 -6 3 -26 -36 -46 -86 l-36 -92 -109
-12 c-60 -6 -127 -16 -149 -22 -69 -19 -72 -18 -63 42 26 191 54 362 79 487
41 204 51 308 49 520 -2 306 4 347 93 640 45 150 50 176 55 290 4 113 2 139
-26 268 -17 78 -31 160 -31 181 0 31 -6 42 -37 67 -21 16 -62 53 -93 83 -50
49 -53 55 -35 62 16 6 14 8 -12 8 -47 1 -61 10 -56 32 4 16 0 19 -25 19 -35 0
-64 -27 -43 -39 9 -6 3 -12 -20 -20 -43 -15 -54 -14 -39 4 7 8 18 15 25 15 17
0 27 27 12 33 -21 7 -71 -12 -99 -38 -15 -14 -31 -25 -37 -25 -5 0 -11 -4 -13
-8 -6 -14 -68 -54 -68 -44 0 15 60 85 170 198 78 81 105 103 135 108 48 9 130
-9 180 -39 100 -61 99 -61 162 -41 70 22 119 43 155 68 21 14 42 18 85 16 51
-3 61 0 80 22 12 14 23 19 23 13 0 -7 5 -13 11 -13 15 0 7 45 -8 46 -7 1 -15
2 -17 3 -2 0 2 22 10 48 13 41 12 48 -2 64 -21 23 -13 56 28 114 19 27 49 53
75 66 92 45 109 148 42 260 -49 81 -101 148 -121 154 -28 10 -58 61 -61 102
l-2 38 60 0 c33 0 68 5 79 11 25 15 35 86 24 166 -18 125 -22 142 -44 153 -36
18 -144 116 -144 131 0 17 5 17 30 4 27 -14 34 3 15 39 -8 17 -15 33 -15 36 0
3 21 5 47 3 45 -3 49 -5 78 -55z m1748 -147 c4 -10 1 -13 -9 -9 -15 6 -19 23
-5 23 5 0 11 -7 14 -14z m2308 -40 c34 -16 34 -16 -31 -10 -36 4 -67 10 -70
14 -3 4 -12 10 -20 14 -8 3 8 4 36 2 28 -3 66 -12 85 -20z m-2269 -5 c9 -11
14 -22 11 -25 -4 -3 1 -6 10 -6 20 0 89 -99 80 -114 -4 -6 -8 -6 -11 2 -2 7
-10 12 -17 12 -8 0 -16 8 -19 18 -3 9 -19 32 -36 50 -17 19 -28 37 -25 42 3 4
-2 10 -10 14 -15 6 -21 26 -7 26 4 0 15 -9 24 -19z m-1559 -35 c6 -15 -19 -26
-41 -18 -10 3 -10 7 -1 18 15 18 35 18 42 0z m4637 -46 c82 -24 139 -51 164
-76 9 -8 62 -38 119 -66 56 -27 122 -66 146 -85 134 -111 97 -204 -88 -222
-36 -3 -66 -10 -68 -16 -1 -5 17 -23 41 -38 35 -22 48 -38 60 -74 20 -57 20
-53 -4 -53 -11 0 -20 -7 -20 -15 0 -18 -14 -19 -41 -5 -10 6 -18 21 -18 33 1
33 -19 105 -37 133 -10 14 -33 28 -58 35 -58 16 -76 27 -70 44 8 19 98 48 124
40 11 -4 34 -4 51 0 23 5 28 11 24 24 -3 10 1 24 10 31 14 11 13 14 -6 24 -13
6 -27 24 -32 41 -18 53 -115 135 -161 135 -8 0 -52 20 -98 43 -91 48 -136 62
-243 73 -55 6 -65 9 -45 15 42 14 171 3 250 -21z m-5091 -232 c-29 -42 -119
-139 -119 -129 0 16 124 161 138 161 2 0 -7 -15 -19 -32z m3564 5 c11 -10 -24
-43 -45 -43 -26 0 -23 29 5 40 28 11 32 12 40 3z m-6950 -47 c6 -15 -1 -26
-15 -26 -4 0 -8 9 -8 20 0 23 15 27 23 6z m3509 -315 c-8 -67 -7 -76 10 -93
21 -21 18 -48 -6 -48 -8 0 -28 -25 -45 -55 -24 -42 -41 -59 -73 -74 -24 -11
-53 -30 -64 -44 -12 -13 -28 -27 -35 -29 -8 -3 -11 -9 -7 -13 4 -4 35 -1 68 8
l61 15 -14 -21 c-21 -33 -71 -58 -121 -62 -36 -3 -44 -1 -39 11 7 19 2 18 -54
-8 -55 -26 -56 -27 -103 -68 -51 -44 -55 -37 -14 23 34 49 35 52 15 55 -39 6
-19 47 37 76 19 10 71 44 116 76 45 32 99 65 119 74 21 8 37 19 36 23 -3 19 2
27 10 15 18 -29 61 72 87 208 17 86 19 91 22 50 2 -25 -1 -79 -6 -119z m4111
135 c51 -13 144 -34 207 -45 206 -38 333 -76 365 -107 15 -16 131 -37 147 -28
4 3 8 1 8 -4 0 -25 -153 -55 -474 -93 -78 -9 -107 -6 -70 8 10 3 21 9 24 12
12 14 52 31 73 31 68 0 167 61 134 82 -8 5 -6 8 8 8 16 0 17 2 5 9 -8 6 -17 8
-21 5 -4 -2 -10 0 -14 6 -9 15 -86 12 -135 -5 -58 -20 -82 -20 -52 1 12 8 22
19 22 23 0 4 -24 13 -52 20 -118 28 -314 101 -274 101 4 0 49 -11 99 -24z
m2083 -41 c64 -61 71 -127 20 -190 -13 -16 -53 -65 -88 -109 -37 -47 -76 -84
-95 -92 l-32 -13 11 27 c6 15 23 43 38 62 14 19 36 58 49 85 12 28 29 63 38
79 22 40 12 97 -26 145 -64 80 2 85 85 6z m-6311 12 c-11 -7 -38 -24 -60 -37
-37 -22 -39 -22 -22 -3 18 21 73 52 92 53 5 0 1 -6 -10 -13z m-145 -26 c0 -5
-7 -12 -16 -15 -14 -5 -15 -4 -4 9 14 17 20 19 20 6z m2440 -93 c0 -7 -5 -20
-10 -28 -8 -12 -10 -9 -10 13 0 15 5 27 10 27 6 0 10 -6 10 -12z m-1310 -23
c16 -19 4 -35 -25 -35 -27 0 -39 14 -31 35 7 19 40 19 56 0z m4577 -47 c23
-26 57 -88 50 -94 -2 -2 -25 23 -50 56 -44 57 -44 86 0 38z m-6214 -39 c39
-20 67 -29 82 -25 13 3 27 1 31 -5 4 -8 -8 -10 -42 -6 -56 5 -197 29 -203 33
-2 2 2 10 9 19 19 23 59 18 123 -16z m5947 2 c0 -29 -28 -58 -72 -74 -25 -9
-23 1 15 55 37 55 57 61 57 19z m-8530 -61 c0 -11 -2 -20 -4 -20 -2 0 -11 -3
-20 -6 -11 -4 -16 0 -16 13 0 23 8 33 27 33 7 0 13 -9 13 -20z m6602 -2 c-18
-18 -83 -38 -122 -37 -33 0 -32 1 25 24 66 26 117 33 97 13z m-3942 -24 l25
-15 -25 7 c-14 3 -32 10 -40 15 -13 7 -13 8 0 8 8 0 26 -6 40 -15z m77 -65
c-17 -27 -27 -23 -27 9 0 37 11 48 27 26 9 -12 9 -20 0 -35z m4638 35 c68 -7
69 -8 30 -15 -69 -13 -165 -10 -181 5 -23 23 -17 27 34 22 26 -3 79 -9 117
-12z m465 6 c0 -6 -42 -10 -107 -10 -74 0 -103 3 -93 10 20 13 200 13 200 0z
m-3821 -59 c39 -36 39 -51 3 -51 -40 0 -67 31 -52 59 6 12 12 21 14 21 2 0 18
-13 35 -29z m6998 -62 c26 -23 49 -47 51 -53 4 -17 -69 -127 -80 -120 -6 4 -8
27 -4 58 6 47 4 55 -29 101 -19 27 -39 52 -43 55 -4 3 -16 16 -27 29 l-20 24
52 -26 c28 -15 73 -45 100 -68z m-8657 67 c0 -3 -13 -14 -30 -26 -16 -12 -30
-18 -30 -13 0 5 12 16 28 25 30 19 32 20 32 14z m384 -32 c9 -8 16 -29 16 -45
0 -18 4 -28 10 -24 29 18 -20 -51 -80 -112 -22 -22 -129 -67 -138 -58 -9 9 32
66 72 99 30 24 55 58 73 96 16 33 29 60 30 60 1 0 9 -7 17 -16z m4536 -24 l25
-7 -26 -11 c-27 -11 -58 -15 -98 -13 -19 1 -21 4 -11 15 18 23 67 30 110 16z
m2477 4 c-3 -3 -12 -4 -19 -1 -8 3 -5 6 6 6 11 1 17 -2 13 -5z m-793 -70 c26
-10 18 -24 -14 -24 -29 0 -38 9 -23 23 8 9 17 9 37 1z m-4846 -21 c5 -10 7
-24 5 -30 -6 -18 -42 -16 -49 2 -15 38 26 63 44 28z m1352 -28 c0 -8 -4 -15
-9 -15 -13 0 -22 16 -14 24 11 11 23 6 23 -9z m-289 -17 c1 -7 1 -16 0 -20 0
-5 4 -8 11 -8 8 0 6 -7 -5 -17 -15 -15 -36 -18 -130 -18 -131 1 -223 13 -192
26 11 4 54 8 96 8 54 1 90 7 120 21 50 22 98 26 100 8z m6039 -23 c23 -8 56
-27 73 -41 l32 -27 -35 8 c-36 7 -128 49 -144 66 -15 14 26 11 74 -6z m-4886
-74 c11 -17 -6 -41 -29 -41 -29 0 -37 21 -16 37 19 15 38 16 45 4z m-1637 -25
c14 -14 -22 -26 -78 -26 -62 0 -75 6 -57 27 8 10 28 13 70 10 32 -2 61 -7 65
-11z m-220 -32 c-3 -3 -12 -4 -19 -1 -8 3 -5 6 6 6 11 1 17 -2 13 -5z m-1977
-184 c0 -5 -5 -10 -11 -10 -5 0 -7 5 -4 10 3 6 8 10 11 10 2 0 4 -4 4 -10z
m9348 -409 c13 -8 1 -10 -49 -11 -48 0 -78 -6 -110 -23 -66 -33 -151 -112
-216 -199 -34 -48 -64 -78 -75 -78 -28 0 -22 21 23 86 80 116 180 200 272 230
44 15 125 12 155 -5z m-8166 -693 c-7 -7 -12 -8 -12 -2 0 14 12 26 19 19 2 -3
-1 -11 -7 -17z m7173 -292 c-64 -89 -126 -288 -141 -451 -4 -43 -13 -85 -20
-92 -16 -16 -16 -15 -17 122 -1 118 14 239 36 280 18 36 106 157 120 167 6 3
16 4 24 1 12 -5 11 -9 -2 -27z m-7442 -421 c-3 -9 -8 -14 -10 -11 -3 3 -2 9 2
15 9 16 15 13 8 -4z m-49 -72 c-15 -20 -43 -60 -62 -87 -39 -58 -48 -68 -39
-43 4 9 2 17 -3 17 -6 0 -10 5 -10 11 0 5 4 8 9 4 6 -3 15 5 22 17 17 32 92
118 103 118 4 0 -4 -17 -20 -37z m4503 -39 c-3 -3 -12 -4 -19 -1 -8 3 -5 6 6
6 11 1 17 -2 13 -5z m-4620 -106 c-3 -8 -6 -5 -6 6 -1 11 2 17 5 13 3 -3 4
-12 1 -19z m-24 -59 c-6 -6 -7 3 -4 23 4 28 6 29 9 9 2 -13 0 -27 -5 -32z
m-486 -63 c-2 -6 -13 -15 -26 -21 -12 -5 -24 -20 -27 -32 -8 -29 -44 -41 -59
-20 -10 14 -15 14 -43 -3 -19 -12 -32 -15 -32 -9 0 12 38 49 50 49 4 0 23 13
43 28 27 22 43 28 67 24 17 -2 29 -9 27 -16z m7033 -480 c0 -8 -4 -18 -10 -21
-5 -3 -10 3 -10 14 0 12 5 21 10 21 6 0 10 -6 10 -14z m135 -25 c10 -17 -12
-21 -25 -6 -10 12 -10 15 3 15 9 0 18 -4 22 -9z m-4194 -74 c-6 -15 -15 -27
-21 -27 -13 0 -13 4 7 48 18 42 31 23 14 -21z m1509 -67 c0 -5 -5 -10 -11 -10
-5 0 -7 5 -4 10 3 6 8 10 11 10 2 0 4 -4 4 -10z m2090 -254 c0 -3 -4 -8 -10
-11 -5 -3 -10 -1 -10 4 0 6 5 11 10 11 6 0 10 -2 10 -4z m0 -40 c0 -16 -18
-31 -27 -22 -8 8 5 36 17 36 5 0 10 -6 10 -14z m-160 -380 c0 -5 -7 -3 -15 4
-8 7 -15 20 -15 28 0 13 3 12 15 -4 8 -10 15 -23 15 -28z m-2691 -482 c-13
-16 -39 -19 -39 -4 0 6 7 10 15 10 8 0 15 5 15 11 0 5 5 7 10 4 8 -5 7 -11 -1
-21z m2187 -374 c-9 -27 -16 -62 -16 -78 0 -68 -62 -34 -74 40 -4 23 -12 38
-24 41 -16 4 -16 4 1 12 11 5 24 2 35 -8 29 -26 60 -11 74 37 8 26 14 34 16
23 2 -10 -3 -40 -12 -67z m-936 -825 l-8 -40 -1 36 c0 20 2 39 6 42 11 11 11
4 3 -38z m-150 -249 c0 -7 -7 -21 -16 -32 -15 -18 -15 -18 -5 3 6 12 8 29 4
39 -4 12 -3 15 5 10 7 -4 12 -13 12 -20z m-45 -46 c3 -5 1 -10 -4 -10 -6 0
-11 5 -11 10 0 6 2 10 4 10 3 0 8 -4 11 -10z m-3205 -471 c0 -22 8 -22 53 -4
45 19 -5 -47 -80 -104 -24 -18 -87 -55 -140 -82 -54 -27 -102 -54 -107 -59 -6
-6 -18 -10 -27 -10 -13 0 -17 9 -17 36 0 43 20 63 85 86 26 10 86 49 133 88
47 38 88 69 93 70 4 0 7 -10 7 -21z m2440 -454 c-7 -9 -15 -13 -17 -11 -7 7 7
26 19 26 6 0 6 -6 -2 -15z m273 -241 c34 -9 73 -22 87 -30 14 -9 17 -13 7 -10
-46 14 -147 23 -192 17 -47 -6 -50 -8 -47 -32 3 -31 -15 -39 -98 -39 -65 -1
-51 -15 25 -25 39 -5 47 -4 35 5 -13 10 -13 11 0 7 8 -2 13 -11 11 -18 -2 -8
-2 -52 0 -99 2 -47 3 -117 2 -157 -2 -68 -1 -71 23 -77 13 -4 24 -11 24 -16 0
-17 38 -11 49 8 8 12 10 -13 11 -91 0 -59 4 -115 9 -125 5 -9 17 -44 26 -77
26 -88 36 -106 55 -100 21 7 40 -33 40 -85 0 -46 12 -52 93 -49 38 2 61 -3 78
-15 24 -18 23 -18 -35 -11 -33 4 -66 9 -74 13 -10 3 -13 0 -10 -9 3 -8 11 -14
19 -15 34 -2 39 -5 39 -16 0 -17 56 -48 87 -48 18 0 24 -5 21 -17 -3 -15 -16
-18 -81 -20 -93 -2 -107 -6 -107 -32 0 -36 51 -47 206 -45 80 1 82 1 82 -23 0
-13 11 -36 24 -51 27 -29 42 -62 29 -62 -4 0 -16 9 -27 21 -10 11 -46 34 -80
50 -50 25 -76 30 -144 32 -82 3 -83 3 -112 40 -21 26 -38 37 -57 37 -34 0 -51
17 -51 50 0 14 -7 34 -16 45 -12 15 -14 36 -9 90 5 60 1 86 -26 180 -20 68
-33 141 -36 193 -4 68 -7 82 -21 83 -81 5 -139 5 -147 -1 -5 -4 -36 -10 -68
-12 -55 -4 -56 -4 -41 13 14 16 15 21 4 34 -26 31 4 38 53 11 56 -29 95 -24
115 17 16 33 24 158 11 178 -6 10 -9 10 -9 2 0 -7 -7 -13 -15 -13 -8 0 -15 9
-15 20 0 11 -4 28 -9 38 -6 9 -12 29 -15 43 -3 15 -17 34 -31 43 -24 16 -25
16 -25 -4 0 -24 -8 -25 -36 -5 -18 12 -24 12 -42 -1 -22 -15 -30 -44 -12 -44
6 0 10 -8 10 -19 0 -10 9 -21 19 -24 30 -7 16 -41 -25 -59 -32 -15 -34 -15
-34 4 0 11 5 29 11 40 9 17 8 24 -6 34 -9 7 -22 11 -29 8 -6 -2 -20 2 -31 10
-11 9 -14 16 -7 16 7 0 12 15 12 42 0 52 26 77 109 109 153 59 280 73 394 43z
m322 -331 c5 -46 1 -61 -29 -124 -19 -39 -45 -112 -57 -163 l-22 -92 25 -124
c25 -126 26 -152 5 -115 -30 51 -46 124 -46 215 -1 119 7 151 76 300 14 30 27
78 30 107 3 30 7 52 9 51 1 -2 5 -27 9 -55z m-769 -84 c9 -15 -23 -10 -35 5
-10 12 -8 13 9 9 11 -3 23 -9 26 -14z m580 -354 c50 -177 44 -200 -11 -40 -26
75 -56 198 -54 220 2 21 33 -65 65 -180z m-674 133 c-3 -11 3 -24 14 -33 18
-13 18 -14 -3 -36 -30 -31 -53 -12 -53 45 0 36 3 41 24 42 19 1 22 -2 18 -18z
m-52 -48 c0 -5 -5 -10 -11 -10 -5 0 -7 5 -4 10 3 6 8 10 11 10 2 0 4 -4 4 -10z
m63 -105 c-7 -21 -13 -19 -13 6 0 11 4 18 10 14 5 -3 7 -12 3 -20z m4432 -215
c0 -8 -10 -19 -22 -25 -13 -5 -23 -16 -23 -23 0 -7 -6 -19 -12 -26 -7 -7 -24
-27 -38 -45 -14 -18 -36 -45 -49 -60 l-24 -26 8 25 c16 55 67 145 98 172 34
29 62 33 62 8z m-3575 -30 c8 -5 11 -10 5 -10 -5 0 -17 5 -25 10 -8 5 -10 10
-5 10 6 0 17 -5 25 -10z m41 -107 c8 -8 6 -13 -10 -18 -20 -6 -61 9 -61 23 0
12 58 8 71 -5z m84 -32 c8 -14 -13 -24 -33 -16 -14 5 -14 7 -2 15 19 12 27 12
35 1z m3715 -5 c0 -2 -7 -6 -15 -10 -8 -3 -15 -1 -15 4 0 6 7 10 15 10 8 0 15
-2 15 -4z m-4520 -364 c0 -21 -2 -24 -10 -12 -13 20 -13 53 0 45 6 -3 10 -18
10 -33z m8162 -54 c-15 -15 -26 -4 -18 18 5 13 9 15 18 6 9 -9 9 -15 0 -24z
m-4265 -91 c-6 -15 -16 -27 -20 -27 -5 0 0 13 9 30 22 36 29 34 11 -3z m146
-127 c-6 -22 -23 -38 -23 -21 0 17 12 41 20 41 5 0 6 -9 3 -20z m-387 -101 c3
-6 2 -14 -3 -18 -5 -3 -15 -15 -21 -26 -11 -20 -11 -20 -12 2 0 44 20 68 36
42z m378 -88 c-8 -9 -22 12 -17 26 6 15 7 14 13 -3 4 -10 6 -21 4 -23z m-417
-33 c-3 -7 -5 -2 -5 12 0 14 2 19 5 13 2 -7 2 -19 0 -25z m408 2 c-3 -5 -12
-10 -18 -10 -7 0 -6 4 3 10 19 12 23 12 15 0z m-8541 -6 c9 -3 16 -16 16 -28
0 -16 -12 -28 -47 -45 -76 -37 -262 -208 -346 -319 -27 -35 -51 -61 -54 -58
-4 3 1 14 10 24 10 10 17 22 17 26 0 15 106 164 171 241 96 114 129 143 174
154 22 5 41 9 42 10 1 1 8 -2 17 -5z m8116 -60 c-18 -21 -24 -10 -9 18 8 14
14 18 17 10 2 -7 -2 -19 -8 -28z m-237 -49 c-12 -8 -36 -37 -53 -64 -18 -27
-44 -55 -58 -62 -15 -8 -29 -16 -32 -19 -3 -3 -34 -20 -70 -39 -57 -29 -63
-31 -45 -10 72 82 231 208 265 209 10 0 7 -5 -7 -15z m255 -69 c-18 -25 -48
-71 -67 -101 -19 -30 -36 -53 -38 -52 -1 2 6 27 17 57 17 45 67 114 105 142
22 16 15 -3 -17 -46z m3736 -174 c-4 -18 -11 -32 -16 -32 -5 0 -6 -4 -3 -10 3
-5 -3 -17 -14 -27 -11 -9 -17 -21 -14 -26 3 -6 1 -7 -5 -3 -7 4 -12 2 -12 -3
0 -6 -7 -11 -15 -11 -19 0 -19 14 0 30 8 7 29 37 46 67 34 59 43 63 33 15z
m-12316 -134 c-39 -62 -56 -96 -63 -123 -3 -16 -3 -27 1 -23 9 10 33 -22 34
-44 0 -9 -6 -23 -12 -30 -28 -29 -49 -90 -68 -201 -7 -37 -19 -74 -26 -82 -8
-7 -14 -20 -14 -27 0 -7 -5 -20 -10 -28 -14 -21 -2 196 16 288 15 74 38 127
94 212 17 25 33 53 36 63 4 9 11 17 16 17 6 0 4 -10 -4 -22z m12222 12 c0 -11
-33 -30 -52 -30 -7 0 -2 9 12 20 28 22 40 25 40 10z m-4518 -46 c124 -6 135
-8 112 -21 -39 -20 -393 -19 -420 2 -33 25 0 37 91 31 44 -3 142 -9 217 -12z
m437 2 c-2 -2 -17 -6 -34 -10 -22 -5 -26 -4 -15 4 14 9 59 15 49 6z m-102 -27
c-21 -5 -47 -14 -58 -20 -31 -16 -159 -48 -153 -37 12 19 171 66 224 66 17 0
13 -3 -13 -9z m-3802 -170 c6 -19 79 -99 89 -99 4 0 19 -8 34 -18 60 -41 149
-90 185 -101 26 -9 37 -18 37 -32 0 -10 -7 -19 -15 -19 -19 0 -225 99 -225
108 0 4 -17 26 -39 49 -21 24 -50 58 -65 78 -15 19 -34 35 -42 35 -15 0 -15 1
-19 37 l-2 22 28 -22 c15 -12 31 -29 34 -38z m3210 41 c-4 -6 -21 -16 -38 -24
-18 -7 -53 -36 -79 -64 -48 -50 -121 -178 -112 -194 3 -4 0 -16 -6 -25 -19
-30 -4 81 18 129 27 60 96 134 151 163 49 25 76 32 66 15z m2310 -175 c0 -19
-5 -25 -20 -24 -11 0 -14 3 -7 6 6 2 12 13 12 24 0 10 3 19 8 19 4 0 7 -11 7
-25z m-1875 -37 c0 -10 7 -21 15 -24 8 -4 15 -10 15 -15 0 -12 -50 10 -77 35
-13 11 -23 28 -23 38 0 17 2 17 35 1 21 -10 35 -24 35 -35z m748 35 c5 -18
-28 -29 -38 -12 -5 7 -6 17 -3 22 7 12 35 5 41 -10z m1076 -68 c7 -41 23 -68
36 -60 5 3 11 -14 15 -37 7 -42 13 -58 50 -128 46 -87 53 -108 55 -145 1 -22
2 -44 1 -49 -1 -9 -20 10 -157 155 -60 63 -124 164 -124 196 0 12 17 48 37 81
36 58 38 59 59 43 13 -9 25 -32 28 -56z m-4907 -33 c17 -11 5 -25 -54 -66 -54
-37 -73 -44 -73 -25 0 5 -4 8 -9 4 -5 -3 -12 -1 -16 5 -3 5 -2 10 2 10 5 0 13
10 18 22 18 39 100 70 132 50z m3435 -64 c-7 -7 -12 -8 -12 -2 0 14 12 26 19
19 2 -3 -1 -11 -7 -17z m-1035 -60 c-3 -7 -5 -2 -5 12 0 14 2 19 5 13 2 -7 2
-19 0 -25z m-2572 2 c3 -5 2 -10 -4 -10 -5 0 -13 5 -16 10 -3 6 -2 10 4 10 5
0 13 -4 16 -10z m1091 -245 c-26 -19 -42 -19 -26 0 7 8 20 15 29 15 13 -1 13
-3 -3 -15z m-1508 -154 c11 -7 11 -9 0 -13 -18 -7 -77 2 -84 13 -7 11 67 12
84 0z m674 -38 c2 -21 8 -27 21 -25 27 5 48 -16 37 -36 -5 -10 -11 -24 -13
-33 -5 -14 -12 -15 -56 -6 -28 5 -51 13 -51 18 0 5 6 6 13 3 7 -2 21 2 31 9
17 12 18 18 8 47 -14 40 -15 50 -3 50 5 0 11 -12 13 -27z m-1722 -12 c0 -6 -5
-13 -10 -16 -15 -9 -43 3 -35 15 8 13 45 13 45 1z m997 3 c-3 -3 -12 -4 -19
-1 -8 3 -5 6 6 6 11 1 17 -2 13 -5z m-950 -70 c-3 -3 -12 -4 -19 -1 -8 3 -5 6
6 6 11 1 17 -2 13 -5z m2004 -14 c-24 -11 -46 -18 -49 -16 -5 6 57 34 78 35 8
0 -5 -8 -29 -19z m-911 -14 c0 -2 -11 -6 -25 -8 -13 -3 -22 -1 -19 3 5 9 44
13 44 5z m757 -42 c-3 -3 -12 -4 -19 -1 -8 3 -5 6 6 6 11 1 17 -2 13 -5z m658
-4 c16 -7 13 -9 -17 -9 -20 -1 -38 -5 -40 -11 -2 -6 -25 -7 -63 -2 l-60 9 60
7 c33 4 67 9 75 10 23 5 24 5 45 -4z m-2018 -16 c-3 -3 -12 -4 -19 -1 -8 3 -5
6 6 6 11 1 17 -2 13 -5z m623 -694 c-12 -8 -12 -10 5 -11 14 0 11 -3 -10 -10
-16 -5 -42 -7 -57 -3 -14 3 -50 -2 -79 -10 -58 -18 -99 -21 -83 -7 14 13 98
31 143 31 23 0 41 5 41 10 0 6 12 10 28 10 21 0 24 -2 12 -10z m803 -17 c-7
-2 -19 -2 -25 0 -7 3 -2 5 12 5 14 0 19 -2 13 -5z m-668 -22 c14 -6 -3 -11
-57 -16 -42 -4 -82 -3 -90 1 -24 16 110 29 147 15z m153 -13 c-7 -19 -43 -21
-58 -3 -11 13 -8 15 25 15 25 0 35 -4 33 -12z m-3088 -22 c0 -11 -19 -15 -25
-6 -3 5 1 10 9 10 9 0 16 -2 16 -4z m83 -75 c-3 -121 -50 -202 -173 -295 -75
-58 -100 -71 -100 -54 1 7 18 25 39 39 22 16 48 46 61 73 12 26 29 50 38 55
10 5 26 30 37 55 11 25 30 51 43 57 23 13 29 48 11 66 -8 8 -6 21 6 47 28 59
40 45 38 -43z m-93 45 c0 -3 -4 -8 -10 -11 -5 -3 -10 -1 -10 4 0 6 5 11 10 11
6 0 10 -2 10 -4z m7670 0 c0 -2 -9 -6 -20 -9 -11 -3 -20 -1 -20 4 0 5 9 9 20
9 11 0 20 -2 20 -4z m-5230 -23 c-8 -3 -24 -10 -35 -15 -20 -9 -20 -9 -1 6 11
9 27 16 35 15 14 0 14 -1 1 -6z m-2429 -51 c-11 -8 -21 -23 -21 -33 0 -23 -15
-25 -24 -4 -6 17 -36 9 -36 -9 0 -11 -40 -36 -56 -36 -7 0 19 41 37 59 36 36
111 66 118 47 2 -5 -6 -16 -18 -24z m2014 18 c-11 -10 -40 -22 -65 -26 l-45
-6 45 26 c25 14 54 25 65 26 19 0 19 0 0 -20z m145 12 c0 -10 -22 -32 -32 -32
-5 0 -3 9 4 20 13 20 28 27 28 12z m1623 -47 c-3 -9 -8 -14 -10 -11 -3 3 -2 9
2 15 9 16 15 13 8 -4z m3257 1 c0 -7 -32 -27 -72 -45 l-72 -32 24 27 c22 23
92 63 113 64 4 0 7 -6 7 -14z m-7698 -92 c-10 -32 -23 -59 -29 -61 -10 -4 4
52 30 122 20 53 19 1 -1 -61z m4519 58 c-11 -20 -68 -49 -78 -39 -3 3 2 13 11
22 9 9 16 13 16 10 0 -4 12 2 27 13 32 23 39 22 24 -6z m-4062 -5 c-18 -17
-26 -19 -32 -10 -12 19 1 33 30 33 l26 0 -24 -23z m546 13 c3 -5 1 -10 -4 -10
-6 0 -11 5 -11 10 0 6 2 10 4 10 3 0 8 -4 11 -10z m7276 -71 c-7 -22 -26 -54
-42 -72 -22 -23 -27 -26 -20 -10 6 12 15 24 20 27 5 3 12 23 15 43 4 21 9 52
13 68 6 29 6 29 16 7 7 -15 6 -34 -2 -63z m-5537 56 c6 -17 57 -20 73 -4 15
15 123 25 123 11 0 -6 7 -9 15 -6 8 4 15 1 15 -5 0 -6 -4 -11 -10 -11 -5 0
-10 -6 -10 -12 0 -7 -8 -22 -17 -33 -15 -19 -15 -19 -8 10 3 16 4 27 0 23 -4
-4 -17 -3 -29 1 -13 6 -35 3 -59 -6 -30 -12 -37 -20 -37 -43 0 -15 -9 -35 -20
-45 -21 -19 -50 -14 -50 8 0 8 -7 20 -15 27 -15 13 -20 56 -9 84 8 20 30 21
38 1z m4531 -8 c-11 -8 -29 -16 -40 -20 -60 -16 -196 -67 -237 -88 -10 -5 -23
-9 -29 -9 -6 0 -36 -16 -67 -37 -119 -76 -180 -113 -187 -113 -3 0 -5 4 -5 9
0 16 46 61 62 61 8 0 30 16 49 36 56 58 133 91 343 145 22 5 46 14 55 19 9 5
29 10 46 10 28 0 28 -1 10 -13z m-2831 -33 c28 -11 8 -20 -31 -15 -35 4 -36 5
-13 12 14 4 26 7 27 8 1 1 8 -2 17 -5z m506 -4 c0 -5 -11 -10 -24 -10 -14 0
-28 5 -31 10 -4 6 7 10 24 10 17 0 31 -4 31 -10z m226 -14 c10 -8 16 -17 13
-20 -3 -4 -17 2 -30 13 -27 23 -13 28 17 7z m-4693 -38 c-6 -7 -13 -25 -17
-40 -4 -16 -23 -39 -49 -57 -62 -43 -99 -90 -94 -118 2 -13 0 -23 -4 -23 -5 0
-11 -11 -15 -24 -3 -14 -12 -27 -19 -30 -8 -3 -25 -26 -38 -53 l-24 -47 -7 30
-7 30 -68 -33 c-65 -32 -149 -106 -164 -146 -4 -10 -21 -24 -37 -30 -35 -13
-38 -23 -10 -32 39 -12 151 23 244 77 27 16 50 27 53 24 2 -2 -8 -23 -23 -45
-20 -30 -29 -60 -33 -109 -6 -53 -17 -85 -53 -153 -56 -105 -65 -158 -43 -257
17 -81 20 -148 6 -156 -5 -3 -4 -24 1 -48 5 -24 11 -56 14 -73 4 -28 3 -28 -5
-5 -34 92 -81 302 -71 320 4 8 11 71 14 140 6 109 5 129 -11 160 -28 55 -74
80 -133 73 -98 -11 -220 75 -254 180 -3 9 -13 17 -23 17 -13 0 -23 15 -35 51
-16 49 -16 50 1 35 25 -23 31 -20 31 17 0 24 6 35 22 42 26 12 34 39 20 69
-30 65 -31 75 -18 126 15 58 24 70 35 51 5 -7 14 -10 20 -7 16 10 13 -9 -8
-51 -30 -61 -33 -87 -11 -101 26 -16 60 5 86 53 18 34 34 46 34 25 0 -5 -15
-38 -33 -72 -47 -88 -60 -109 -78 -130 -29 -33 -52 -85 -46 -102 9 -22 49 -20
80 4 28 22 52 27 41 8 -5 -8 -2 -9 10 -5 10 4 22 7 27 7 6 0 5 8 -1 20 -9 17
-7 22 15 32 13 6 38 35 55 64 31 55 63 84 92 84 12 0 28 22 50 70 34 71 48 86
48 49 0 -14 5 -19 14 -16 11 4 15 -10 21 -59 3 -35 11 -64 17 -64 6 0 7 19 3
51 -5 37 -4 50 4 45 6 -4 11 -17 11 -30 0 -38 21 -86 37 -86 12 0 14 8 9 39
-5 31 -2 40 10 45 27 10 52 -3 66 -34 7 -17 16 -30 20 -30 12 0 38 69 32 85
-4 8 -1 15 5 15 6 0 11 6 11 13 0 10 117 91 130 90 3 -1 14 10 24 23 11 13 22
22 24 19 3 -2 0 -10 -5 -17z m-48 2 c3 -5 -1 -10 -9 -10 -9 0 -16 5 -16 10 0
6 4 10 9 10 6 0 13 -4 16 -10z m4185 0 c12 -8 12 -10 -5 -10 -11 0 -27 5 -35
10 -12 8 -12 10 5 10 11 0 27 -5 35 -10z m-3330 -20 c-34 -26 -60 -26 -30 0
13 11 30 20 39 20 12 0 9 -6 -9 -20z m1225 0 c3 -5 20 -10 36 -10 40 0 28 -17
-17 -26 -38 -7 -73 14 -60 35 9 14 33 14 41 1z m2752 -73 c17 -16 35 -29 40
-29 4 0 23 -11 41 -24 17 -14 37 -22 42 -19 5 3 25 3 44 0 47 -9 37 -35 -13
-35 -45 0 -103 35 -186 114 -60 57 -33 50 32 -7z m83 44 c-10 -20 -47 -37 -57
-28 -8 9 7 28 31 37 33 13 38 12 26 -9z m123 -27 c16 -14 42 -24 59 -24 25 0
28 -2 19 -14 -10 -11 -8 -16 9 -21 24 -8 17 -25 -11 -25 -11 0 -17 5 -14 10 3
6 1 10 -4 10 -11 0 -42 24 -100 78 -29 27 -31 31 -11 21 14 -6 38 -23 53 -35z
m300 -36 c-19 -65 -23 -70 -23 -30 0 37 16 82 29 82 6 0 3 -23 -6 -52z m-4442
5 c-11 -16 -30 -39 -41 -53 l-21 -25 16 33 c16 32 49 72 61 72 3 0 -4 -12 -15
-27z m5319 -7 c0 -2 -8 -10 -17 -17 -16 -13 -17 -12 -4 4 13 16 21 21 21 13z
m-3797 -178 c-21 -44 -40 -100 -68 -202 -23 -84 -29 -63 -9 35 9 46 17 96 18
110 1 25 64 114 74 105 2 -3 -4 -25 -15 -48z m3067 21 c-7 -11 -14 -19 -16
-16 -7 7 7 37 17 37 6 0 5 -9 -1 -21z m-6375 -9 c3 -5 1 -10 -4 -10 -6 0 -11
5 -11 10 0 6 2 10 4 10 3 0 8 -4 11 -10z m-491 -54 c-7 -31 -20 -34 -27 -7 -3
14 -1 18 9 14 9 -3 14 2 14 13 0 9 2 15 5 12 4 -3 3 -17 -1 -32z m6827 -13
c-12 -20 -14 -14 -5 12 4 9 9 14 11 11 3 -2 0 -13 -6 -23z m-6648 -25 c8 -18
17 -42 19 -53 3 -18 -2 -20 -44 -17 -38 2 -48 0 -48 -12 0 -9 -6 -16 -14 -16
-7 0 -25 -12 -40 -26 -20 -20 -26 -23 -26 -11 0 9 9 21 20 27 11 6 20 21 20
33 0 38 12 67 26 67 8 0 14 6 14 14 0 13 16 22 46 25 7 0 19 -14 27 -31z
m-156 -95 c-3 -10 -5 -4 -5 12 0 17 2 24 5 18 2 -7 2 -21 0 -30z m-2 -73 c26
-38 27 -42 12 -57 -14 -15 -18 -15 -42 1 -37 24 -52 66 -29 83 25 19 28 17 59
-27z m55 20 c0 -5 -5 -10 -11 -10 -5 0 -7 5 -4 10 3 6 8 10 11 10 2 0 4 -4 4
-10z m235 -20 c-10 -11 -25 -20 -34 -20 -11 0 -6 8 14 24 35 28 47 25 20 -4z
m6758 -53 c4 -11 3 -16 -3 -12 -6 3 -10 13 -10 21 0 8 -4 14 -8 14 -8 0 -32
43 -32 58 0 9 45 -59 53 -81z m-6583 38 c0 -8 -4 -15 -10 -15 -5 0 -10 7 -10
15 0 8 5 15 10 15 6 0 10 -7 10 -15z m6605 -75 c3 -5 1 -10 -4 -10 -6 0 -11 5
-11 10 0 6 2 10 4 10 3 0 8 -4 11 -10z m9 -35 c-4 -8 -8 -15 -10 -15 -2 0 -4
7 -4 15 0 8 4 15 10 15 5 0 7 -7 4 -15z m7 -32 c-12 -20 -14 -14 -5 12 4 9 9
14 11 11 3 -2 0 -13 -6 -23z m49 -167 c0 -3 -4 -8 -10 -11 -5 -3 -10 -1 -10 4
0 6 5 11 10 11 6 0 10 -2 10 -4z"/>
<path d="M12450 21370 c0 -5 5 -10 11 -10 5 0 7 5 4 10 -3 6 -8 10 -11 10 -2
0 -4 -4 -4 -10z"/>
<path d="M12465 21287 c3 -16 16 -40 29 -53 18 -20 28 -24 50 -18 18 4 25 11
22 21 -3 8 -6 21 -6 29 0 8 -9 14 -20 14 -11 0 -20 5 -20 11 0 7 -10 9 -25 7
-13 -3 -27 0 -30 6 -3 6 -3 -2 0 -17z"/>
<path d="M12550 21193 c0 -15 19 -37 26 -31 3 4 -1 14 -10 23 -9 9 -16 13 -16
8z"/>
<path d="M9507 19292 c-21 -48 -21 -47 5 -72 15 -14 35 -20 65 -20 39 0 43 2
43 24 0 19 -7 26 -28 31 -21 4 -32 16 -42 40 -8 19 -17 35 -20 35 -3 0 -14
-17 -23 -38z"/>
<path d="M9334 19187 c-24 -49 -26 -60 -14 -67 8 -6 20 -10 25 -10 6 0 3 5 -5
10 -9 6 -10 10 -3 10 6 0 15 -4 18 -10 3 -5 14 -10 23 -10 14 0 14 2 3 9 -11
7 -9 10 6 15 14 5 22 19 27 45 3 22 9 47 12 56 5 13 0 15 -29 13 -32 -2 -37
-7 -63 -61z"/>
<path d="M13625 19150 c-11 -5 -53 -9 -92 -9 -75 -1 -97 -14 -43 -26 51 -11
248 5 254 21 3 9 -1 14 -12 14 -9 0 -33 2 -52 5 -19 2 -44 0 -55 -5z"/>
<path d="M9472 19088 c-7 -7 -12 -19 -12 -27 0 -11 4 -10 20 4 21 19 26 35 12
35 -4 0 -13 -5 -20 -12z"/>
<path d="M12370 19080 c0 -12 40 -34 48 -26 3 4 -3 13 -14 21 -22 17 -34 19
-34 5z"/>
<path d="M13574 19072 c-6 -4 -13 -17 -17 -30 l-5 -23 101 6 c106 6 152 13
145 20 -2 3 -40 9 -84 15 -43 6 -90 12 -104 14 -14 3 -31 2 -36 -2z"/>
<path d="M9583 19030 c-36 -14 -29 -34 9 -26 37 7 42 11 33 25 -7 13 -12 13
-42 1z"/>
<path d="M12356 18942 c63 -55 75 -62 107 -62 l32 0 -43 25 c-24 13 -55 34
-69 45 -40 32 -64 25 -27 -8z"/>
<path d="M13760 18917 c-56 -27 -130 -83 -127 -97 1 -9 15 -16 32 -18 23 -2
42 7 79 38 32 26 58 40 77 40 35 0 37 13 7 34 -26 18 -34 19 -68 3z"/>
<path d="M12906 18893 c-11 -3 -26 -11 -33 -19 -12 -11 -10 -14 13 -20 33 -8
149 2 172 15 14 8 10 10 -18 11 -26 0 -31 3 -20 10 16 10 -76 12 -114 3z"/>
<path d="M16245 18880 c3 -5 11 -10 16 -10 6 0 7 5 4 10 -3 6 -11 10 -16 10
-6 0 -7 -4 -4 -10z"/>
<path d="M12495 18870 c-3 -5 0 -10 7 -10 7 0 24 -3 38 -6 24 -6 25 -6 5 9
-23 19 -41 21 -50 7z"/>
<path d="M16265 18850 c-3 -5 -1 -10 4 -10 6 0 11 5 11 10 0 6 -2 10 -4 10 -3
0 -8 -4 -11 -10z"/>
<path d="M12584 18835 c3 -9 0 -15 -9 -15 -23 0 -17 -17 8 -23 44 -10 169 -8
162 3 -3 5 1 10 9 10 9 0 16 4 16 9 0 6 -21 10 -47 10 -60 1 -91 5 -99 14 -4
4 -16 7 -27 7 -13 0 -17 -5 -13 -15z"/>
<path d="M12190 18579 c-30 -5 -164 -13 -298 -18 -194 -7 -247 -12 -267 -25
-13 -9 -42 -16 -64 -16 -22 0 -41 -5 -43 -10 -2 -7 -17 -5 -41 5 -33 14 -53
14 -140 5 -165 -18 -164 -18 -188 -53 -13 -18 -24 -33 -25 -35 -1 -2 -14 4
-28 13 -41 27 -65 12 -63 -38 0 -23 -2 -58 -6 -77 -6 -31 -4 -36 20 -47 15 -7
32 -13 37 -13 6 0 26 -14 45 -30 33 -29 37 -30 140 -32 58 -1 113 -1 121 0 52
4 160 22 185 31 50 17 234 36 345 35 58 0 166 -8 240 -18 95 -12 169 -16 250
-12 146 7 230 16 230 26 0 4 19 12 43 19 23 7 51 16 62 21 11 4 83 23 160 41
142 33 219 39 390 28 l70 -4 -3 29 c-2 16 -10 36 -18 43 -8 8 -14 19 -14 24 0
5 -9 9 -21 9 -11 0 -18 4 -14 10 3 5 0 18 -7 29 -19 31 -63 35 -583 44 -100 2
-185 6 -190 9 -18 11 -269 16 -325 7z m1153 -186 c-7 -2 -19 -2 -25 0 -7 3 -2
5 12 5 14 0 19 -2 13 -5z"/>
<path d="M9494 18549 c-17 -5 -37 -16 -45 -25 -11 -14 -14 -13 -29 5 l-15 21
-95 -44 c-52 -25 -128 -54 -167 -66 -40 -11 -77 -26 -83 -33 -49 -60 -62 -80
-69 -104 -11 -40 -5 -286 7 -309 15 -27 25 -75 23 -106 -1 -14 3 -29 8 -33 8
-4 6 -11 -4 -21 -17 -17 -21 -94 -5 -94 6 0 10 5 10 10 0 6 6 10 14 10 8 0 13
8 12 18 -1 13 6 17 28 15 35 -3 45 -11 26 -24 -10 -6 1 -9 38 -7 47 1 52 3 46
20 -5 17 -2 19 28 13 26 -5 39 -2 58 15 14 12 24 26 22 31 -1 5 7 9 19 9 12 0
23 8 26 18 5 22 51 43 78 36 32 -8 55 17 71 81 8 33 19 76 24 95 10 37 33 60
62 60 10 0 18 5 18 12 0 9 3 9 11 1 9 -9 15 -8 26 3 13 12 13 20 3 45 -7 16
-20 34 -29 39 -9 5 -11 10 -4 10 7 0 20 16 29 35 9 19 22 35 29 35 6 0 17 12
23 26 7 14 16 23 21 20 11 -7 8 -65 -6 -96 -15 -36 -41 -149 -35 -155 9 -9 32
17 32 36 0 11 5 19 12 19 7 0 29 16 49 36 l38 37 37 -18 c36 -17 39 -17 73 0
20 9 47 23 61 29 14 7 44 19 68 26 23 7 42 17 42 21 0 5 25 20 55 34 30 15 60
35 65 46 7 12 21 19 38 19 16 0 32 8 39 18 6 11 28 27 50 38 36 17 37 19 13
22 -14 2 -31 9 -38 15 -7 5 -25 11 -40 12 -45 4 -123 16 -187 31 -43 10 -71
11 -104 3 -32 -7 -46 -7 -51 2 -4 6 -18 11 -31 10 -13 -1 -52 -1 -87 -2 -45
-1 -65 -5 -69 -15 -6 -15 -43 -20 -43 -5 0 5 -8 7 -18 4 -10 -2 -38 3 -62 11
-50 17 -71 18 -116 5z m60 -344 c-10 -8 -23 -15 -28 -15 -6 0 -1 7 10 15 10 8
23 15 28 15 6 0 1 -7 -10 -15z"/>
<path d="M15048 18488 c-34 -7 -59 -22 -97 -59 -28 -27 -55 -49 -60 -49 -5 0
-11 -13 -13 -30 -3 -20 0 -30 9 -30 7 0 13 5 13 10 0 6 6 10 14 10 16 0 98 35
110 47 4 4 12 9 17 9 5 1 12 2 17 3 4 0 24 17 46 36 25 22 36 39 33 50 -7 17
-20 17 -89 3z"/>
<path d="M10400 18470 c0 -5 5 -10 10 -10 6 0 10 5 10 10 0 6 -4 10 -10 10 -5
0 -10 -4 -10 -10z"/>
<path d="M10585 18440 c3 -5 11 -10 16 -10 6 0 7 5 4 10 -3 6 -11 10 -16 10
-6 0 -7 -4 -4 -10z"/>
<path d="M14693 18405 c-13 -5 -23 -13 -23 -17 0 -14 24 -8 49 11 25 19 10 23
-26 6z"/>
<path d="M15335 18366 c-62 -20 -145 -65 -152 -81 -3 -8 -11 -15 -19 -15 -7 0
-17 -6 -21 -13 -4 -8 -23 -22 -40 -32 -52 -31 -42 -43 40 -47 71 -3 96 2 182
42 66 30 146 50 220 56 123 9 134 12 128 34 -6 21 -15 24 -92 35 -24 3 -49 9
-55 13 -29 18 -146 23 -191 8z"/>
<path d="M10880 18354 c0 -8 5 -12 10 -9 6 3 10 10 10 16 0 5 -4 9 -10 9 -5 0
-10 -7 -10 -16z"/>
<path d="M15105 18060 c-3 -5 -1 -10 4 -10 6 0 11 5 11 10 0 6 -2 10 -4 10 -3
0 -8 -4 -11 -10z"/>
<path d="M16689 17938 c-6 -13 -8 -20 -4 -16 5 4 15 2 24 -5 14 -10 14 -10 3
5 -8 9 -11 22 -7 28 3 5 4 10 1 10 -3 0 -11 -10 -17 -22z"/>
<path d="M13440 17890 c0 -13 11 -13 30 0 12 8 11 10 -7 10 -13 0 -23 -4 -23
-10z"/>
<path d="M8986 17855 c-3 -8 -1 -15 4 -15 6 0 10 7 10 15 0 8 -2 15 -4 15 -2
0 -6 -7 -10 -15z"/>
<path d="M14105 17840 c3 -5 13 -10 21 -10 8 0 12 5 9 10 -3 6 -13 10 -21 10
-8 0 -12 -4 -9 -10z"/>
<path d="M13684 17675 c21 -8 44 -19 50 -23 20 -15 100 -41 151 -48 l49 -7
-15 23 c-8 12 -32 28 -54 36 -37 13 -62 17 -180 29 l-40 4 39 -14z"/>
<path d="M9022 17620 c0 -14 2 -19 5 -12 2 6 2 18 0 25 -3 6 -5 1 -5 -13z"/>
<path d="M9258 17248 c-24 -38 -26 -52 -11 -67 13 -12 14 -11 8 9 -5 17 -4 21
6 15 9 -6 11 -3 6 10 -4 9 -2 24 4 32 7 7 10 16 7 19 -3 2 -12 -6 -20 -18z"/>
<path d="M13863 16775 c-18 -8 -33 -16 -33 -19 0 -5 63 4 69 9 1 2 1 8 0 14
-3 6 -17 4 -36 -4z"/>
<path d="M13788 16743 c6 -2 18 -2 25 0 6 3 1 5 -13 5 -14 0 -19 -2 -12 -5z"/>
<path d="M14569 16660 c-11 -7 -10 -12 2 -27 9 -10 21 -33 27 -51 11 -32 97
-154 114 -160 4 -2 8 -9 8 -15 0 -7 9 -18 20 -25 16 -10 24 -10 40 0 11 7 20
15 20 18 0 3 18 25 40 49 22 23 40 49 40 56 0 7 -13 19 -30 27 -16 7 -30 16
-30 20 0 5 -9 8 -21 8 -22 0 -43 10 -104 49 -63 41 -111 60 -126 51z"/>
<path d="M15730 16421 c0 -6 4 -13 10 -16 6 -3 7 1 4 9 -7 18 -14 21 -14 7z"/>
<path d="M14064 16295 c-4 -23 -2 -51 5 -70 13 -37 15 -77 2 -57 -6 10 -11 10
-21 -3 -13 -15 -15 -15 -22 4 -5 15 -16 21 -37 21 -23 0 -42 -12 -80 -51 -28
-29 -51 -58 -51 -66 0 -8 -7 -27 -15 -43 -9 -17 -11 -30 -5 -30 5 0 10 -9 10
-20 0 -11 -4 -20 -9 -20 -5 0 -12 -8 -15 -17 -8 -22 -28 -56 -43 -75 -16 -19
-37 -88 -57 -188 -27 -133 -36 -161 -48 -154 -7 4 -8 3 -4 -5 4 -6 -2 -24 -13
-40 -12 -16 -21 -35 -21 -41 0 -7 -8 -29 -18 -49 -11 -20 -31 -62 -46 -93 -15
-32 -32 -61 -38 -64 -7 -4 -33 -7 -60 -6 -45 1 -184 -21 -193 -30 -3 -2 -8
-38 -11 -79 -5 -56 -13 -81 -30 -102 -26 -31 -32 -86 -14 -132 8 -22 6 -32
-10 -55 -11 -15 -20 -33 -20 -39 0 -6 -18 -14 -40 -17 -28 -5 -41 -13 -46 -27
-4 -12 -13 -27 -21 -35 -34 -35 -2 -137 59 -183 30 -23 70 -136 56 -159 -11
-17 -13 -17 -42 1 -33 20 -60 25 -54 10 2 -5 35 -34 73 -65 91 -73 83 -68 136
-93 25 -13 57 -37 71 -53 14 -17 41 -35 59 -40 45 -13 49 -13 49 6 0 9 15 31
34 50 32 32 96 123 96 137 0 4 20 36 45 73 25 36 45 67 45 69 0 2 20 25 44 50
25 25 48 56 52 68 4 12 16 31 28 43 31 31 56 67 56 80 0 6 9 21 20 34 12 14
18 31 14 42 -4 12 0 18 11 18 9 0 14 4 10 10 -3 5 -2 17 4 27 14 29 39 87 45
106 3 9 11 17 18 17 9 0 9 -3 -2 -11 -13 -9 -13 -10 0 -6 8 2 14 12 12 21 -2
10 11 31 27 48 17 18 33 40 37 51 3 10 12 16 20 13 7 -3 27 0 44 5 39 14 47
45 32 131 -7 38 -12 85 -12 105 0 36 1 36 14 17 19 -27 76 -22 76 6 0 10 -8
20 -17 23 -10 2 1 8 25 12 31 6 42 12 42 26 0 10 8 23 18 28 13 8 14 10 2 11
-17 0 -26 70 -9 70 6 0 6 6 0 18 -9 16 -20 29 -84 102 -67 76 -134 191 -122
210 4 6 3 36 -1 67 -6 51 -8 55 -20 38 -16 -21 -19 -75 -5 -75 5 0 9 -18 9
-40 0 -22 -3 -40 -7 -40 -12 0 -22 -42 -12 -54 4 -6 14 -33 21 -59 7 -27 21
-54 32 -60 10 -7 18 -20 18 -30 0 -13 5 -17 15 -13 8 3 27 1 41 -5 26 -9 26
-10 9 -29 -16 -18 -17 -20 -2 -20 28 0 19 -25 -23 -70 -24 -26 -40 -52 -40
-67 0 -15 -5 -23 -12 -21 -17 6 -74 91 -100 148 -11 25 -26 58 -34 73 -21 43
-28 155 -15 232 7 38 31 112 53 165 41 93 42 98 42 212 1 77 -3 121 -11 129
-9 9 -13 3 -19 -26z m226 -748 c11 -5 9 -6 -4 -4 -11 1 -21 9 -23 17 -3 10 -2
11 4 4 4 -6 15 -14 23 -17z m10 -117 c0 -5 -2 -10 -4 -10 -3 0 -8 5 -11 10 -3
6 -1 10 4 10 6 0 11 -4 11 -10z"/>
<path d="M14270 15734 c16 -68 42 -72 44 -7 1 34 -2 38 -26 41 -25 3 -26 2
-18 -34z"/>
<path d="M14376 15744 c-8 -21 -9 -17 17 -47 l22 -26 -3 44 c-4 45 -24 61 -36
29z"/>
<path d="M14534 15710 c-9 -32 -15 -199 -8 -222 3 -10 14 -18 25 -18 15 0 19
5 14 19 -8 25 36 74 59 65 10 -4 16 -1 16 8 0 7 14 28 30 46 38 42 38 61 -1
98 -25 24 -39 29 -79 29 -44 0 -50 -2 -56 -25z"/>
<path d="M12717 15223 c-3 -16 -1 -35 5 -43 8 -13 9 -13 5 1 -4 12 1 15 17 14
19 -2 22 1 18 26 -6 39 -38 40 -45 2z"/>
<path d="M12490 14795 c-7 -9 -11 -17 -9 -20 3 -2 10 5 17 15 14 24 10 26 -8
5z"/>
<path d="M13116 14497 c3 -10 9 -15 12 -12 3 3 0 11 -7 18 -10 9 -11 8 -5 -6z"/>
<path d="M13040 14331 c0 -5 6 -12 13 -15 6 -3 2 -3 -10 0 -27 6 -29 -3 -6
-28 15 -17 15 -18 -12 -18 -23 0 -26 -2 -15 -15 9 -10 9 -15 1 -15 -6 0 -11
-10 -11 -21 0 -27 -39 -64 -85 -80 -19 -7 -35 -16 -35 -20 0 -4 -8 -9 -17 -13
-10 -3 -31 -14 -48 -25 -16 -11 -37 -20 -46 -20 -9 -1 -24 -10 -34 -21 -10
-11 -23 -20 -29 -20 -6 0 -39 -18 -74 -40 -34 -22 -69 -40 -76 -40 -7 0 -25
-9 -39 -20 -14 -11 -32 -20 -40 -20 -7 0 -22 -9 -32 -20 -10 -11 -22 -20 -27
-20 -4 0 -30 -9 -56 -21 -89 -40 -131 -55 -144 -51 -3 1 -12 -5 -18 -13 -7 -8
-19 -15 -26 -15 -8 0 -14 -4 -14 -9 0 -5 -16 -15 -35 -21 -20 -7 -43 -24 -52
-38 -9 -15 -30 -42 -47 -59 -16 -18 -25 -33 -18 -33 18 0 14 -28 -6 -39 -16
-8 -52 -103 -52 -136 0 -8 -4 -15 -8 -15 -4 0 -8 -8 -9 -17 -1 -10 -8 -43 -17
-73 -9 -30 -16 -69 -16 -87 0 -17 -4 -34 -9 -38 -5 -3 -15 -30 -22 -61 -7 -30
-16 -57 -21 -60 -4 -3 -8 -16 -8 -30 0 -13 -4 -24 -9 -24 -5 0 -11 -13 -14
-30 -4 -16 -15 -49 -26 -73 -11 -23 -23 -55 -26 -70 -4 -15 -10 -27 -15 -27
-4 0 -18 -21 -31 -47 -13 -27 -27 -49 -31 -51 -5 -2 -8 -8 -8 -13 0 -12 -35
-52 -98 -111 -23 -23 -40 -43 -37 -46 2 -3 -3 -10 -12 -17 -25 -19 -6 -37 30
-29 18 3 35 11 38 16 3 5 28 13 55 18 27 4 58 11 70 15 15 5 29 -1 48 -17 24
-21 27 -31 31 -104 2 -44 12 -106 23 -136 35 -99 125 -212 213 -269 46 -29 52
-31 66 -16 14 13 15 25 7 69 -13 71 -9 87 23 85 16 -1 29 5 37 18 22 37 121
160 148 183 16 13 28 30 28 38 0 8 5 14 10 14 16 0 11 32 -7 45 -15 11 -14 15
10 41 46 48 137 168 137 179 0 6 10 21 23 32 22 21 62 74 62 83 0 3 9 14 20
26 20 21 46 52 100 118 17 20 44 52 60 70 17 18 50 59 74 91 24 32 61 76 82
98 22 22 39 43 39 47 0 3 11 13 25 20 13 7 27 21 30 31 3 9 21 32 40 50 19 19
35 40 35 47 0 6 4 12 9 12 5 0 19 11 32 25 13 13 29 25 36 25 6 0 15 9 18 20
3 11 11 20 16 20 21 0 112 92 185 187 53 69 56 75 61 145 5 65 2 79 -20 123
-14 28 -32 73 -39 99 -10 37 -26 61 -71 105 -58 56 -181 141 -204 141 -7 0
-13 4 -13 8 0 5 -11 14 -25 20 -31 14 -35 15 -35 3z"/>
<path d="M13740 13865 c-7 -9 -8 -15 -2 -15 5 0 12 7 16 15 3 8 4 15 2 15 -2
0 -9 -7 -16 -15z"/>
<path d="M12374 12088 l-19 -23 23 19 c21 18 27 26 19 26 -2 0 -12 -10 -23
-22z"/>
<path d="M11248 11443 c19 -7 16 -83 -4 -83 -23 0 -11 -24 14 -28 15 -2 22 2
22 12 0 9 7 16 15 16 8 0 15 5 15 10 0 6 -7 10 -16 10 -13 0 -15 8 -12 35 4
32 2 35 -22 34 -14 0 -19 -3 -12 -6z"/>
<path d="M11477 11155 c-15 -14 -39 -25 -52 -25 -13 0 -25 -3 -27 -8 -4 -9
-192 -102 -207 -102 -11 0 -31 -31 -31 -49 0 -15 36 -14 59 1 15 9 23 9 36 -2
21 -18 90 -14 115 7 62 52 140 136 159 170 8 17 7 22 -5 27 -19 7 -14 10 -47
-19z"/>
<path d="M11990 11139 c0 -11 5 -17 10 -14 6 3 10 13 10 21 0 8 -4 14 -10 14
-5 0 -10 -9 -10 -21z"/>
<path d="M12067 11113 c-9 -11 -24 -44 -33 -74 -9 -30 -20 -58 -25 -63 -15
-17 -11 -66 6 -66 8 0 15 -6 15 -14 0 -21 17 -29 46 -22 24 6 24 8 23 109 -1
56 -4 113 -8 125 -6 24 -6 24 -24 5z"/>
<path d="M9844 11098 c0 -10 1 -18 3 -18 1 0 7 8 12 18 7 13 6 19 -2 19 -7 0
-13 -9 -13 -19z"/>
<path d="M9815 11059 c-4 -6 -5 -12 -2 -15 2 -3 7 2 10 11 7 17 1 20 -8 4z"/>
<path d="M11876 10945 c-11 -16 -28 -38 -38 -49 -34 -37 -18 -34 23 4 26 23
40 44 37 56 -3 15 -6 13 -22 -11z"/>
<path d="M10457 10791 c3 -14 0 -19 -13 -18 -11 1 -20 -6 -22 -17 -6 -26 17
-122 39 -167 15 -31 16 -36 3 -45 -23 -14 -8 -39 47 -80 27 -20 49 -42 49 -49
0 -7 -18 -20 -40 -29 -37 -15 -40 -19 -40 -55 0 -37 2 -39 36 -46 20 -3 54 -3
76 0 28 5 38 4 34 -4 -10 -15 -73 -30 -147 -34 -67 -4 -145 -37 -197 -85 -8
-7 -27 -19 -42 -27 -29 -15 -146 -146 -158 -175 -3 -8 -16 -29 -29 -46 -33
-45 -50 -132 -34 -173 14 -32 44 -42 58 -18 4 8 16 16 26 20 9 4 16 10 15 14
-4 13 45 73 59 73 8 0 12 4 8 9 -5 9 172 71 203 71 8 0 40 15 71 34 31 19 94
53 141 76 47 24 109 58 139 77 59 38 187 164 196 194 4 10 10 19 14 19 8 0 32
45 37 68 1 7 13 23 27 36 28 26 51 65 43 73 -3 3 -25 2 -48 -1 -47 -7 -82 -41
-58 -56 7 -4 9 -13 6 -19 -5 -7 -2 -10 6 -9 23 5 14 -26 -12 -39 -27 -13 -44
2 -20 17 10 6 8 15 -9 38 -27 38 -27 38 9 51 17 5 30 16 30 23 0 8 14 22 30
31 17 10 30 22 30 26 0 11 -106 32 -125 25 -8 -4 -15 -1 -15 5 0 7 -8 11 -17
9 -10 -2 -17 2 -16 8 2 10 -22 23 -136 77 -13 7 -35 28 -50 47 -34 45 -35 46
-110 70 -82 26 -101 26 -94 1z"/>
<path d="M11765 10776 c-9 -14 -15 -37 -13 -53 l3 -28 16 30 c24 44 32 75 20
75 -6 0 -18 -11 -26 -24z"/>
<path d="M10821 10761 c28 -22 71 -31 79 -17 5 9 -4 13 -75 30 l-30 8 26 -21z"/>
<path d="M12021 10744 c-1 -6 -13 -23 -27 -37 -25 -25 -25 -26 -6 -36 28 -15
56 27 43 61 -6 13 -10 18 -10 12z"/>
<path d="M10951 10730 c-17 -10 -7 -42 12 -35 7 3 30 -1 50 -10 47 -19 83 -20
48 -1 l-23 13 23 8 c60 20 60 24 -4 18 -41 -3 -72 -1 -80 5 -7 6 -18 7 -26 2z"/>
<path d="M10280 10720 c-11 -7 -10 -13 4 -34 17 -26 17 -27 -8 -20 -22 5 -24
3 -19 -17 12 -44 28 -64 53 -65 14 -1 29 6 34 14 8 14 10 14 17 -3 6 -19 7
-19 14 -2 4 10 1 39 -7 65 -12 35 -22 49 -45 58 -17 7 -35 9 -43 4z m48 -95
c-3 -3 -9 2 -12 12 -6 14 -5 15 5 6 7 -7 10 -15 7 -18z"/>
<path d="M17350 10710 c-14 -10 -22 -22 -18 -25 10 -10 48 14 48 30 0 19 0 19
-30 -5z"/>
<path d="M11916 10661 c-11 -17 -89 -52 -103 -47 -9 4 -19 -6 -28 -28 -8 -18
-29 -43 -47 -54 -27 -17 -32 -27 -34 -62 -1 -23 -7 -54 -12 -68 -22 -57 -23
-82 -6 -89 12 -4 25 3 42 22 13 16 33 29 43 30 19 2 94 64 119 100 8 12 25 32
38 46 14 15 21 31 18 43 -7 27 22 86 43 86 11 1 8 5 -9 15 -29 16 -56 19 -64
6z"/>
<path d="M9953 10649 c-18 -5 -33 -15 -33 -21 0 -6 -6 -18 -14 -27 -57 -62
-94 -95 -135 -118 -25 -14 -62 -36 -81 -48 -19 -13 -46 -26 -59 -30 -48 -14
-81 -63 -101 -147 -9 -42 -11 -98 -7 -210 6 -139 5 -158 -14 -208 -33 -90 -33
-93 0 -128 69 -72 10 -72 -63 1 -65 64 -73 84 -46 109 30 28 35 63 13 91 -15
20 -22 22 -38 13 -11 -6 -23 -16 -28 -23 -5 -8 -25 -10 -60 -6 -51 5 -54 4
-79 -30 -15 -19 -35 -51 -44 -71 -17 -34 -44 -49 -44 -24 0 6 -8 3 -20 -7 -11
-10 -17 -22 -14 -26 3 -5 0 -9 -5 -9 -6 0 -11 -6 -11 -13 0 -8 -9 -25 -21 -38
-11 -13 -32 -48 -45 -78 -14 -29 -31 -60 -39 -68 -19 -18 -19 -32 -1 -39 15
-6 76 31 176 105 58 43 100 65 108 57 10 -11 -10 -56 -38 -84 -16 -17 -30 -33
-30 -36 0 -3 -22 -27 -50 -53 -46 -44 -62 -71 -42 -74 4 -1 23 -3 42 -5 63 -7
164 -42 216 -76 77 -49 174 -163 159 -187 -3 -5 1 -12 7 -14 8 -4 7 -6 -4 -6
-28 -2 -9 -41 46 -99 58 -60 61 -67 77 -157 8 -45 16 -65 26 -65 8 0 44 21 81
46 38 28 68 42 70 35 4 -13 98 -15 106 -2 3 5 -1 14 -9 21 -8 7 -12 16 -9 21
7 12 -5 49 -17 49 -5 0 -9 -11 -9 -25 0 -18 -8 -29 -25 -37 -33 -15 -51 2 -61
56 -6 33 -4 38 8 33 27 -10 38 15 38 82 0 37 10 105 22 152 21 81 21 95 12
269 -7 125 -14 185 -22 188 -7 2 -12 10 -12 18 0 8 -9 33 -19 55 -12 25 -22
72 -25 122 -5 65 -4 75 5 49 5 -19 14 -30 20 -26 8 5 8 9 0 13 -8 6 -7 17 3
43 9 19 13 38 10 40 -6 7 14 45 47 88 15 19 39 60 54 90 39 78 154 248 155
228 0 -3 -16 -35 -35 -71 -19 -36 -35 -68 -35 -71 0 -6 58 31 70 45 12 13 136
94 145 94 6 0 16 4 23 8 20 13 34 -3 30 -35 -6 -39 3 -42 36 -13 19 16 29 37
33 64 5 37 4 39 -16 34 -11 -3 -21 -9 -21 -14 0 -15 -52 16 -81 48 -14 15 -33
40 -42 55 -27 43 -106 92 -149 93 -20 0 -32 3 -25 7 17 11 -20 9 -60 -3z"/>
<path d="M10863 10649 c33 -9 79 -12 162 -9 99 3 24 17 -91 17 -66 0 -90 -2
-71 -8z"/>
<path d="M17078 10603 c7 -3 16 -2 19 1 4 3 -2 6 -13 5 -11 0 -14 -3 -6 -6z"/>
<path d="M10266 10561 c-3 -4 6 -13 20 -20 39 -17 52 -13 24 9 -28 22 -36 24
-44 11z"/>
<path d="M11541 10544 c-15 -19 -21 -41 -21 -75 0 -48 15 -65 27 -31 4 9 17
30 30 45 27 33 29 55 8 63 -8 4 -12 10 -9 15 13 21 -16 7 -35 -17z"/>
<path d="M11477 10509 c-3 -13 -11 -100 -17 -192 -11 -164 -8 -236 9 -208 7
10 10 10 16 1 5 -8 11 -3 20 14 10 19 11 35 3 63 -7 27 -7 63 1 123 12 84 4
168 -17 207 -8 13 -10 11 -15 -8z"/>
<path d="M17011 10440 c-1 -20 -3 -22 -11 -10 -7 11 -10 11 -10 2 0 -7 -4 -10
-10 -7 -5 3 -10 -2 -10 -12 0 -11 -4 -23 -9 -28 -5 -6 -3 -25 4 -45 8 -19 14
-27 14 -17 1 10 6 15 11 12 6 -3 10 -2 10 4 0 5 3 17 7 27 4 12 3 15 -5 10
-16 -10 -15 0 4 29 9 13 14 32 11 42 -3 13 -5 11 -6 -7z"/>
<path d="M11570 10371 c-5 -20 -10 -39 -10 -43 0 -15 18 -8 24 10 22 62 23 69
10 69 -8 0 -18 -16 -24 -36z"/>
<path d="M11376 10368 c-5 -21 -5 -55 0 -75 l8 -38 4 38 c2 20 2 54 0 75 l-4
37 -8 -37z"/>
<path d="M11363 10130 c0 -30 2 -43 4 -27 2 15 2 39 0 55 -2 15 -4 2 -4 -28z"/>
<path d="M11248 9604 c-5 -4 -8 -21 -7 -38 0 -30 0 -30 10 -7 11 27 8 57 -3
45z"/>
<path d="M11472 9380 c0 -14 2 -19 5 -12 2 6 2 18 0 25 -3 6 -5 1 -5 -13z"/>
<path d="M16330 9109 c0 -5 5 -7 10 -4 6 3 10 8 10 11 0 2 -4 4 -10 4 -5 0
-10 -5 -10 -11z"/>
<path d="M9837 9013 c-4 -3 -7 -11 -7 -17 0 -6 5 -5 12 2 6 6 9 14 7 17 -3 3
-9 2 -12 -2z"/>
<path d="M11555 8997 c-12 -10 -16 -21 -12 -37 3 -12 1 -34 -5 -49 -5 -14 -11
-50 -12 -78 l-3 -53 76 0 c72 -1 207 -12 314 -26 40 -6 47 -4 47 10 0 9 -11
21 -25 26 -14 5 -47 30 -73 54 -26 25 -73 58 -103 74 -30 16 -75 40 -100 54
-60 35 -82 40 -104 25z"/>
<path d="M9279 8973 c-7 -15 -94 -51 -164 -66 -142 -32 -221 -84 -272 -180
-27 -50 -28 -63 -6 -75 14 -9 13 -11 -7 -22 -26 -14 -30 -17 -81 -59 -31 -26
-38 -29 -54 -17 -16 12 -17 18 -7 59 7 25 12 51 12 57 0 14 -41 -9 -60 -35 -8
-11 -26 -31 -40 -45 -13 -14 -24 -28 -22 -32 1 -5 -4 -8 -12 -8 -8 0 -21 -3
-30 -6 -12 -5 -14 2 -12 33 1 21 6 50 10 66 5 15 4 27 -1 27 -23 0 -91 -41
-125 -76 -37 -36 -38 -40 -38 -106 0 -79 7 -86 65 -62 44 18 95 27 95 16 0
-23 -65 -91 -87 -92 -17 0 -40 -51 -35 -75 4 -20 4 -20 -14 0 -53 56 -103 67
-148 31 -28 -23 -28 -24 -12 -56 18 -37 21 -54 6 -45 -16 10 -42 -40 -35 -68
5 -19 2 -28 -14 -36 -19 -10 -19 -13 -5 -54 14 -42 51 -77 63 -60 3 5 21 16
39 24 17 8 32 17 32 21 0 5 18 8 40 8 22 0 40 -4 40 -9 0 -13 -51 -61 -81 -77
-15 -7 -29 -19 -31 -26 -8 -20 32 -116 51 -123 57 -23 191 -27 191 -6 0 4 -21
23 -46 42 -41 31 -71 66 -62 74 4 3 101 -18 176 -39 29 -8 66 -25 83 -37 22
-15 40 -20 67 -16 25 3 56 -3 94 -19 32 -13 73 -24 93 -24 36 0 85 24 85 42 0
5 13 23 30 41 16 18 30 37 30 42 0 6 9 16 20 23 11 7 20 19 20 27 0 8 5 15 10
15 16 0 100 81 100 97 0 8 4 12 9 9 4 -3 25 3 47 14 48 25 188 44 215 29 23
-12 25 -29 4 -29 -8 0 -15 -7 -15 -15 0 -18 16 -19 59 -4 19 7 31 18 31 29 0
12 18 24 58 39 82 32 106 49 92 66 -10 12 -7 17 13 26 16 7 27 23 31 41 8 43
7 78 -2 78 -5 0 -14 16 -22 35 -10 26 -20 35 -39 37 -47 2 -62 -2 -88 -27 -15
-13 -30 -22 -33 -19 -13 14 93 93 155 115 l65 23 -6 60 c-5 52 -10 65 -36 89
-21 18 -38 25 -50 21 -10 -3 -36 -3 -57 1 -33 5 -40 11 -45 36 -4 20 -16 36
-37 47 -17 9 -47 27 -66 40 -18 12 -40 22 -48 22 -8 0 -15 5 -15 10 0 6 7 10
15 10 8 0 15 4 15 9 0 13 -87 90 -113 100 -40 15 -85 22 -88 14z m-62 -229 c3
-10 -57 -44 -80 -44 -7 0 -19 -5 -27 -10 -13 -9 -13 -11 0 -19 19 -13 13 -18
-27 -24 -34 -5 -55 9 -33 23 6 4 -11 5 -39 2 -28 -2 -51 -2 -51 1 0 15 55 63
83 74 38 14 169 12 174 -3z m-26 -406 c1 -13 1 -31 0 -40 -1 -9 9 -37 22 -61
16 -28 25 -60 25 -95 2 -54 -11 -70 -22 -28 -3 14 -17 38 -31 55 -14 16 -33
50 -41 74 -14 40 -14 49 0 81 17 40 45 49 47 14z m-757 -144 c3 -8 2 -12 -4
-9 -6 3 -10 10 -10 16 0 14 7 11 14 -7z m566 -268 c0 -3 -4 -8 -10 -11 -5 -3
-10 -1 -10 4 0 6 5 11 10 11 6 0 10 -2 10 -4z"/>
<path d="M16170 8951 c0 -5 5 -13 10 -16 6 -3 10 -2 10 4 0 5 -4 13 -10 16 -5
3 -10 2 -10 -4z"/>
<path d="M10480 8550 c0 -5 7 -7 15 -4 8 4 15 8 15 10 0 2 -7 4 -15 4 -8 0
-15 -4 -15 -10z"/>
<path d="M10448 8488 c-15 -24 -34 -52 -43 -64 -16 -22 -11 -54 9 -54 17 0 47
38 36 45 -6 4 2 22 17 43 16 20 22 32 15 28 -10 -6 -11 -1 -6 18 9 36 3 33
-28 -16z"/>
<path d="M16591 8394 c-23 -39 -26 -54 -11 -54 6 0 10 7 10 16 0 8 5 12 10 9
6 -3 10 4 10 17 0 13 5 29 12 36 8 8 8 12 1 12 -6 0 -20 -16 -32 -36z"/>
<path d="M7886 8383 c-6 -14 -5 -15 5 -6 7 7 10 15 7 18 -3 3 -9 -2 -12 -12z"/>
<path d="M16555 8319 c-4 -6 -5 -12 -2 -15 2 -3 7 2 10 11 7 17 1 20 -8 4z"/>
<path d="M9807 8243 c-20 -32 -37 -62 -38 -68 0 -5 -19 -24 -42 -42 -104 -80
-296 -156 -391 -155 -74 1 -180 -44 -190 -80 -8 -33 -7 -39 7 -36 6 1 25 -6
40 -17 23 -14 33 -16 47 -8 9 7 35 9 57 6 25 -3 43 -1 47 6 14 22 36 11 36
-18 0 -33 17 -43 67 -37 54 7 78 31 97 96 21 69 33 82 42 45 6 -24 9 -25 48
-20 26 4 68 -1 116 -13 74 -19 75 -19 99 -1 13 11 47 26 76 34 28 9 69 24 90
35 22 11 45 20 53 20 22 0 10 45 -14 48 -11 2 -43 23 -70 48 -43 40 -105 74
-141 76 -23 2 -21 26 3 37 24 10 32 35 15 45 -4 3 -7 17 -6 31 5 38 -7 30 -48
-32z m-47 -292 c0 -11 -48 -24 -61 -16 -5 4 -7 11 -4 16 8 12 65 12 65 0z"/>
<path d="M16393 8285 c-8 -21 -2 -24 25 -14 13 5 20 13 17 19 -9 15 -35 12
-42 -5z"/>
<path d="M16115 8213 c-38 -51 -38 -53 -6 -42 37 13 62 40 43 46 -6 3 -10 9
-6 14 13 21 -13 6 -31 -18z"/>
<path d="M14573 8216 c-31 -11 -31 -12 -15 -32 9 -11 35 -33 56 -49 63 -46
155 -39 156 12 0 16 -87 65 -130 73 -20 4 -50 2 -67 -4z"/>
<path d="M8055 8208 c-27 -78 -34 -113 -33 -168 0 -36 5 -74 11 -85 5 -11 10
-34 9 -52 -1 -29 2 -33 24 -33 14 0 27 -7 31 -17 11 -31 23 -41 43 -36 24 6
27 45 5 63 -8 7 -16 9 -16 4 -4 -22 -27 198 -28 257 -1 51 -5 68 -17 73 -22 8
-24 8 -29 -6z"/>
<path d="M14430 8176 c0 -12 4 -26 9 -31 14 -15 26 -119 12 -111 -6 4 -11 13
-11 20 0 6 -17 29 -39 50 -27 26 -46 37 -62 34 -13 -1 -26 -5 -29 -8 -15 -15
-181 -90 -199 -90 -23 0 -138 -36 -244 -76 -51 -20 -71 -33 -78 -52 -5 -13 -8
-27 -5 -29 2 -2 29 -4 60 -4 45 0 59 -4 70 -21 13 -18 21 -20 63 -14 37 5 44
4 33 -4 -20 -15 167 -5 219 11 73 24 91 32 91 41 0 5 4 7 9 4 4 -3 30 10 57
29 27 19 52 36 56 37 4 2 9 14 11 27 4 28 27 42 27 16 0 -12 4 -14 19 -5 28
15 33 13 21 -10 -10 -18 -8 -20 17 -20 16 0 45 11 64 25 20 13 38 22 40 20 3
-2 15 5 29 15 l25 19 -42 38 c-65 61 -92 75 -185 101 -36 10 -38 9 -38 -12z"/>
<path d="M16317 8186 c-5 -13 -14 -17 -31 -12 -20 5 -23 2 -23 -21 0 -36 24
-73 48 -73 25 0 35 26 18 46 -8 10 -9 18 -3 22 6 4 8 18 4 32 -5 22 -7 23 -13
6z"/>
<path d="M11955 8140 c-3 -5 -6 -20 -7 -34 -1 -15 -9 -26 -18 -27 -8 0 1 -8
20 -17 19 -8 42 -14 52 -13 9 1 35 -17 57 -40 33 -35 43 -40 55 -30 9 7 21 9
28 5 7 -5 27 -9 43 -9 17 -1 35 -3 40 -4 39 -12 83 21 53 40 -7 5 -25 18 -39
30 -29 23 -107 71 -149 90 -29 14 -128 20 -135 9z"/>
<path d="M16082 8101 c-25 -22 -15 -29 30 -23 20 3 28 9 26 21 -5 23 -29 24
-56 2z"/>
<path d="M11734 8088 c-3 -4 -17 -8 -32 -9 -27 0 -27 0 -4 -11 12 -6 22 -15
22 -20 0 -10 37 -11 43 0 2 4 2 1 0 -7 -2 -9 3 -12 19 -8 13 4 42 9 66 13 52
8 60 18 29 39 -26 17 -133 19 -143 3z"/>
<path d="M15485 8053 c0 -29 5 -40 22 -49 13 -6 20 -14 16 -17 -11 -12 16 -8
40 6 41 23 57 40 57 62 0 28 -17 35 -84 35 l-52 0 1 -37z"/>
<path d="M11215 8070 c-3 -5 -31 -10 -61 -10 -60 0 -114 -29 -114 -61 0 -10
-13 -22 -32 -29 -56 -21 -77 -33 -73 -41 5 -8 -65 -21 -250 -47 -92 -13 -119
-21 -117 -31 3 -12 0 -12 -12 -2 -15 13 -76 7 -106 -10 -11 -6 -9 -9 10 -10
14 -1 30 0 35 1 15 4 34 3 85 -7 80 -14 423 -6 497 12 67 17 101 18 393 16
209 -1 289 4 359 25 31 9 77 17 103 18 27 0 48 3 48 4 0 16 -34 70 -51 80 -35
22 -141 27 -195 8 -90 -30 -197 -15 -399 57 -102 36 -113 39 -120 27z"/>
<path d="M12650 8074 c-40 -8 -83 -26 -116 -51 -17 -13 -40 -23 -52 -23 -11 0
-24 -4 -27 -10 -3 -5 -17 -10 -31 -10 -32 0 -31 -14 4 -29 42 -20 227 -34 265
-22 18 6 78 13 132 16 55 3 126 9 157 13 48 7 58 6 61 -7 4 -13 5 -13 6 2 1
10 9 17 20 17 14 0 18 -5 14 -19 -4 -16 -14 -19 -51 -19 -26 1 -72 -4 -102 -9
l-55 -11 70 0 c39 0 103 -2 143 -4 39 -2 72 -1 72 4 0 4 -4 8 -10 8 -5 0 -7 7
-4 15 4 8 2 15 -4 15 -6 0 -13 -6 -15 -12 -3 -8 -6 -6 -6 5 -1 9 -5 17 -11 17
-5 0 -10 6 -10 14 0 18 -49 35 -86 29 -22 -3 -25 -2 -14 6 12 8 9 12 -15 21
-17 7 -46 13 -65 15 -19 2 -42 5 -50 8 -8 3 -42 8 -75 11 -33 3 -73 7 -90 10
-16 2 -41 2 -55 0z m323 -81 c-7 -2 -21 -2 -30 0 -10 3 -4 5 12 5 17 0 24 -2
18 -5z"/>
<path d="M16049 8046 c-2 -2 -42 -5 -89 -7 -47 -2 -93 -5 -102 -7 -24 -6 -23
-31 4 -59 12 -13 16 -23 10 -23 -7 0 -12 -6 -12 -14 0 -27 92 -35 127 -11 14
10 24 12 28 5 7 -12 61 -12 90 -1 11 5 29 5 40 1 21 -8 22 -3 16 71 -1 23 -96
60 -112 45z"/>
<path d="M16353 8011 c-43 -21 -41 -31 7 -31 22 0 43 0 48 0 4 0 7 10 7 22 0
28 -20 31 -62 9z"/>
<path d="M15770 8010 c13 -8 12 -10 -4 -10 -12 0 -16 -5 -12 -16 3 -9 6 -18 6
-20 0 -2 9 -4 21 -4 15 0 19 4 15 16 -3 9 -6 22 -6 30 0 8 -8 14 -17 14 -15 0
-16 -2 -3 -10z"/>
<path d="M9596 7827 c3 -10 9 -15 12 -12 3 3 0 11 -7 18 -10 9 -11 8 -5 -6z"/>
<path d="M14455 7676 c-93 -24 -217 -52 -275 -61 -63 -11 -113 -25 -125 -35
-26 -23 -62 -33 -70 -20 -3 5 -1 10 6 10 7 0 10 2 8 5 -3 2 -25 -2 -49 -9 -37
-11 -46 -18 -48 -39 -4 -31 24 -52 81 -62 42 -8 120 10 138 31 10 12 1 14 -52
14 -54 0 -61 2 -49 14 8 7 40 21 70 30 30 10 73 25 95 35 22 10 56 21 75 25
32 6 33 5 15 -9 -36 -29 60 -7 165 37 52 23 131 49 175 58 56 13 69 18 45 19
-19 0 -111 -19 -205 -43z"/>
<path d="M15945 7665 c-29 -14 -29 -14 -5 -14 14 0 34 6 44 14 25 19 3 19 -39
0z"/>
<path d="M12993 7639 c11 -7 23 -7 35 0 14 9 11 10 -18 10 -29 0 -32 -1 -17
-10z"/>
<path d="M13126 7628 c-13 -8 -15 -13 -5 -24 13 -16 124 -20 114 -4 -3 6 2 10
12 11 12 0 10 3 -7 8 -50 15 -96 19 -114 9z"/>
<path d="M11428 7603 c7 -3 16 -2 19 1 4 3 -2 6 -13 5 -11 0 -14 -3 -6 -6z"/>
<path d="M13023 7583 c-15 -5 -18 -33 -4 -33 8 0 25 30 19 35 -2 1 -9 0 -15
-2z"/>
<path d="M13609 7477 c9 -9 76 -26 104 -27 10 0 17 7 17 18 0 14 -10 17 -64
17 -36 0 -61 -4 -57 -8z"/>
<path d="M12523 11943 c9 -2 23 -2 30 0 6 3 -1 5 -18 5 -16 0 -22 -2 -12 -5z"/>
<path d="M12440 11920 c-11 -7 -7 -10 18 -10 17 0 35 0 39 -1 4 0 9 4 11 10 5
14 -48 14 -68 1z"/>
<path d="M12610 11900 c0 -5 5 -10 10 -10 6 0 10 -7 10 -17 0 -9 3 -14 6 -10
8 8 -5 47 -17 47 -5 0 -9 -4 -9 -10z"/>
<path d="M8550 6740 c-30 -9 -72 -24 -94 -34 l-39 -16 46 -48 c24 -27 48 -63
52 -80 3 -18 10 -32 15 -32 8 0 40 61 40 77 0 5 9 38 21 72 11 35 19 66 17 70
-2 4 -28 0 -58 -9z"/>
</g>
</svg>
