<svg width="303" height="160" viewBox="0 0 303 160" fill="none" xmlns="http://www.w3.org/2000/svg">
<rect width="328" height="166" fill="white"/>
<ellipse cx="166.5" cy="135.5" rx="97.5" ry="6.5" fill="#0F172A"/>
<g filter="url(#filter0_i)">
<path d="M94.5 62.2C96.9667 62.2 98.95 62.7 100.45 63.7C101.95 64.7 103.033 66.0333 103.7 67.7C104.367 69.3333 104.7 71.1667 104.7 73.2V89H99.55V73.75C99.55 71.7167 98.9833 70.05 97.85 68.75C96.7167 67.4167 95.0333 66.8 92.8 66.9C91.2333 66.9 89.8333 67.25 88.6 67.95C87.4 68.6167 86.45 69.5 85.75 70.6C85.05 71.6667 84.7 72.7667 84.7 73.9V89H79.55V52H84.7V67C85.7 65.7 87.0667 64.5833 88.8 63.65C90.5333 62.6833 92.4333 62.2 94.5 62.2Z" fill="#0F172A"/>
</g>
<path d="M100.45 63.7L101.005 62.8679V62.8679L100.45 63.7ZM103.7 67.7L102.772 68.0714L102.774 68.0779L103.7 67.7ZM104.7 89V90H105.7V89H104.7ZM99.55 89H98.55V90H99.55V89ZM97.85 68.75L97.088 69.3977L97.0962 69.4071L97.85 68.75ZM92.8 66.9V67.9H92.8224L92.8447 67.899L92.8 66.9ZM88.6 67.95L89.0857 68.8242L89.0936 68.8197L88.6 67.95ZM85.75 70.6L86.5861 71.1487L86.5937 71.1369L85.75 70.6ZM84.7 89V90H85.7V89H84.7ZM79.55 89H78.55V90H79.55V89ZM79.55 52V51H78.55V52H79.55ZM84.7 52H85.7V51H84.7V52ZM84.7 67H83.7V69.9401L85.4926 67.6097L84.7 67ZM88.8 63.65L89.2741 64.5305L89.2806 64.527L89.2871 64.5234L88.8 63.65ZM94.5 63.2C96.8398 63.2 98.6098 63.6751 99.8953 64.532L101.005 62.8679C99.2902 61.7249 97.0935 61.2 94.5 61.2V63.2ZM99.8953 64.532C101.228 65.4204 102.18 66.5934 102.772 68.0714L104.628 67.3286C103.886 65.4733 102.672 63.9796 101.005 62.8679L99.8953 64.532ZM102.774 68.0779C103.385 69.5744 103.7 71.2767 103.7 73.2H105.7C105.7 71.0567 105.348 69.0923 104.626 67.3221L102.774 68.0779ZM103.7 73.2V89H105.7V73.2H103.7ZM104.7 88H99.55V90H104.7V88ZM100.55 89V73.75H98.55V89H100.55ZM100.55 73.75C100.55 71.5207 99.9235 69.6066 98.6038 68.0929L97.0962 69.4071C98.0432 70.4934 98.55 71.9127 98.55 73.75H100.55ZM98.6119 68.1024C97.2246 66.4702 95.2036 65.7914 92.7553 65.901L92.8447 67.899C94.8631 67.8086 96.2087 68.3631 97.0881 69.3976L98.6119 68.1024ZM92.8 65.9C91.0789 65.9 89.5056 66.2862 88.1064 67.0803L89.0936 68.8197C90.1611 68.2138 91.3878 67.9 92.8 67.9V65.9ZM88.1144 67.0758C86.7768 67.819 85.7005 68.8152 84.9063 70.0631L86.5937 71.1369C87.1995 70.1848 88.0232 69.4144 89.0856 68.8242L88.1144 67.0758ZM84.914 70.0513C84.1209 71.2598 83.7 72.5478 83.7 73.9H85.7C85.7 72.9855 85.9791 72.0735 86.586 71.1487L84.914 70.0513ZM83.7 73.9V89H85.7V73.9H83.7ZM84.7 88H79.55V90H84.7V88ZM80.55 89V52H78.55V89H80.55ZM79.55 53H84.7V51H79.55V53ZM83.7 52V67H85.7V52H83.7ZM85.4926 67.6097C86.3913 66.4415 87.6404 65.4101 89.2741 64.5305L88.3259 62.7695C86.4929 63.7565 85.0087 64.9585 83.9074 66.3903L85.4926 67.6097ZM89.2871 64.5234C90.8652 63.6432 92.5965 63.2 94.5 63.2V61.2C92.2702 61.2 90.2014 61.7234 88.3129 62.7766L89.2871 64.5234Z" fill="#0F172A"/>
<g filter="url(#filter1_i)">
<path d="M133.75 75.85C133.75 78.5167 133.1 80.8833 131.8 82.95C130.5 84.9833 128.717 86.5833 126.45 87.75C124.217 88.9167 121.667 89.5 118.8 89.5C115.933 89.5 113.367 88.9167 111.1 87.75C108.833 86.5833 107.05 84.9833 105.75 82.95C104.45 80.8833 103.8 78.5167 103.8 75.85C103.8 73.1833 104.45 70.8333 105.75 68.8C107.05 66.7333 108.833 65.1167 111.1 63.95C113.367 62.7833 115.933 62.2 118.8 62.2C121.667 62.2 124.217 62.7833 126.45 63.95C128.717 65.1167 130.5 66.7333 131.8 68.8C133.1 70.8333 133.75 73.1833 133.75 75.85ZM128.5 75.85C128.533 74.0833 128.117 72.5333 127.25 71.2C126.417 69.8333 125.25 68.7833 123.75 68.05C122.283 67.2833 120.633 66.9 118.8 66.9C116.967 66.9 115.3 67.2833 113.8 68.05C112.333 68.7833 111.167 69.8333 110.3 71.2C109.433 72.5333 109.017 74.0833 109.05 75.85C109.017 77.5833 109.433 79.1333 110.3 80.5C111.167 81.8333 112.333 82.8833 113.8 83.65C115.3 84.4167 116.967 84.8 118.8 84.8C120.633 84.8 122.283 84.4167 123.75 83.65C125.25 82.8833 126.417 81.8333 127.25 80.5C128.117 79.1333 128.533 77.5833 128.5 75.85Z" fill="#0F172A"/>
</g>
<path d="M131.8 82.95L132.643 83.4887L132.646 83.4825L131.8 82.95ZM126.45 87.75L125.992 86.8608L125.987 86.8637L126.45 87.75ZM111.1 87.75L110.642 88.6391L111.1 87.75ZM105.75 82.95L104.904 83.4825L104.907 83.4887L105.75 82.95ZM105.75 68.8L106.593 69.3387L106.596 69.3325L105.75 68.8ZM111.1 63.95L110.642 63.0609H110.642L111.1 63.95ZM126.45 63.95L125.987 64.8364L125.992 64.8391L126.45 63.95ZM131.8 68.8L130.954 69.3325L130.957 69.3387L131.8 68.8ZM128.5 75.85L127.5 75.8311L127.5 75.8502L127.5 75.8692L128.5 75.85ZM127.25 71.2L126.396 71.7206L126.404 71.7329L126.412 71.745L127.25 71.2ZM123.75 68.05L123.287 68.9362L123.299 68.9425L123.311 68.9484L123.75 68.05ZM113.8 68.05L114.247 68.9445L114.255 68.9404L113.8 68.05ZM110.3 71.2L111.138 71.745L111.145 71.7355L110.3 71.2ZM109.05 75.85L110.05 75.8692L110.05 75.8502L110.05 75.8311L109.05 75.85ZM110.3 80.5L109.455 81.0356L109.462 81.045L110.3 80.5ZM113.8 83.65L113.337 84.5363L113.345 84.5404L113.8 83.65ZM123.75 83.65L123.295 82.7595L123.287 82.7638L123.75 83.65ZM127.25 80.5L126.405 79.9644L126.402 79.97L127.25 80.5ZM132.75 75.85C132.75 78.3463 132.144 80.525 130.954 82.4175L132.646 83.4825C134.056 81.2417 134.75 78.687 134.75 75.85H132.75ZM130.957 82.4113C129.758 84.2874 128.111 85.7703 125.992 86.8609L126.908 88.6391C129.322 87.3964 131.242 85.6792 132.643 83.4887L130.957 82.4113ZM125.987 86.8637C123.915 87.9459 121.528 88.5 118.8 88.5V90.5C121.806 90.5 124.518 89.8874 126.913 88.6363L125.987 86.8637ZM118.8 88.5C116.072 88.5 113.666 87.946 111.558 86.8609L110.642 88.6391C113.067 89.8873 115.794 90.5 118.8 90.5V88.5ZM111.558 86.8609C109.439 85.7703 107.792 84.2874 106.593 82.4113L104.907 83.4887C106.308 85.6792 108.228 87.3964 110.642 88.6391L111.558 86.8609ZM106.596 82.4175C105.406 80.525 104.8 78.3463 104.8 75.85H102.8C102.8 78.687 103.494 81.2417 104.904 83.4825L106.596 82.4175ZM104.8 75.85C104.8 73.3535 105.406 71.1945 106.593 69.3387L104.907 68.2613C103.494 70.4721 102.8 73.0132 102.8 75.85H104.8ZM106.596 69.3325C107.797 67.4242 109.443 65.9276 111.558 64.8391L110.642 63.0609C108.224 64.3057 106.303 66.0425 104.904 68.2675L106.596 69.3325ZM111.558 64.8391C113.666 63.754 116.072 63.2 118.8 63.2V61.2C115.794 61.2 113.067 61.8127 110.642 63.0609L111.558 64.8391ZM118.8 63.2C121.528 63.2 123.915 63.7541 125.987 64.8363L126.913 63.0636C124.518 61.8126 121.806 61.2 118.8 61.2V63.2ZM125.992 64.8391C128.107 65.9276 129.753 67.4242 130.954 69.3325L132.646 68.2675C131.247 66.0425 129.326 64.3057 126.908 63.0609L125.992 64.8391ZM130.957 69.3387C132.144 71.1945 132.75 73.3535 132.75 75.85H134.75C134.75 73.0132 134.056 70.4721 132.643 68.2613L130.957 69.3387ZM129.5 75.8689C129.536 73.9254 129.076 72.1743 128.088 70.655L126.412 71.745C127.157 72.8923 127.53 74.2412 127.5 75.8311L129.5 75.8689ZM128.104 70.6794C127.167 69.1426 125.853 67.9649 124.189 67.1516L123.311 68.9484C124.647 69.6017 125.667 70.5241 126.396 71.7206L128.104 70.6794ZM124.213 67.1638C122.589 66.3146 120.777 65.9 118.8 65.9V67.9C120.49 67.9 121.978 68.2521 123.287 68.9362L124.213 67.1638ZM118.8 65.9C116.823 65.9 114.998 66.3147 113.345 67.1596L114.255 68.9404C115.602 68.252 117.111 67.9 118.8 67.9V65.9ZM113.353 67.1556C111.726 67.9691 110.421 69.1421 109.455 70.6645L111.145 71.7355C111.912 70.5245 112.941 69.5976 114.247 68.9444L113.353 67.1556ZM109.462 70.655C108.474 72.1743 108.014 73.9254 108.05 75.8689L110.05 75.8311C110.02 74.2412 110.393 72.8923 111.138 71.745L109.462 70.655ZM108.05 75.8308C108.013 77.7456 108.476 79.4912 109.455 81.0355L111.145 79.9645C110.39 78.7754 110.02 77.4211 110.05 75.8692L108.05 75.8308ZM109.462 81.045C110.426 82.5284 111.724 83.6933 113.337 84.5362L114.263 82.7638C112.942 82.0734 111.908 81.1383 111.138 79.955L109.462 81.045ZM113.345 84.5404C114.998 85.3853 116.823 85.8 118.8 85.8V83.8C117.111 83.8 115.602 83.448 114.255 82.7596L113.345 84.5404ZM118.8 85.8C120.777 85.8 122.589 85.3854 124.213 84.5362L123.287 82.7638C121.978 83.4479 120.49 83.8 118.8 83.8V85.8ZM124.205 84.5404C125.854 83.6975 127.162 82.5278 128.098 81.03L126.402 79.97C125.671 81.1389 124.646 82.0692 123.295 82.7596L124.205 84.5404ZM128.095 81.0355C129.074 79.4912 129.537 77.7456 129.5 75.8308L127.5 75.8692C127.53 77.4211 127.16 78.7754 126.405 79.9645L128.095 81.0355Z" fill="#0F172A"/>
<g filter="url(#filter2_i)">
<path d="M148.65 62.3C151.317 62.3 153.667 62.8833 155.7 64.05C157.767 65.1833 159.383 66.7667 160.55 68.8C161.717 70.8333 162.3 73.1833 162.3 75.85C162.3 78.4833 161.717 80.8333 160.55 82.9C159.383 84.9333 157.783 86.5333 155.75 87.7C153.717 88.8667 151.4 89.45 148.8 89.45C146.6 89.45 144.617 89.0333 142.85 88.2C141.083 87.3333 139.717 86.3667 138.75 85.3V100H133.55V62.7H138.75V66.7C139.317 65.9667 140.1 65.2667 141.1 64.6C142.1 63.9 143.25 63.35 144.55 62.95C145.85 62.5167 147.217 62.3 148.65 62.3ZM147.95 67.05C146.117 67.05 144.483 67.4333 143.05 68.2C141.617 68.9667 140.5 70.0167 139.7 71.35C138.9 72.65 138.5 74.15 138.5 75.85C138.5 77.5167 138.9 79.0167 139.7 80.35C140.5 81.6833 141.617 82.75 143.05 83.55C144.483 84.3167 146.117 84.7 147.95 84.7C149.783 84.7 151.4 84.3167 152.8 83.55C154.233 82.75 155.35 81.6833 156.15 80.35C156.95 79.0167 157.35 77.5167 157.35 75.85C157.35 74.15 156.95 72.65 156.15 71.35C155.35 70.0167 154.233 68.9667 152.8 68.2C151.4 67.4333 149.783 67.05 147.95 67.05Z" fill="#0F172A"/>
</g>
<path d="M155.7 64.05L155.202 64.9174L155.211 64.9222L155.219 64.9268L155.7 64.05ZM160.55 68.8L159.683 69.2977L160.55 68.8ZM160.55 82.9L161.417 83.3977L161.421 83.3916L160.55 82.9ZM155.75 87.7L156.248 88.5674L155.75 87.7ZM142.85 88.2L142.41 89.0978L142.416 89.1012L142.423 89.1044L142.85 88.2ZM138.75 85.3L139.491 84.6285L137.75 82.7074V85.3H138.75ZM138.75 100V101H139.75V100H138.75ZM133.55 100H132.55V101H133.55V100ZM133.55 62.7V61.7H132.55V62.7H133.55ZM138.75 62.7H139.75V61.7H138.75V62.7ZM138.75 66.7H137.75V69.6296L139.541 67.3114L138.75 66.7ZM141.1 64.6L141.655 65.432L141.664 65.4257L141.673 65.4192L141.1 64.6ZM144.55 62.95L144.844 63.9058L144.855 63.9024L144.866 63.8987L144.55 62.95ZM143.05 68.2L142.578 67.3182L143.05 68.2ZM139.7 71.35L140.552 71.8741L140.557 71.8645L139.7 71.35ZM139.7 80.35L138.843 80.8645L139.7 80.35ZM143.05 83.55L142.563 84.4232L142.57 84.4276L142.578 84.4318L143.05 83.55ZM152.8 83.55L153.28 84.4271L153.287 84.4232L152.8 83.55ZM156.15 80.35L155.293 79.8355L156.15 80.35ZM156.15 71.35L155.292 71.8645L155.298 71.8741L156.15 71.35ZM152.8 68.2L152.32 69.0771L152.328 69.0818L152.8 68.2ZM148.65 63.3C151.166 63.3 153.34 63.849 155.202 64.9174L156.198 63.1826C153.993 61.9177 151.467 61.3 148.65 61.3V63.3ZM155.219 64.9268C157.126 65.9722 158.608 67.4248 159.683 69.2977L161.417 68.3023C160.159 66.1086 158.408 64.3944 156.181 63.1732L155.219 64.9268ZM159.683 69.2977C160.751 71.1597 161.3 73.3335 161.3 75.85H163.3C163.3 73.0331 162.682 70.507 161.417 68.3023L159.683 69.2977ZM161.3 75.85C161.3 78.3304 160.752 80.5077 159.679 82.4084L161.421 83.3916C162.681 81.159 163.3 78.6363 163.3 75.85H161.3ZM159.683 82.4023C158.604 84.2818 157.132 85.7542 155.252 86.8326L156.248 88.5674C158.435 87.3124 160.162 85.5848 161.417 83.3977L159.683 82.4023ZM155.252 86.8326C153.387 87.9032 151.245 88.45 148.8 88.45V90.45C151.555 90.45 154.047 89.8302 156.248 88.5674L155.252 86.8326ZM148.8 88.45C146.729 88.45 144.894 88.0584 143.277 87.2956L142.423 89.1044C144.339 90.0082 146.471 90.45 148.8 90.45V88.45ZM143.29 87.3022C141.598 86.4721 140.348 85.5738 139.491 84.6285L138.009 85.9715C139.086 87.1595 140.568 88.1945 142.41 89.0978L143.29 87.3022ZM137.75 85.3V100H139.75V85.3H137.75ZM138.75 99H133.55V101H138.75V99ZM134.55 100V62.7H132.55V100H134.55ZM133.55 63.7H138.75V61.7H133.55V63.7ZM137.75 62.7V66.7H139.75V62.7H137.75ZM139.541 67.3114C140.025 66.6852 140.72 66.0554 141.655 65.432L140.545 63.7679C139.48 64.4779 138.608 65.2482 137.959 66.0886L139.541 67.3114ZM141.673 65.4192C142.579 64.7854 143.632 64.2786 144.844 63.9058L144.256 61.9942C142.868 62.4214 141.621 63.0146 140.527 63.7808L141.673 65.4192ZM144.866 63.8987C146.06 63.5009 147.319 63.3 148.65 63.3V61.3C147.114 61.3 145.64 61.5325 144.234 62.0013L144.866 63.8987ZM147.95 66.05C145.973 66.05 144.174 66.4645 142.578 67.3182L143.522 69.0818C144.792 68.4022 146.26 68.05 147.95 68.05V66.05ZM142.578 67.3182C140.993 68.1661 139.74 69.3399 138.843 70.8355L140.557 71.8645C141.26 70.6934 142.24 69.7672 143.522 69.0818L142.578 67.3182ZM138.848 70.8259C137.941 72.301 137.5 73.9866 137.5 75.85H139.5C139.5 74.3134 139.859 72.999 140.552 71.8741L138.848 70.8259ZM137.5 75.85C137.5 77.6844 137.943 79.3645 138.843 80.8645L140.557 79.8355C139.857 78.6688 139.5 77.3489 139.5 75.85H137.5ZM138.843 80.8645C139.737 82.3561 140.986 83.5429 142.563 84.4232L143.537 82.6768C142.248 81.9571 141.263 81.0106 140.557 79.8355L138.843 80.8645ZM142.578 84.4318C144.174 85.2855 145.973 85.7 147.95 85.7V83.7C146.26 83.7 144.792 83.3478 143.522 82.6682L142.578 84.4318ZM147.95 85.7C149.926 85.7 151.712 85.2857 153.28 84.4271L152.32 82.6729C151.088 83.3476 149.641 83.7 147.95 83.7V85.7ZM153.287 84.4232C154.864 83.5429 156.113 82.3561 157.007 80.8645L155.293 79.8355C154.587 81.0106 153.602 81.9571 152.313 82.6768L153.287 84.4232ZM157.007 80.8645C157.907 79.3645 158.35 77.6844 158.35 75.85H156.35C156.35 77.3489 155.993 78.6688 155.293 79.8355L157.007 80.8645ZM158.35 75.85C158.35 73.9866 157.909 72.301 157.002 70.8259L155.298 71.8741C155.991 72.999 156.35 74.3134 156.35 75.85H158.35ZM157.007 70.8355C156.11 69.3399 154.857 68.1661 153.272 67.3182L152.328 69.0818C153.61 69.7672 154.59 70.6934 155.293 71.8645L157.007 70.8355ZM153.28 67.3229C151.712 66.4643 149.926 66.05 147.95 66.05V68.05C149.641 68.05 151.088 68.4024 152.32 69.0771L153.28 67.3229Z" fill="#0F172A"/>
<g filter="url(#filter3_i)">
<path d="M169.6 57.05C168.433 57.05 167.567 56.75 167 56.15C166.433 55.55 166.15 54.7667 166.15 53.8C166.15 52.9667 166.433 52.2167 167 51.55C167.567 50.8833 168.433 50.55 169.6 50.55C170.767 50.55 171.633 50.85 172.2 51.45C172.767 52.05 173.05 52.8333 173.05 53.8C173.05 54.6333 172.767 55.3833 172.2 56.05C171.633 56.7167 170.767 57.05 169.6 57.05ZM172.2 89H167.05V62.75H172.2V89Z" fill="#0F172A"/>
</g>
<path d="M167 56.15L166.273 56.8366L166.273 56.8366L167 56.15ZM167 51.55L167.762 52.1976L167.762 52.1976L167 51.55ZM172.2 51.45L172.927 50.7634L172.2 51.45ZM172.2 56.05L172.962 56.6976L172.2 56.05ZM172.2 89V90H173.2V89H172.2ZM167.05 89H166.05V90H167.05V89ZM167.05 62.75V61.75H166.05V62.75H167.05ZM172.2 62.75H173.2V61.75H172.2V62.75ZM169.6 56.05C168.592 56.05 168.038 55.7922 167.727 55.4634L166.273 56.8366C167.096 57.7078 168.274 58.05 169.6 58.05V56.05ZM167.727 55.4634C167.365 55.0804 167.15 54.5581 167.15 53.8H165.15C165.15 54.9752 165.501 56.0196 166.273 56.8366L167.727 55.4634ZM167.15 53.8C167.15 53.2165 167.341 52.6933 167.762 52.1976L166.238 50.9024C165.526 51.74 165.15 52.7168 165.15 53.8H167.15ZM167.762 52.1976C168.08 51.823 168.623 51.55 169.6 51.55V49.55C168.244 49.55 167.053 49.9436 166.238 50.9024L167.762 52.1976ZM169.6 51.55C170.608 51.55 171.162 51.8078 171.473 52.1366L172.927 50.7634C172.104 49.8922 170.926 49.55 169.6 49.55V51.55ZM171.473 52.1366C171.835 52.5196 172.05 53.0419 172.05 53.8H174.05C174.05 52.6248 173.699 51.5804 172.927 50.7634L171.473 52.1366ZM172.05 53.8C172.05 54.3835 171.859 54.9067 171.438 55.4023L172.962 56.6976C173.674 55.86 174.05 54.8832 174.05 53.8H172.05ZM171.438 55.4023C171.12 55.777 170.577 56.05 169.6 56.05V58.05C170.956 58.05 172.147 57.6564 172.962 56.6976L171.438 55.4023ZM172.2 88H167.05V90H172.2V88ZM168.05 89V62.75H166.05V89H168.05ZM167.05 63.75H172.2V61.75H167.05V63.75ZM171.2 62.75V89H173.2V62.75H171.2Z" fill="#0F172A"/>
<g filter="url(#filter4_i)">
<path d="M204.5 62.75V89H199.35V84.7C198.75 85.5 197.933 86.2667 196.9 87C195.867 87.7333 194.667 88.3333 193.3 88.8C191.967 89.2667 190.517 89.5 188.95 89.5C186.35 89.5 184.033 88.9167 182 87.75C180 86.5833 178.417 84.9667 177.25 82.9C176.117 80.8333 175.55 78.4667 175.55 75.8C175.55 73.1333 176.15 70.7833 177.35 68.75C178.55 66.7167 180.2 65.1167 182.3 63.95C184.433 62.7833 186.867 62.2 189.6 62.2C191.767 62.2 193.683 62.6167 195.35 63.45C197.05 64.2833 198.383 65.25 199.35 66.35V62.75H204.5ZM190.15 84.75C191.983 84.75 193.6 84.3667 195 83.6C196.433 82.8 197.55 81.7333 198.35 80.4C199.15 79.0667 199.55 77.5333 199.55 75.8C199.55 74.1333 199.15 72.6333 198.35 71.3C197.55 69.9667 196.433 68.9167 195 68.15C193.6 67.35 191.983 66.95 190.15 66.95C188.317 66.95 186.683 67.35 185.25 68.15C183.85 68.9167 182.75 69.9667 181.95 71.3C181.183 72.6333 180.8 74.1333 180.8 75.8C180.8 77.5333 181.183 79.0667 181.95 80.4C182.75 81.7333 183.85 82.8 185.25 83.6C186.683 84.3667 188.317 84.75 190.15 84.75Z" fill="#0F172A"/>
</g>
<path d="M204.5 62.75H205.5V61.75H204.5V62.75ZM204.5 89V90H205.5V89H204.5ZM199.35 89H198.35V90H199.35V89ZM199.35 84.7H200.35V81.7L198.55 84.1L199.35 84.7ZM196.9 87L196.321 86.1845L196.9 87ZM193.3 88.8L192.977 87.8536L192.97 87.8561L193.3 88.8ZM182 87.75L181.496 88.6138L181.502 88.6174L182 87.75ZM177.25 82.9L176.373 83.3809L176.379 83.3916L177.25 82.9ZM177.35 68.75L176.489 68.2417L177.35 68.75ZM182.3 63.95L181.82 63.0726L181.814 63.0758L182.3 63.95ZM195.35 63.45L194.903 64.3445L194.91 64.3479L195.35 63.45ZM199.35 66.35L198.599 67.0101L200.35 69.0028V66.35H199.35ZM199.35 62.75V61.75H198.35V62.75H199.35ZM195 83.6L195.48 84.4771L195.487 84.4732L195 83.6ZM198.35 71.3L197.493 71.8145L198.35 71.3ZM195 68.15L194.504 69.0182L194.516 69.0252L194.528 69.0318L195 68.15ZM185.25 68.15L185.73 69.0271L185.737 69.0232L185.25 68.15ZM181.95 71.3L181.093 70.7855L181.088 70.7935L181.083 70.8015L181.95 71.3ZM181.95 80.4L181.083 80.8985L181.088 80.9065L181.093 80.9145L181.95 80.4ZM185.25 83.6L184.754 84.4682L184.766 84.4752L184.778 84.4818L185.25 83.6ZM203.5 62.75V89H205.5V62.75H203.5ZM204.5 88H199.35V90H204.5V88ZM200.35 89V84.7H198.35V89H200.35ZM198.55 84.1C198.026 84.7984 197.292 85.4959 196.321 86.1845L197.479 87.8155C198.575 87.0375 199.474 86.2016 200.15 85.3L198.55 84.1ZM196.321 86.1845C195.376 86.855 194.265 87.4138 192.977 87.8536L193.623 89.7463C195.068 89.2528 196.357 88.6117 197.479 87.8155L196.321 86.1845ZM192.97 87.8561C191.753 88.2818 190.416 88.5 188.95 88.5V90.5C190.617 90.5 192.18 90.2515 193.63 89.7439L192.97 87.8561ZM188.95 88.5C186.505 88.5 184.363 87.9532 182.498 86.8826L181.502 88.6174C183.703 89.8802 186.195 90.5 188.95 90.5V88.5ZM182.504 86.8862C180.661 85.8112 179.203 84.3247 178.121 82.4084L176.379 83.3916C177.631 85.6086 179.339 87.3555 181.496 88.6138L182.504 86.8862ZM178.127 82.4192C177.084 80.5183 176.55 78.321 176.55 75.8H174.55C174.55 78.6123 175.149 81.1483 176.373 83.3808L178.127 82.4192ZM176.55 75.8C176.55 73.2885 177.113 71.1185 178.211 69.2583L176.489 68.2417C175.187 70.4482 174.55 72.9782 174.55 75.8H176.55ZM178.211 69.2583C179.319 67.3809 180.838 65.906 182.786 64.8242L181.814 63.0758C179.562 64.3273 177.781 66.0524 176.489 68.2417L178.211 69.2583ZM182.78 64.8274C184.749 63.7507 187.013 63.2 189.6 63.2V61.2C186.72 61.2 184.118 61.8159 181.82 63.0726L182.78 64.8274ZM189.6 63.2C191.637 63.2 193.396 63.591 194.903 64.3444L195.797 62.5556C193.971 61.6423 191.897 61.2 189.6 61.2V63.2ZM194.91 64.3479C196.525 65.1395 197.741 66.0335 198.599 67.0101L200.101 65.6899C199.026 64.4665 197.575 63.4272 195.79 62.5521L194.91 64.3479ZM200.35 66.35V62.75H198.35V66.35H200.35ZM199.35 63.75H204.5V61.75H199.35V63.75ZM190.15 85.75C192.126 85.75 193.912 85.3357 195.48 84.4771L194.52 82.7229C193.288 83.3976 191.841 83.75 190.15 83.75V85.75ZM195.487 84.4732C197.064 83.5929 198.313 82.4061 199.207 80.9145L197.493 79.8855C196.787 81.0606 195.802 82.007 194.513 82.7268L195.487 84.4732ZM199.207 80.9145C200.111 79.4084 200.55 77.6932 200.55 75.8H198.55C198.55 77.3734 198.189 78.7249 197.493 79.8855L199.207 80.9145ZM200.55 75.8C200.55 73.9656 200.107 72.2855 199.207 70.7855L197.493 71.8145C198.193 72.9812 198.55 74.3011 198.55 75.8H200.55ZM199.207 70.7855C198.31 69.2899 197.057 68.1161 195.472 67.2682L194.528 69.0318C195.81 69.7172 196.79 70.6434 197.493 71.8145L199.207 70.7855ZM195.496 67.2818C193.925 66.3841 192.133 65.95 190.15 65.95V67.95C191.834 67.95 193.275 68.3159 194.504 69.0182L195.496 67.2818ZM190.15 65.95C188.166 65.95 186.362 66.3843 184.763 67.2768L185.737 69.0232C187.005 68.3157 188.467 67.95 190.15 67.95V65.95ZM184.77 67.2729C183.218 68.1225 181.986 69.2958 181.093 70.7855L182.807 71.8145C183.514 70.6375 184.482 69.7109 185.73 69.0271L184.77 67.2729ZM181.083 70.8015C180.222 72.2991 179.8 73.9735 179.8 75.8H181.8C181.8 74.2932 182.145 72.9676 182.817 71.7985L181.083 70.8015ZM179.8 75.8C179.8 77.6856 180.219 79.395 181.083 80.8985L182.817 79.9015C182.148 78.7383 181.8 77.381 181.8 75.8H179.8ZM181.093 80.9145C181.984 82.4003 183.211 83.5865 184.754 84.4682L185.746 82.7318C184.489 82.0135 183.516 81.0664 182.807 79.8855L181.093 80.9145ZM184.778 84.4818C186.374 85.3355 188.173 85.75 190.15 85.75V83.75C188.46 83.75 186.992 83.3978 185.722 82.7182L184.778 84.4818Z" fill="#0F172A"/>
<g filter="url(#filter5_i)">
<path d="M222.3 62.2C224.833 62.2 226.85 62.7 228.35 63.7C229.883 64.7 230.983 66.0333 231.65 67.7C232.35 69.3333 232.7 71.1667 232.7 73.2V89H227.55V73.75C227.55 71.75 226.983 70.1 225.85 68.8C224.717 67.5 223.033 66.8833 220.8 66.95C219.233 66.95 217.833 67.3 216.6 68C215.4 68.6667 214.45 69.5333 213.75 70.6C213.05 71.6667 212.7 72.7667 212.7 73.9V89H207.55V62.75H212.7V67.15C213.7 65.85 215.033 64.7 216.7 63.7C218.367 62.7 220.233 62.2 222.3 62.2Z" fill="#0F172A"/>
</g>
<path d="M228.35 63.7L227.795 64.5321L227.804 64.5376L228.35 63.7ZM231.65 67.7L230.722 68.0714L230.726 68.0827L230.731 68.0939L231.65 67.7ZM232.7 89V90H233.7V89H232.7ZM227.55 89H226.55V90H227.55V89ZM225.85 68.8L225.096 69.4571L225.85 68.8ZM220.8 66.95V67.95H220.815L220.83 67.9496L220.8 66.95ZM216.6 68L217.086 68.8742L217.094 68.8697L216.6 68ZM213.75 70.6L212.914 70.0513L213.75 70.6ZM212.7 89V90H213.7V89H212.7ZM207.55 89H206.55V90H207.55V89ZM207.55 62.75V61.75H206.55V62.75H207.55ZM212.7 62.75H213.7V61.75H212.7V62.75ZM212.7 67.15H211.7V70.0901L213.493 67.7597L212.7 67.15ZM216.7 63.7L216.186 62.8425L216.7 63.7ZM222.3 63.2C224.713 63.2 226.514 63.6776 227.795 64.532L228.905 62.8679C227.186 61.7224 224.954 61.2 222.3 61.2V63.2ZM227.804 64.5376C229.168 65.4276 230.133 66.5998 230.722 68.0714L232.578 67.3286C231.834 65.4669 230.598 63.9724 228.896 62.8624L227.804 64.5376ZM230.731 68.0939C231.37 69.5861 231.7 71.2827 231.7 73.2H233.7C233.7 71.0507 233.33 69.0806 232.569 67.3061L230.731 68.0939ZM231.7 73.2V89H233.7V73.2H231.7ZM232.7 88H227.55V90H232.7V88ZM228.55 89V73.75H226.55V89H228.55ZM228.55 73.75C228.55 71.5493 227.921 69.6536 226.604 68.1429L225.096 69.4571C226.046 70.5464 226.55 71.9507 226.55 73.75H228.55ZM226.604 68.1429C225.219 66.5539 223.207 65.8777 220.77 65.9504L220.83 67.9496C222.859 67.889 224.215 68.4461 225.096 69.4571L226.604 68.1429ZM220.8 65.95C219.079 65.95 217.506 66.3362 216.106 67.1303L217.094 68.8697C218.161 68.2638 219.388 67.95 220.8 67.95V65.95ZM216.114 67.1258C214.784 67.865 213.709 68.8393 212.914 70.0513L214.586 71.1487C215.191 70.2274 216.016 69.4684 217.086 68.8742L216.114 67.1258ZM212.914 70.0513C212.121 71.2598 211.7 72.5478 211.7 73.9H213.7C213.7 72.9855 213.979 72.0735 214.586 71.1487L212.914 70.0513ZM211.7 73.9V89H213.7V73.9H211.7ZM212.7 88H207.55V90H212.7V88ZM208.55 89V62.75H206.55V89H208.55ZM207.55 63.75H212.7V61.75H207.55V63.75ZM211.7 62.75V67.15H213.7V62.75H211.7ZM213.493 67.7597C214.404 66.5755 215.636 65.5047 217.214 64.5575L216.186 62.8425C214.431 63.8953 212.996 65.1245 211.907 66.5403L213.493 67.7597ZM217.214 64.5575C218.716 63.6567 220.403 63.2 222.3 63.2V61.2C220.064 61.2 218.018 61.7433 216.186 62.8425L217.214 64.5575Z" fill="#0F172A"/>
<g filter="url(#filter6_i)">
<path d="M262.5 62.75V89H257.35V84.7C256.75 85.5 255.933 86.2667 254.9 87C253.867 87.7333 252.667 88.3333 251.3 88.8C249.967 89.2667 248.517 89.5 246.95 89.5C244.35 89.5 242.033 88.9167 240 87.75C238 86.5833 236.417 84.9667 235.25 82.9C234.117 80.8333 233.55 78.4667 233.55 75.8C233.55 73.1333 234.15 70.7833 235.35 68.75C236.55 66.7167 238.2 65.1167 240.3 63.95C242.433 62.7833 244.867 62.2 247.6 62.2C249.767 62.2 251.683 62.6167 253.35 63.45C255.05 64.2833 256.383 65.25 257.35 66.35V62.75H262.5ZM248.15 84.75C249.983 84.75 251.6 84.3667 253 83.6C254.433 82.8 255.55 81.7333 256.35 80.4C257.15 79.0667 257.55 77.5333 257.55 75.8C257.55 74.1333 257.15 72.6333 256.35 71.3C255.55 69.9667 254.433 68.9167 253 68.15C251.6 67.35 249.983 66.95 248.15 66.95C246.317 66.95 244.683 67.35 243.25 68.15C241.85 68.9167 240.75 69.9667 239.95 71.3C239.183 72.6333 238.8 74.1333 238.8 75.8C238.8 77.5333 239.183 79.0667 239.95 80.4C240.75 81.7333 241.85 82.8 243.25 83.6C244.683 84.3667 246.317 84.75 248.15 84.75Z" fill="#0F172A"/>
</g>
<path d="M262.5 62.75H263.5V61.75H262.5V62.75ZM262.5 89V90H263.5V89H262.5ZM257.35 89H256.35V90H257.35V89ZM257.35 84.7H258.35V81.7L256.55 84.1L257.35 84.7ZM254.9 87L254.321 86.1845L254.9 87ZM251.3 88.8L250.977 87.8536L250.97 87.8561L251.3 88.8ZM240 87.75L239.496 88.6138L239.502 88.6174L240 87.75ZM235.25 82.9L234.373 83.3809L234.379 83.3916L235.25 82.9ZM235.35 68.75L234.489 68.2417L235.35 68.75ZM240.3 63.95L239.82 63.0726L239.814 63.0758L240.3 63.95ZM253.35 63.45L252.903 64.3445L252.91 64.3479L253.35 63.45ZM257.35 66.35L256.599 67.0101L258.35 69.0028V66.35H257.35ZM257.35 62.75V61.75H256.35V62.75H257.35ZM253 83.6L253.48 84.4771L253.487 84.4732L253 83.6ZM256.35 71.3L255.493 71.8145L256.35 71.3ZM253 68.15L252.504 69.0182L252.516 69.0252L252.528 69.0318L253 68.15ZM243.25 68.15L243.73 69.0271L243.737 69.0232L243.25 68.15ZM239.95 71.3L239.093 70.7855L239.088 70.7935L239.083 70.8015L239.95 71.3ZM239.95 80.4L239.083 80.8985L239.088 80.9065L239.093 80.9145L239.95 80.4ZM243.25 83.6L242.754 84.4682L242.766 84.4752L242.778 84.4818L243.25 83.6ZM261.5 62.75V89H263.5V62.75H261.5ZM262.5 88H257.35V90H262.5V88ZM258.35 89V84.7H256.35V89H258.35ZM256.55 84.1C256.026 84.7984 255.292 85.4959 254.321 86.1845L255.479 87.8155C256.575 87.0375 257.474 86.2016 258.15 85.3L256.55 84.1ZM254.321 86.1845C253.376 86.855 252.265 87.4138 250.977 87.8536L251.623 89.7463C253.068 89.2528 254.357 88.6117 255.479 87.8155L254.321 86.1845ZM250.97 87.8561C249.753 88.2818 248.416 88.5 246.95 88.5V90.5C248.617 90.5 250.18 90.2515 251.63 89.7439L250.97 87.8561ZM246.95 88.5C244.505 88.5 242.363 87.9532 240.498 86.8826L239.502 88.6174C241.703 89.8802 244.195 90.5 246.95 90.5V88.5ZM240.504 86.8862C238.661 85.8112 237.203 84.3247 236.121 82.4084L234.379 83.3916C235.631 85.6086 237.339 87.3555 239.496 88.6138L240.504 86.8862ZM236.127 82.4192C235.084 80.5183 234.55 78.321 234.55 75.8H232.55C232.55 78.6123 233.149 81.1483 234.373 83.3808L236.127 82.4192ZM234.55 75.8C234.55 73.2885 235.113 71.1185 236.211 69.2583L234.489 68.2417C233.187 70.4482 232.55 72.9782 232.55 75.8H234.55ZM236.211 69.2583C237.319 67.3809 238.838 65.906 240.786 64.8242L239.814 63.0758C237.562 64.3273 235.781 66.0524 234.489 68.2417L236.211 69.2583ZM240.78 64.8274C242.749 63.7507 245.013 63.2 247.6 63.2V61.2C244.72 61.2 242.118 61.8159 239.82 63.0726L240.78 64.8274ZM247.6 63.2C249.637 63.2 251.396 63.591 252.903 64.3444L253.797 62.5556C251.971 61.6423 249.897 61.2 247.6 61.2V63.2ZM252.91 64.3479C254.525 65.1395 255.741 66.0335 256.599 67.0101L258.101 65.6899C257.026 64.4665 255.575 63.4272 253.79 62.5521L252.91 64.3479ZM258.35 66.35V62.75H256.35V66.35H258.35ZM257.35 63.75H262.5V61.75H257.35V63.75ZM248.15 85.75C250.126 85.75 251.912 85.3357 253.48 84.4771L252.52 82.7229C251.288 83.3976 249.841 83.75 248.15 83.75V85.75ZM253.487 84.4732C255.064 83.5929 256.313 82.4061 257.207 80.9145L255.493 79.8855C254.787 81.0606 253.802 82.007 252.513 82.7268L253.487 84.4732ZM257.207 80.9145C258.111 79.4084 258.55 77.6932 258.55 75.8H256.55C256.55 77.3734 256.189 78.7249 255.493 79.8855L257.207 80.9145ZM258.55 75.8C258.55 73.9656 258.107 72.2855 257.207 70.7855L255.493 71.8145C256.193 72.9812 256.55 74.3011 256.55 75.8H258.55ZM257.207 70.7855C256.31 69.2899 255.057 68.1161 253.472 67.2682L252.528 69.0318C253.81 69.7172 254.79 70.6434 255.493 71.8145L257.207 70.7855ZM253.496 67.2818C251.925 66.3841 250.133 65.95 248.15 65.95V67.95C249.834 67.95 251.275 68.3159 252.504 69.0182L253.496 67.2818ZM248.15 65.95C246.166 65.95 244.362 66.3843 242.763 67.2768L243.737 69.0232C245.005 68.3157 246.467 67.95 248.15 67.95V65.95ZM242.77 67.2729C241.218 68.1225 239.986 69.2958 239.093 70.7855L240.807 71.8145C241.514 70.6375 242.482 69.7109 243.73 69.0271L242.77 67.2729ZM239.083 70.8015C238.222 72.2991 237.8 73.9735 237.8 75.8H239.8C239.8 74.2932 240.145 72.9676 240.817 71.7985L239.083 70.8015ZM237.8 75.8C237.8 77.6856 238.219 79.395 239.083 80.8985L240.817 79.9015C240.148 78.7383 239.8 77.381 239.8 75.8H237.8ZM239.093 80.9145C239.984 82.4003 241.211 83.5865 242.754 84.4682L243.746 82.7318C242.489 82.0135 241.516 81.0664 240.807 79.8855L239.093 80.9145ZM242.778 84.4818C244.374 85.3355 246.173 85.75 248.15 85.75V83.75C246.46 83.75 244.992 83.3978 243.722 82.7182L242.778 84.4818Z" fill="#0F172A"/>
<g filter="url(#filter7_i)">
<path d="M53.65 78.35C55.25 80.35 56.9333 81.9 58.7 83C60.4667 84.1 62.6833 84.65 65.35 84.65C66.7167 84.65 68.0333 84.4667 69.3 84.1C70.5667 83.7 71.6 83.1333 72.4 82.4C73.2 81.6333 73.6 80.6833 73.6 79.55C73.6 77.8833 72.7667 76.6667 71.1 75.9C69.4333 75.1 67.1 74.4667 64.1 74C60.3333 73.3667 57.3333 72.25 55.1 70.65C52.9 69.0167 51.8 66.6333 51.8 63.5C51.8 61.4333 52.4167 59.65 53.65 58.15C54.8833 56.65 56.5167 55.5 58.55 54.7C60.5833 53.9 62.8167 53.5 65.25 53.5C68.3167 53.5 70.9667 54.0333 73.2 55.1C75.4667 56.1667 77.2333 57.6833 78.5 59.65L74.8 63.5C73.7333 61.9667 72.3833 60.7333 70.75 59.8C69.15 58.8333 67.2667 58.35 65.1 58.35C62.9333 58.35 61.1 58.7833 59.6 59.65C58.1333 60.4833 57.4 61.6667 57.4 63.2C57.4 64.9667 58.1833 66.2333 59.75 67C61.3167 67.7667 63.4 68.3667 66 68.8C67.7 69.0667 69.3333 69.4333 70.9 69.9C72.4667 70.3667 73.8667 70.9833 75.1 71.75C76.3667 72.4833 77.3667 73.4 78.1 74.5C78.8333 75.5667 79.2 76.8833 79.2 78.45C79.2 80.6833 78.6167 82.6333 77.45 84.3C76.3167 85.9333 74.6833 87.2167 72.55 88.15C70.4167 89.05 67.9 89.5 65 89.5C61.9333 89.5 59.15 88.9667 56.65 87.9C54.15 86.8333 51.95 85.1 50.05 82.7L53.65 78.35Z" fill="#0F172A"/>
</g>
<path d="M53.65 78.35L54.4309 77.7253L53.6631 76.7657L52.8796 77.7124L53.65 78.35ZM58.7 83L58.1714 83.8489L58.7 83ZM69.3 84.1L69.5781 85.0606L69.5896 85.0572L69.6011 85.0536L69.3 84.1ZM72.4 82.4L73.0757 83.1372L73.0839 83.1297L73.0919 83.122L72.4 82.4ZM71.1 75.9L70.6673 76.8015L70.6747 76.8051L70.6821 76.8085L71.1 75.9ZM64.1 74L63.9342 74.9862L63.9463 74.9881L64.1 74ZM55.1 70.65L54.5039 71.4529L54.5107 71.458L54.5176 71.4629L55.1 70.65ZM53.65 58.15L54.4224 58.7851L53.65 58.15ZM58.55 54.7L58.9161 55.6306L58.55 54.7ZM73.2 55.1L72.769 56.0024L72.7742 56.0048L73.2 55.1ZM78.5 59.65L79.221 60.3429L79.7687 59.773L79.3407 59.1085L78.5 59.65ZM74.8 63.5L73.9791 64.0711L74.6757 65.0725L75.521 64.1929L74.8 63.5ZM70.75 59.8L70.2329 60.6559L70.2433 60.6622L70.2539 60.6682L70.75 59.8ZM59.6 59.65L60.094 60.5195L60.1003 60.5159L59.6 59.65ZM59.75 67L59.3104 67.8982L59.75 67ZM66 68.8L65.8356 69.7864L65.845 69.7879L66 68.8ZM75.1 71.75L74.5721 72.5993L74.5854 72.6076L74.599 72.6154L75.1 71.75ZM78.1 74.5L77.268 75.0547L77.2719 75.0606L77.276 75.0665L78.1 74.5ZM77.45 84.3L76.6308 83.7265L76.6284 83.7299L77.45 84.3ZM72.55 88.15L72.9387 89.0714L72.9508 89.0662L72.55 88.15ZM56.65 87.9L57.0424 86.9802L56.65 87.9ZM50.05 82.7L49.2796 82.0624L48.7635 82.686L49.266 83.3207L50.05 82.7ZM52.8691 78.9747C54.5242 81.0435 56.2893 82.677 58.1714 83.8489L59.2286 82.1511C57.5774 81.123 55.9758 79.6565 54.4309 77.7253L52.8691 78.9747ZM58.1714 83.8489C60.1356 85.0719 62.5484 85.65 65.35 85.65V83.65C62.8183 83.65 60.7977 83.1281 59.2286 82.1511L58.1714 83.8489ZM65.35 85.65C66.8073 85.65 68.2178 85.4543 69.5781 85.0606L69.0219 83.1394C67.8489 83.479 66.626 83.65 65.35 83.65V85.65ZM69.6011 85.0536C70.9764 84.6193 72.1468 83.9886 73.0757 83.1372L71.7243 81.6628C71.0532 82.278 70.1569 82.7807 68.9989 83.1464L69.6011 85.0536ZM73.0919 83.122C74.0937 82.1619 74.6 80.9489 74.6 79.55H72.6C72.6 80.4178 72.3063 81.1048 71.7081 81.678L73.0919 83.122ZM74.6 79.55C74.6 78.5422 74.3451 77.6183 73.8 76.8224C73.259 76.0325 72.4757 75.4321 71.5179 74.9915L70.6821 76.8085C71.391 77.1346 71.8577 77.5258 72.15 77.9526C72.4382 78.3734 72.6 78.8912 72.6 79.55H74.6ZM71.5327 74.9985C69.7395 74.1377 67.2969 73.4853 64.2537 73.0119L63.9463 74.9881C66.9031 75.4481 69.1272 76.0623 70.6673 76.8015L71.5327 74.9985ZM64.2658 73.0138C60.5942 72.3965 57.7533 71.3207 55.6824 69.8371L54.5176 71.4629C56.9134 73.1793 60.0724 74.3368 63.9342 74.9862L64.2658 73.0138ZM55.6961 69.8471C53.7892 68.4314 52.8 66.3688 52.8 63.5H50.8C50.8 66.8979 52.0108 69.602 54.5039 71.4529L55.6961 69.8471ZM52.8 63.5C52.8 61.649 53.3461 60.0941 54.4224 58.7851L52.8776 57.5149C51.4872 59.2058 50.8 61.2177 50.8 63.5H52.8ZM54.4224 58.7851C55.5347 57.4323 57.021 56.3762 58.9161 55.6306L58.1839 53.7694C56.0123 54.6238 54.232 55.8677 52.8776 57.5149L54.4224 58.7851ZM58.9161 55.6306C60.8203 54.8814 62.9278 54.5 65.25 54.5V52.5C62.7056 52.5 60.3464 52.9186 58.1839 53.7694L58.9161 55.6306ZM65.25 54.5C68.2023 54.5 70.6985 55.0135 72.769 56.0024L73.631 54.1976C71.2348 53.0532 68.431 52.5 65.25 52.5V54.5ZM72.7742 56.0048C74.8838 56.9976 76.5014 58.3937 77.6593 60.1915L79.3407 59.1085C77.9653 56.973 76.0496 55.3358 73.6258 54.1952L72.7742 56.0048ZM77.779 58.9571L74.079 62.8071L75.521 64.1929L79.221 60.3429L77.779 58.9571ZM75.6209 62.9289C74.4688 61.2727 73.0075 59.9382 71.2461 58.9318L70.2539 60.6682C71.7592 61.5284 72.9979 62.6606 73.9791 64.0711L75.6209 62.9289ZM71.2671 58.9441C69.4877 57.869 67.4195 57.35 65.1 57.35V59.35C67.1138 59.35 68.8123 59.7977 70.2329 60.6559L71.2671 58.9441ZM65.1 57.35C62.8012 57.35 60.7855 57.8101 59.0997 58.7841L60.1003 60.5159C61.4145 59.7565 63.0655 59.35 65.1 59.35V57.35ZM59.106 58.7805C57.3646 59.7699 56.4 61.2652 56.4 63.2H58.4C58.4 62.0682 58.902 61.1967 60.094 60.5195L59.106 58.7805ZM56.4 63.2C56.4 64.2342 56.6307 65.1823 57.137 66.001C57.6438 66.8204 58.3872 67.4464 59.3104 67.8982L60.1896 66.1018C59.5461 65.7869 59.1146 65.3962 58.838 64.949C58.561 64.501 58.4 63.9325 58.4 63.2H56.4ZM59.3104 67.8982C60.9964 68.7232 63.1836 69.3444 65.8356 69.7864L66.1644 67.8136C63.6164 67.3889 61.637 66.8101 60.1896 66.1018L59.3104 67.8982ZM65.845 69.7879C67.5032 70.048 69.0928 70.4051 70.6145 70.8584L71.1855 68.9416C69.5738 68.4616 67.8968 68.0853 66.155 67.8121L65.845 69.7879ZM70.6145 70.8584C72.1064 71.3028 73.4231 71.8851 74.5721 72.5993L75.6279 70.9007C74.3102 70.0816 72.8269 69.4306 71.1855 68.9416L70.6145 70.8584ZM74.599 72.6154C75.7473 73.2803 76.6284 74.0954 77.268 75.0547L78.9321 73.9453C78.1049 72.7046 76.986 71.6864 75.601 70.8846L74.599 72.6154ZM77.276 75.0665C77.8724 75.9341 78.2 77.0424 78.2 78.45H80.2C80.2 76.7242 79.7942 75.1992 78.924 73.9335L77.276 75.0665ZM78.2 78.45C78.2 80.4992 77.6683 82.2444 76.6308 83.7265L78.2692 84.8735C79.5651 83.0223 80.2 80.8675 80.2 78.45H78.2ZM76.6284 83.7299C75.6175 85.1868 74.1424 86.3618 72.1492 87.2338L72.9508 89.0662C75.2243 88.0715 77.0158 86.6799 78.2716 84.8701L76.6284 83.7299ZM72.1613 87.2286C70.1778 88.0654 67.7991 88.5 65 88.5V90.5C68.0009 90.5 70.6555 90.0346 72.9387 89.0714L72.1613 87.2286ZM65 88.5C62.0509 88.5 59.4034 87.9876 57.0424 86.9802L56.2576 88.8198C58.8966 89.9458 61.8157 90.5 65 90.5V88.5ZM57.0424 86.9802C54.7144 85.9869 52.6438 84.3653 50.834 82.0793L49.266 83.3207C51.2562 85.8347 53.5856 87.6797 56.2576 88.8198L57.0424 86.9802ZM50.8204 83.3376L54.4204 78.9876L52.8796 77.7124L49.2796 82.0624L50.8204 83.3376Z" fill="#0F172A"/>
<g filter="url(#filter8_i)">
<circle cx="216" cy="112" r="13" stroke="#0F172A" stroke-width="14"/>
<circle cx="216" cy="112" r="13" stroke="#0F172A" stroke-width="14"/>
</g>
<g filter="url(#filter9_i)">
<path d="M9.5 19L24.4888 15.1731C29.0552 14.0072 33.635 17.0215 34.37 21.6767L45.4338 91.7477C46.0478 95.6361 49.3994 98.5 53.336 98.5H89.5" stroke="#0F172A" stroke-width="7" stroke-linecap="round"/>
</g>
<g filter="url(#filter10_i)">
<path d="M242.5 98.5H270L275 55.5" stroke="#0F172A" stroke-width="7" stroke-linecap="round"/>
</g>
<g filter="url(#filter11_i)">
<path d="M146.978 99H191.978" stroke="#0F172A" stroke-width="7" stroke-linecap="round"/>
</g>
<g filter="url(#filter12_i)">
<circle cx="114" cy="112" r="13" stroke="#0F172A" stroke-width="14"/>
</g>
<defs>
<filter id="filter0_i" x="78.5498" y="51" width="27.15" height="43" filterUnits="userSpaceOnUse" color-interpolation-filters="sRGB">
<feFlood flood-opacity="0" result="BackgroundImageFix"/>
<feBlend mode="normal" in="SourceGraphic" in2="BackgroundImageFix" result="shape"/>
<feColorMatrix in="SourceAlpha" type="matrix" values="0 0 0 0 0 0 0 0 0 0 0 0 0 0 0 0 0 0 127 0" result="hardAlpha"/>
<feOffset dy="4"/>
<feGaussianBlur stdDeviation="3"/>
<feComposite in2="hardAlpha" operator="arithmetic" k2="-1" k3="1"/>
<feColorMatrix type="matrix" values="0 0 0 0 0.0677083 0 0 0 0 0.184375 0 0 0 0 0.25 0 0 0 0.54 0"/>
<feBlend mode="normal" in2="shape" result="effect1_innerShadow"/>
</filter>
<filter id="filter1_i" x="102.8" y="61.1992" width="31.95" height="33.3" filterUnits="userSpaceOnUse" color-interpolation-filters="sRGB">
<feFlood flood-opacity="0" result="BackgroundImageFix"/>
<feBlend mode="normal" in="SourceGraphic" in2="BackgroundImageFix" result="shape"/>
<feColorMatrix in="SourceAlpha" type="matrix" values="0 0 0 0 0 0 0 0 0 0 0 0 0 0 0 0 0 0 127 0" result="hardAlpha"/>
<feOffset dy="4"/>
<feGaussianBlur stdDeviation="3"/>
<feComposite in2="hardAlpha" operator="arithmetic" k2="-1" k3="1"/>
<feColorMatrix type="matrix" values="0 0 0 0 0.0677083 0 0 0 0 0.184375 0 0 0 0 0.25 0 0 0 0.54 0"/>
<feBlend mode="normal" in2="shape" result="effect1_innerShadow"/>
</filter>
<filter id="filter2_i" x="132.55" y="61.3008" width="30.75" height="43.7" filterUnits="userSpaceOnUse" color-interpolation-filters="sRGB">
<feFlood flood-opacity="0" result="BackgroundImageFix"/>
<feBlend mode="normal" in="SourceGraphic" in2="BackgroundImageFix" result="shape"/>
<feColorMatrix in="SourceAlpha" type="matrix" values="0 0 0 0 0 0 0 0 0 0 0 0 0 0 0 0 0 0 127 0" result="hardAlpha"/>
<feOffset dy="4"/>
<feGaussianBlur stdDeviation="3"/>
<feComposite in2="hardAlpha" operator="arithmetic" k2="-1" k3="1"/>
<feColorMatrix type="matrix" values="0 0 0 0 0.0677083 0 0 0 0 0.184375 0 0 0 0 0.25 0 0 0 0.54 0"/>
<feBlend mode="normal" in2="shape" result="effect1_innerShadow"/>
</filter>
<filter id="filter3_i" x="165.15" y="49.5508" width="8.9" height="44.45" filterUnits="userSpaceOnUse" color-interpolation-filters="sRGB">
<feFlood flood-opacity="0" result="BackgroundImageFix"/>
<feBlend mode="normal" in="SourceGraphic" in2="BackgroundImageFix" result="shape"/>
<feColorMatrix in="SourceAlpha" type="matrix" values="0 0 0 0 0 0 0 0 0 0 0 0 0 0 0 0 0 0 127 0" result="hardAlpha"/>
<feOffset dy="4"/>
<feGaussianBlur stdDeviation="3"/>
<feComposite in2="hardAlpha" operator="arithmetic" k2="-1" k3="1"/>
<feColorMatrix type="matrix" values="0 0 0 0 0.0677083 0 0 0 0 0.184375 0 0 0 0 0.25 0 0 0 0.54 0"/>
<feBlend mode="normal" in2="shape" result="effect1_innerShadow"/>
</filter>
<filter id="filter4_i" x="174.55" y="61.1992" width="30.95" height="33.3" filterUnits="userSpaceOnUse" color-interpolation-filters="sRGB">
<feFlood flood-opacity="0" result="BackgroundImageFix"/>
<feBlend mode="normal" in="SourceGraphic" in2="BackgroundImageFix" result="shape"/>
<feColorMatrix in="SourceAlpha" type="matrix" values="0 0 0 0 0 0 0 0 0 0 0 0 0 0 0 0 0 0 127 0" result="hardAlpha"/>
<feOffset dy="4"/>
<feGaussianBlur stdDeviation="3"/>
<feComposite in2="hardAlpha" operator="arithmetic" k2="-1" k3="1"/>
<feColorMatrix type="matrix" values="0 0 0 0 0.0677083 0 0 0 0 0.184375 0 0 0 0 0.25 0 0 0 0.54 0"/>
<feBlend mode="normal" in2="shape" result="effect1_innerShadow"/>
</filter>
<filter id="filter5_i" x="206.55" y="61.1992" width="27.15" height="32.8" filterUnits="userSpaceOnUse" color-interpolation-filters="sRGB">
<feFlood flood-opacity="0" result="BackgroundImageFix"/>
<feBlend mode="normal" in="SourceGraphic" in2="BackgroundImageFix" result="shape"/>
<feColorMatrix in="SourceAlpha" type="matrix" values="0 0 0 0 0 0 0 0 0 0 0 0 0 0 0 0 0 0 127 0" result="hardAlpha"/>
<feOffset dy="4"/>
<feGaussianBlur stdDeviation="3"/>
<feComposite in2="hardAlpha" operator="arithmetic" k2="-1" k3="1"/>
<feColorMatrix type="matrix" values="0 0 0 0 0.0677083 0 0 0 0 0.184375 0 0 0 0 0.25 0 0 0 0.54 0"/>
<feBlend mode="normal" in2="shape" result="effect1_innerShadow"/>
</filter>
<filter id="filter6_i" x="232.55" y="61.1992" width="30.95" height="33.3" filterUnits="userSpaceOnUse" color-interpolation-filters="sRGB">
<feFlood flood-opacity="0" result="BackgroundImageFix"/>
<feBlend mode="normal" in="SourceGraphic" in2="BackgroundImageFix" result="shape"/>
<feColorMatrix in="SourceAlpha" type="matrix" values="0 0 0 0 0 0 0 0 0 0 0 0 0 0 0 0 0 0 127 0" result="hardAlpha"/>
<feOffset dy="4"/>
<feGaussianBlur stdDeviation="3"/>
<feComposite in2="hardAlpha" operator="arithmetic" k2="-1" k3="1"/>
<feColorMatrix type="matrix" values="0 0 0 0 0.0677083 0 0 0 0 0.184375 0 0 0 0 0.25 0 0 0 0.54 0"/>
<feBlend mode="normal" in2="shape" result="effect1_innerShadow"/>
</filter>
<filter id="filter7_i" x="48.7637" y="52.5" width="31.4365" height="42" filterUnits="userSpaceOnUse" color-interpolation-filters="sRGB">
<feFlood flood-opacity="0" result="BackgroundImageFix"/>
<feBlend mode="normal" in="SourceGraphic" in2="BackgroundImageFix" result="shape"/>
<feColorMatrix in="SourceAlpha" type="matrix" values="0 0 0 0 0 0 0 0 0 0 0 0 0 0 0 0 0 0 127 0" result="hardAlpha"/>
<feOffset dy="4"/>
<feGaussianBlur stdDeviation="3"/>
<feComposite in2="hardAlpha" operator="arithmetic" k2="-1" k3="1"/>
<feColorMatrix type="matrix" values="0 0 0 0 0.0677083 0 0 0 0 0.184375 0 0 0 0 0.25 0 0 0 0.54 0"/>
<feBlend mode="normal" in2="shape" result="effect1_innerShadow"/>
</filter>
<filter id="filter8_i" x="196" y="92" width="40" height="44" filterUnits="userSpaceOnUse" color-interpolation-filters="sRGB">
<feFlood flood-opacity="0" result="BackgroundImageFix"/>
<feBlend mode="normal" in="SourceGraphic" in2="BackgroundImageFix" result="shape"/>
<feColorMatrix in="SourceAlpha" type="matrix" values="0 0 0 0 0 0 0 0 0 0 0 0 0 0 0 0 0 0 127 0" result="hardAlpha"/>
<feOffset dy="4"/>
<feGaussianBlur stdDeviation="2"/>
<feComposite in2="hardAlpha" operator="arithmetic" k2="-1" k3="1"/>
<feColorMatrix type="matrix" values="0 0 0 0 0 0 0 0 0 0 0 0 0 0 0 0 0 0 0.25 0"/>
<feBlend mode="normal" in2="shape" result="effect1_innerShadow"/>
</filter>
<filter id="filter9_i" x="5.99902" y="11.4199" width="87.0008" height="94.5793" filterUnits="userSpaceOnUse" color-interpolation-filters="sRGB">
<feFlood flood-opacity="0" result="BackgroundImageFix"/>
<feBlend mode="normal" in="SourceGraphic" in2="BackgroundImageFix" result="shape"/>
<feColorMatrix in="SourceAlpha" type="matrix" values="0 0 0 0 0 0 0 0 0 0 0 0 0 0 0 0 0 0 127 0" result="hardAlpha"/>
<feOffset dy="4"/>
<feGaussianBlur stdDeviation="2"/>
<feComposite in2="hardAlpha" operator="arithmetic" k2="-1" k3="1"/>
<feColorMatrix type="matrix" values="0 0 0 0 0 0 0 0 0 0 0 0 0 0 0 0 0 0 0.25 0"/>
<feBlend mode="normal" in2="shape" result="effect1_innerShadow"/>
</filter>
<filter id="filter10_i" x="239" y="52" width="39.5003" height="54.0003" filterUnits="userSpaceOnUse" color-interpolation-filters="sRGB">
<feFlood flood-opacity="0" result="BackgroundImageFix"/>
<feBlend mode="normal" in="SourceGraphic" in2="BackgroundImageFix" result="shape"/>
<feColorMatrix in="SourceAlpha" type="matrix" values="0 0 0 0 0 0 0 0 0 0 0 0 0 0 0 0 0 0 127 0" result="hardAlpha"/>
<feOffset dy="4"/>
<feGaussianBlur stdDeviation="2"/>
<feComposite in2="hardAlpha" operator="arithmetic" k2="-1" k3="1"/>
<feColorMatrix type="matrix" values="0 0 0 0 0 0 0 0 0 0 0 0 0 0 0 0 0 0 0.25 0"/>
<feBlend mode="normal" in2="shape" result="effect1_innerShadow"/>
</filter>
<filter id="filter11_i" x="143.478" y="95.5" width="52" height="11" filterUnits="userSpaceOnUse" color-interpolation-filters="sRGB">
<feFlood flood-opacity="0" result="BackgroundImageFix"/>
<feBlend mode="normal" in="SourceGraphic" in2="BackgroundImageFix" result="shape"/>
<feColorMatrix in="SourceAlpha" type="matrix" values="0 0 0 0 0 0 0 0 0 0 0 0 0 0 0 0 0 0 127 0" result="hardAlpha"/>
<feOffset dy="4"/>
<feGaussianBlur stdDeviation="2"/>
<feComposite in2="hardAlpha" operator="arithmetic" k2="-1" k3="1"/>
<feColorMatrix type="matrix" values="0 0 0 0 0 0 0 0 0 0 0 0 0 0 0 0 0 0 0.25 0"/>
<feBlend mode="normal" in2="shape" result="effect1_innerShadow"/>
</filter>
<filter id="filter12_i" x="94" y="92" width="40" height="44" filterUnits="userSpaceOnUse" color-interpolation-filters="sRGB">
<feFlood flood-opacity="0" result="BackgroundImageFix"/>
<feBlend mode="normal" in="SourceGraphic" in2="BackgroundImageFix" result="shape"/>
<feColorMatrix in="SourceAlpha" type="matrix" values="0 0 0 0 0 0 0 0 0 0 0 0 0 0 0 0 0 0 127 0" result="hardAlpha"/>
<feOffset dy="4"/>
<feGaussianBlur stdDeviation="2"/>
<feComposite in2="hardAlpha" operator="arithmetic" k2="-1" k3="1"/>
<feColorMatrix type="matrix" values="0 0 0 0 0 0 0 0 0 0 0 0 0 0 0 0 0 0 0.25 0"/>
<feBlend mode="normal" in2="shape" result="effect1_innerShadow"/>
</filter>
</defs>
</svg>
