<?xml version="1.0" standalone="no"?>
<!DOCTYPE svg PUBLIC "-//W3C//DTD SVG 20010904//EN"
 "http://www.w3.org/TR/2001/REC-SVG-20010904/DTD/svg10.dtd">
<svg version="1.0" xmlns="http://www.w3.org/2000/svg"
 width="494.000000pt" height="617.000000pt" viewBox="0 0 494.000000 617.000000"
 preserveAspectRatio="xMidYMid meet">

<g transform="translate(0.000000,617.000000) scale(0.100000,-0.100000)"
fill="#000000" stroke="none">
<path d="M2310 6144 c-199 -15 -438 -64 -635 -129 -146 -49 -424 -186 -555
-273 -370 -249 -644 -560 -839 -952 -177 -357 -253 -682 -254 -1080 -1 -413
78 -751 261 -1116 364 -725 1074 -1220 1902 -1325 122 -16 438 -16 560 0 555
70 1066 317 1450 701 279 278 507 659 614 1028 75 257 100 433 99 707 0 403
-76 726 -254 1085 -195 392 -471 705 -844 955 -126 85 -406 222 -550 270 -152
50 -328 92 -470 110 -122 16 -386 26 -485 19z m545 -193 c874 -155 1575 -787
1814 -1636 63 -226 75 -323 76 -610 0 -227 -3 -276 -23 -385 -85 -472 -290
-873 -616 -1209 -357 -366 -793 -589 -1316 -672 -114 -19 -526 -19 -640 0
-524 83 -957 305 -1316 672 -117 120 -237 275 -318 409 -83 137 -157 365 -193
595 -27 167 -24 489 6 659 65 374 209 695 441 986 88 110 272 288 383 372 489
364 1106 503 1704 383 658 -133 1223 -579 1510 -1193 116 -247 193 -572 193
-814 l0 -78 31 0 32 0 -6 193 c-6 215 -28 364 -79 542 -232 806 -903 1409
-1723 1549 -677 116 -1378 -99 -1868 -573 -464 -448 -681 -990 -682 -1706 0
-135 5 -252 13 -303 7 -46 12 -86 9 -88 -7 -7 -46 149 -69 277 -20 108 -23
157 -23 384 1 284 14 389 76 610 163 583 557 1080 1094 1383 239 134 515 225
810 267 152 21 524 14 680 -14z m-135 -265 c224 -31 434 -91 625 -180 578
-270 1009 -788 1166 -1400 11 -43 18 -80 17 -82 -2 -2 -21 48 -41 110 -134
405 -429 801 -793 1062 -637 455 -1483 531 -2189 195 -219 -105 -398 -228
-569 -391 -168 -161 -312 -347 -412 -535 -64 -118 -53 -82 17 58 177 354 460
664 794 867 246 150 544 257 821 294 133 19 433 19 564 2z m1817 -1698 c-3 -8
-6 -5 -6 6 -1 11 2 17 5 13 3 -3 4 -12 1 -19z m-4240 -980 c-3 -8 -6 -5 -6 6
-1 11 2 17 5 13 3 -3 4 -12 1 -19z"/>
<path d="M2754 5190 c-39 -16 -74 -68 -74 -112 0 -76 53 -128 129 -128 87 0
147 101 107 179 -30 58 -103 85 -162 61z"/>
<path d="M2497 5150 c-39 -31 -50 -65 -36 -107 12 -36 51 -63 94 -63 40 0 85
50 85 94 0 75 -86 121 -143 76z"/>
<path d="M2292 5127 c-28 -30 -29 -80 -2 -107 30 -30 83 -27 109 6 28 35 26
69 -4 99 -31 32 -74 33 -103 2z"/>
<path d="M2144 5120 c-12 -4 -23 -17 -26 -27 -14 -52 44 -93 82 -58 25 23 25
50 0 75 -22 22 -25 23 -56 10z"/>
<path d="M2014 5086 c-8 -21 3 -36 27 -36 15 0 20 6 17 22 -4 27 -35 37 -44
14z"/>
<path d="M2955 4763 c-182 -25 -448 -144 -600 -268 -59 -49 -67 -53 -59 -30 4
9 -27 -2 -82 -31 -150 -77 -253 -75 -360 7 -36 28 -82 58 -102 67 -55 24 -204
21 -317 -7 -84 -21 -112 -22 -436 -21 -317 0 -348 -1 -368 -17 -31 -26 -37
-73 -13 -103 l20 -25 348 -1 c326 -2 349 -3 361 -20 15 -21 9 -64 -10 -76 -7
-4 -141 -8 -300 -8 -274 0 -288 -1 -307 -20 -24 -24 -26 -67 -4 -98 15 -22 19
-22 228 -22 228 0 236 -2 236 -51 0 -59 -6 -60 -297 -58 -231 1 -267 -1 -281
-15 -22 -21 -20 -80 2 -105 18 -19 32 -21 238 -23 l220 -3 -57 -64 c-52 -58
-148 -183 -170 -221 -5 -8 33 23 84 70 284 260 498 406 630 430 62 11 125 -1
135 -26 3 -9 -7 -46 -24 -84 -16 -38 -30 -84 -30 -103 0 -61 71 -124 159 -141
l35 -6 -41 35 c-79 67 -78 125 3 236 25 33 50 72 55 87 24 64 -19 100 -132
109 -60 5 -69 8 -69 26 0 30 88 113 134 125 29 9 58 7 120 -4 49 -10 101 -13
132 -9 62 7 160 53 193 88 13 15 40 32 60 38 20 6 79 35 131 64 241 135 528
202 702 166 127 -27 247 -116 304 -226 24 -46 44 -69 44 -51 0 2 7 32 16 66
13 52 14 70 3 113 -22 94 -117 170 -251 202 -58 14 -211 18 -283 8z m-1432
-342 c13 -5 27 -16 30 -25 6 -15 -60 -112 -70 -102 -3 3 9 23 26 44 17 22 31
45 31 51 0 29 -103 25 -265 -10 -49 -10 -90 -19 -92 -19 -2 0 -3 9 -3 19 0 16
12 21 83 30 164 22 226 25 260 12z"/>
<path d="M1880 4723 c-31 -11 -70 -58 -76 -90 -19 -104 71 -163 147 -95 26 23
33 38 37 80 4 47 2 54 -26 82 -29 29 -50 35 -82 23z"/>
<path d="M2890 4551 c-12 -9 -11 -11 6 -11 11 0 48 -14 82 -30 179 -90 216
-279 106 -549 -96 -238 -324 -532 -587 -757 -491 -420 -971 -502 -1058 -180
-12 45 -15 170 -5 236 6 43 6 44 -8 20 -37 -60 -97 -235 -108 -311 -13 -94 -1
-203 33 -278 63 -143 213 -203 419 -168 231 39 444 139 688 324 92 69 195 153
229 186 38 37 66 57 71 52 5 -6 21 -46 36 -90 74 -213 174 -322 356 -386 140
-50 197 -54 674 -52 241 1 440 4 442 6 9 9 146 758 140 765 -4 4 -177 7 -384
7 -335 0 -380 -2 -407 -17 -16 -9 -84 -71 -150 -137 l-120 -121 318 0 319 0
-6 -27 c-3 -16 -8 -48 -11 -73 -12 -84 3 -77 -188 -85 -186 -8 -346 3 -436 30
-67 21 -143 89 -167 151 -20 53 -16 143 10 197 28 57 98 129 156 161 102 55
126 58 520 65 216 4 372 10 382 16 15 9 115 118 240 260 l38 43 -134 7 c-74 4
-285 5 -468 2 -335 -5 -454 -15 -602 -53 -32 -8 -60 -13 -63 -10 -3 3 18 67
45 143 60 165 77 249 69 352 -7 101 -30 161 -83 220 -66 73 -123 94 -264 98
-68 2 -121 0 -130 -6z"/>
<path d="M1936 4249 c-3 -13 -51 -285 -107 -604 -55 -319 -103 -590 -106 -602
l-5 -23 196 0 c134 0 196 3 196 11 0 40 54 352 67 387 24 68 39 71 299 65
l220 -6 57 79 c31 43 78 107 103 142 26 35 44 65 41 68 -3 3 -152 8 -331 11
l-326 6 5 31 c3 17 9 51 13 76 l8 45 365 3 366 2 13 28 c27 59 52 140 65 212
7 41 13 76 12 77 -1 1 -260 5 -574 9 l-572 7 -5 -24z"/>
<path d="M372 3750 c-32 -13 -46 -55 -29 -88 l12 -27 154 -3 c169 -3 191 4
191 57 0 34 -10 48 -43 60 -34 13 -253 13 -285 1z"/>
<path d="M780 3747 c-62 -31 -47 -117 23 -128 61 -10 79 -1 127 65 25 33 46
64 48 69 6 12 -171 8 -198 -6z"/>
<path d="M4552 3356 c-42 -58 -41 -68 3 -23 19 20 35 43 35 52 0 22 -3 20 -38
-29z"/>
<path d="M4601 3355 c-1 -22 -9 -61 -18 -88 -15 -42 -15 -49 -2 -62 20 -20 48
-9 55 22 8 32 0 90 -19 133 l-15 35 -1 -40z"/>
<path d="M4551 3299 c-37 -51 -39 -82 -6 -114 28 -29 57 -35 33 -7 -27 30 -29
57 -7 106 11 26 18 50 16 53 -3 3 -19 -14 -36 -38z"/>
<path d="M4650 3263 c0 -23 -3 -50 -6 -60 -5 -16 -4 -16 10 1 18 22 21 63 6
86 -7 11 -10 4 -10 -27z"/>
<path d="M2073 2190 c-108 -66 -65 -230 62 -230 75 0 125 51 125 128 0 93
-107 151 -187 102z"/>
<path d="M2348 2165 c-57 -32 -65 -99 -19 -146 52 -51 128 -34 151 35 26 79
-60 151 -132 111z"/>
<path d="M2545 2135 c-30 -30 -32 -64 -4 -99 26 -33 79 -36 109 -6 30 30 27
83 -6 109 -35 28 -69 26 -99 -4z"/>
<path d="M2752 2129 c-30 -11 -39 -54 -17 -79 40 -44 107 -3 86 52 -11 29 -37
39 -69 27z"/>
<path d="M2887 2104 c-4 -4 -7 -16 -7 -26 0 -14 6 -19 23 -16 14 2 22 10 22
23 0 20 -25 32 -38 19z"/>
<path d="M2654 1220 c-134 -27 -210 -107 -221 -231 -11 -114 32 -207 115 -252
51 -28 161 -50 208 -42 131 20 166 29 171 42 3 8 1 19 -6 26 -6 6 -11 35 -11
64 0 48 3 55 25 65 18 8 25 18 23 32 -3 20 -10 21 -129 24 -105 2 -128 0 -132
-12 -8 -20 19 -46 48 -46 24 0 35 -22 35 -73 0 -64 -29 -80 -95 -53 -107 45
-139 284 -50 373 29 29 39 33 87 33 83 0 117 -26 133 -102 4 -20 12 -28 26
-28 24 0 26 6 34 96 l6 71 -76 12 c-85 12 -131 13 -191 1z"/>
<path d="M960 1193 c0 -16 8 -25 28 -29 15 -4 30 -12 34 -18 9 -13 11 -311 2
-354 -5 -24 -12 -32 -33 -34 -18 -2 -27 -10 -29 -25 -3 -23 -3 -23 138 -23
141 0 141 0 138 23 -2 15 -11 23 -28 25 -43 6 -50 20 -50 93 l0 69 59 0 c57 0
59 -1 70 -30 7 -23 16 -30 36 -30 l26 0 -3 93 c-3 85 -5 92 -24 95 -16 2 -24
-4 -32 -27 -11 -30 -13 -31 -71 -31 l-61 0 0 80 0 80 64 0 c69 0 80 -6 91 -57
4 -23 12 -33 25 -33 25 0 26 4 34 85 l7 70 -211 0 -210 0 0 -22z"/>
<path d="M3376 1185 c-35 -36 -5 -95 48 -95 43 0 68 28 64 72 -3 32 -5 33 -49
36 -33 2 -51 -2 -63 -13z"/>
<path d="M2108 1142 c-56 -26 -58 -28 -58 -64 0 -26 -4 -38 -14 -38 -14 0 -26
-21 -26 -46 0 -8 9 -14 20 -14 19 0 20 -7 20 -95 0 -144 25 -185 113 -185 35
0 94 32 103 55 4 8 4 22 0 30 -4 12 -10 13 -30 3 -45 -20 -56 1 -56 103 l0 89
39 0 c32 0 40 4 45 23 11 43 8 47 -39 47 l-45 0 0 60 c0 33 -3 60 -7 59 -5 0
-34 -12 -65 -27z"/>
<path d="M3680 1060 c-8 -6 -41 -15 -72 -21 -45 -9 -58 -16 -58 -30 0 -10 9
-23 20 -29 18 -10 20 -21 20 -111 0 -96 -1 -100 -24 -109 -13 -5 -33 -6 -44
-4 -25 7 -34 80 -25 212 5 75 3 92 -8 91 -8 0 -45 -6 -84 -13 -76 -13 -96 -35
-56 -62 19 -14 21 -25 21 -115 0 -94 -1 -100 -22 -108 -17 -6 -24 -5 -26 5 -2
8 -12 14 -23 14 -17 0 -19 8 -19 85 0 128 -30 182 -108 192 -100 13 -222 -89
-152 -127 18 -9 23 -7 38 19 19 35 60 42 87 15 29 -30 14 -47 -64 -71 -41 -12
-78 -28 -83 -35 -4 -7 -8 -32 -8 -56 0 -35 6 -49 29 -73 33 -33 56 -36 107
-14 32 13 37 13 51 0 18 -19 64 -19 108 -1 20 9 37 11 40 6 4 -6 137 -9 323
-7 292 2 317 3 320 19 2 12 -5 21 -21 27 -25 10 -25 13 -29 126 l-3 117 -33
29 c-37 33 -89 38 -132 14 -32 -18 -40 -18 -40 -1 0 20 -13 27 -30 16z m96
-94 c16 -12 20 -29 22 -104 4 -81 2 -91 -15 -101 -11 -5 -29 -8 -40 -5 -18 5
-22 17 -28 102 -6 86 -5 97 11 109 22 16 26 16 50 -1z m-618 -143 c-3 -43 -23
-50 -45 -17 -12 19 -12 24 2 38 29 29 47 20 43 -21z"/>
<path d="M1454 1041 c-68 -31 -95 -89 -54 -111 18 -9 23 -7 38 19 19 35 60 42
87 15 29 -30 14 -47 -64 -71 -41 -12 -78 -28 -83 -35 -4 -7 -8 -32 -8 -56 0
-35 6 -49 29 -73 33 -33 56 -36 107 -14 32 13 37 13 51 0 18 -19 64 -19 108
-1 27 12 35 21 35 40 0 19 -5 26 -20 26 -18 0 -20 7 -20 85 0 134 -32 185
-117 191 -32 3 -62 -3 -89 -15z m84 -218 c-3 -43 -23 -50 -45 -17 -12 19 -12
24 2 38 29 29 47 20 43 -21z"/>
<path d="M1795 1046 c-48 -21 -70 -53 -70 -101 0 -52 24 -81 102 -125 56 -32
67 -54 33 -65 -28 -9 -67 18 -87 60 -18 38 -21 39 -43 25 -18 -11 -15 -99 4
-118 7 -7 38 -16 69 -19 106 -11 187 40 187 117 0 49 -25 79 -95 115 -59 29
-75 49 -57 67 20 20 60 0 74 -37 9 -27 17 -35 33 -33 17 3 21 12 25 60 5 56 5
57 -24 62 -48 10 -119 6 -151 -8z"/>
<path d="M1770 513 c0 -5 15 -15 33 -23 l32 -15 3 -183 c1 -111 -2 -190 -8
-202 -5 -10 -22 -20 -37 -22 -14 -2 -28 -8 -30 -14 -5 -15 213 -24 292 -12
108 16 160 65 160 148 0 57 -27 92 -82 111 l-35 11 30 19 c37 22 52 48 52 89
0 84 -39 100 -250 100 -88 0 -160 -3 -160 -7z m267 -38 c33 -23 49 -85 32
-121 -13 -26 -20 -29 -67 -32 l-52 -3 0 79 c0 43 3 82 7 85 12 12 58 7 80 -8z
m13 -210 c63 -33 62 -162 -2 -193 -28 -13 -75 -2 -90 21 -4 7 -8 51 -8 100 l0
87 35 0 c20 0 49 -7 65 -15z"/>
<path d="M2406 505 c-61 -21 -147 -115 -105 -115 6 0 22 9 36 20 38 30 96 27
122 -6 25 -32 28 -95 7 -145 -20 -48 -86 -128 -135 -164 -68 -51 -59 -55 115
-55 l155 0 20 44 c28 64 35 106 17 106 -7 0 -22 -13 -31 -30 -18 -30 -19 -30
-104 -30 l-86 0 70 68 c101 98 125 164 85 241 -32 64 -97 90 -166 66z"/>
<path d="M2680 513 c0 -5 15 -15 33 -23 l32 -15 3 -183 c1 -111 -2 -190 -8
-202 -5 -10 -22 -20 -37 -22 -14 -2 -28 -8 -30 -14 -5 -15 214 -25 292 -12
108 17 160 65 160 148 0 57 -27 92 -82 111 l-35 11 30 19 c37 22 52 48 52 89
0 84 -39 100 -250 100 -88 0 -160 -3 -160 -7z m267 -38 c33 -23 49 -85 32
-121 -13 -26 -20 -29 -67 -32 l-52 -3 0 79 c0 43 3 82 7 85 12 12 58 7 80 -8z
m13 -210 c63 -33 62 -162 -2 -193 -28 -13 -75 -2 -90 21 -4 7 -8 51 -8 100 l0
87 35 0 c20 0 49 -7 65 -15z"/>
</g>
</svg>
