<svg width="1320" height="515" viewBox="0 0 1320 515" fill="none" xmlns="http://www.w3.org/2000/svg">
<g clip-path="url(#clip0_21_858)">
<rect width="1320" height="515" fill="white"/>
<path d="M119.844 381.752C108.911 381.814 98.105 380.809 87.4263 378.737C76.7476 376.665 66.9968 373.654 58.1741 369.704C49.3498 365.488 42.2542 360.462 36.8874 354.626C31.7857 348.522 29.2135 341.736 29.1707 334.27L28.9028 287.471L40.1026 287.407C44.528 315.115 53.1741 334.799 66.0411 346.459C79.1747 358.117 96.9414 363.882 119.341 363.754C129.474 363.696 138.266 362.179 145.715 359.203C153.432 356.225 159.274 351.925 163.242 346.302C167.475 340.411 169.567 333.199 169.518 324.666C169.452 313.2 165.665 303.755 158.156 296.331C150.911 288.639 140.867 280.963 128.023 273.303L78.6546 243.985C60.4605 233.422 47.5981 222.563 40.0674 211.405C32.5368 200.248 28.7294 187.337 28.6455 172.67C28.5248 151.604 36.4293 134.892 52.3588 122.534C68.555 110.174 90.3861 103.916 117.852 103.758C128.786 103.696 139.591 104.701 150.27 106.773C160.949 108.845 170.7 111.989 179.525 116.205C188.347 120.155 195.309 125.049 200.409 130.886C205.776 136.722 208.481 143.507 208.526 151.24L208.794 198.039L197.594 198.103C192.902 170.396 184.256 150.712 171.655 139.051C159.055 127.39 142.622 121.617 122.355 121.733C112.756 121.788 104.365 123.436 97.1832 126.677C90.2683 129.917 84.9611 134.481 81.2614 140.368C77.5602 145.99 75.7325 152.8 75.7783 160.8C75.8424 172 79.6276 181.045 87.1338 187.936C94.9067 194.825 105.081 201.966 117.657 209.361L167.023 238.279C185.217 248.842 198.478 259.299 206.804 269.652C215.395 279.736 219.732 292.111 219.816 306.778C219.948 329.711 211.385 347.894 194.128 361.326C176.872 374.758 152.11 381.567 119.844 381.752ZM260.422 374.147L259.208 162.15C259.139 150.15 257.351 140.56 253.843 133.38C250.6 125.932 242.979 122.242 230.979 122.311L226.979 122.334L226.911 110.334L274.91 110.059C284.243 110.006 291.452 111.565 296.537 114.735C301.888 117.905 305.652 123.217 307.828 130.671C310.004 138.125 311.131 148.519 311.207 161.852L312.421 373.849L260.422 374.147ZM444.766 377.091C426.1 377.198 409.809 373.025 395.894 364.571C381.979 356.117 371.246 344.578 363.695 329.955C356.143 315.064 352.314 298.286 352.207 279.619C352.085 258.286 355.849 240.398 363.5 225.954C371.149 211.243 381.619 200.116 394.909 192.574C408.2 185.031 423.111 181.212 439.644 181.117C456.177 181.023 471.13 184.27 484.501 190.861C497.872 197.451 508.459 206.724 516.261 218.679C524.063 230.635 528.009 244.612 528.101 260.612L526.645 285.821L406.247 286.51C406.398 312.91 410.506 331.687 418.57 342.841C426.899 353.726 437.597 359.132 450.663 359.057C464.53 358.978 475.711 355.714 484.208 349.265C492.971 342.815 500.792 334.903 507.672 325.53L520.125 334.659C516.425 340.547 511.394 346.842 505.033 353.546C498.936 359.981 490.967 365.493 481.127 370.083C471.553 374.671 459.433 377.007 444.766 377.091ZM406.144 268.51L474.143 268.121C473.992 241.722 470.688 223.607 464.232 213.777C458.042 203.946 449.881 199.059 439.747 199.117C433.881 199.15 428.293 201.316 422.984 205.613C417.942 209.909 413.85 217.132 410.708 227.284C407.565 237.168 406.043 250.911 406.144 268.51ZM648.279 375.926C629.612 376.033 613.322 371.859 599.406 363.405C585.491 354.952 574.758 343.413 567.208 328.789C559.655 313.899 555.826 297.121 555.719 278.454C555.597 257.121 559.361 239.233 567.012 224.789C574.661 210.078 585.131 198.951 598.421 191.408C611.712 183.865 626.624 180.047 643.157 179.952C659.69 179.857 674.642 183.105 688.013 189.695C701.384 196.286 711.971 205.558 719.773 217.514C727.575 229.469 731.522 243.447 731.613 259.447L730.158 284.656L609.759 285.345C609.911 311.744 614.018 330.521 622.082 341.675C630.411 352.561 641.109 357.967 654.176 357.892C668.042 357.812 679.224 354.548 687.72 348.1C696.483 341.649 704.305 333.738 711.185 324.365L723.637 333.494C719.937 339.382 714.907 345.677 708.545 352.38C702.448 358.815 694.48 364.328 684.639 368.918C675.065 373.506 662.945 375.842 648.279 375.926ZM609.656 267.345L677.655 266.956C677.504 240.556 674.2 222.442 667.744 212.612C661.554 202.78 653.393 197.894 643.26 197.952C637.393 197.985 631.805 200.151 626.497 204.448C621.454 208.743 617.362 215.967 614.22 226.118C611.077 236.003 609.556 249.746 609.656 267.345ZM777.404 447.188L776.191 235.191C776.122 223.191 774.467 213.601 771.226 206.419C767.983 198.971 760.362 195.281 748.362 195.35L744.362 195.373L744.293 183.373L783.893 183.146C792.959 183.094 800.033 184.254 805.113 186.625C810.46 188.994 814.619 193.37 817.588 199.754C822.364 195.459 829.138 190.887 837.91 186.037C846.683 181.187 858.002 178.722 871.868 178.642C890.535 178.536 906.026 182.847 918.343 191.577C930.925 200.038 940.326 211.718 946.544 226.616C953.028 241.245 956.323 257.76 956.428 276.16C956.532 294.293 953.427 310.844 947.112 325.814C941.065 340.782 931.666 352.703 918.917 361.576C906.432 370.181 890.457 374.539 870.991 374.651C862.191 374.701 853.917 373.415 846.168 370.793C838.688 368.436 832.939 365.802 828.923 362.891L829.404 446.89L777.404 447.188ZM862.888 356.697C873.021 356.639 880.868 353.127 886.428 346.162C892.255 339.195 896.334 329.705 898.665 317.691C901.261 305.41 902.516 291.669 902.429 276.469C902.341 261.003 900.929 247.277 898.193 235.293C895.725 223.307 891.67 213.863 886.031 206.962C880.658 200.059 873.305 196.635 863.972 196.688C854.905 196.74 847.58 198.248 841.997 201.214C836.414 204.179 831.765 207.273 828.05 210.494L828.82 344.892C832.035 347.54 836.85 350.179 843.265 352.809C849.68 355.439 856.221 356.735 862.888 356.697ZM1003.52 369.892L1002.74 233.894C1002.67 221.894 1000.88 212.304 997.375 205.124C994.133 197.676 986.511 193.986 974.512 194.055L970.512 194.078L970.443 182.078L1018.44 181.803C1027.78 181.75 1034.98 183.309 1040.07 186.48C1045.42 189.649 1049.18 194.961 1051.36 202.415C1053.54 209.869 1054.66 220.263 1054.74 233.596L1055.52 369.594L1003.52 369.892ZM1028.32 160.146C1018.19 160.204 1010.57 157.181 1005.47 151.077C1000.63 144.971 998.19 137.919 998.145 129.919C998.105 122.985 1000.21 117.507 1004.45 113.482C1008.69 109.458 1013.88 107.428 1020.02 107.393C1030.15 107.335 1037.63 110.359 1042.47 116.465C1047.57 122.569 1050.14 129.621 1050.19 137.621C1050.23 144.554 1048.13 150.033 1043.88 154.057C1039.64 158.082 1034.45 160.111 1028.32 160.146ZM1110.56 369.279L1109.78 233.281C1109.71 221.281 1108.06 211.691 1104.81 204.509C1101.57 197.061 1093.95 193.371 1081.95 193.44L1077.95 193.463L1077.88 181.463L1117.48 181.236C1126.55 181.184 1133.62 182.344 1138.7 184.715C1144.05 186.818 1148.2 190.527 1151.17 195.844C1155.94 191.283 1162.71 186.977 1171.49 182.927C1180.54 178.875 1193.19 176.803 1209.46 176.71C1226.26 176.613 1240.27 179.066 1251.5 184.069C1262.73 189.071 1271.17 197.023 1276.84 207.924C1282.76 218.557 1285.78 232.54 1285.88 249.873L1286.55 368.271L1234.56 368.569L1233.88 249.771C1233.8 236.704 1232.01 226.315 1228.5 218.601C1225.25 210.886 1220.82 205.312 1215.2 201.877C1209.58 198.443 1203.04 196.747 1195.57 196.789C1188.1 196.832 1181.44 197.804 1175.59 199.704C1170 201.603 1165.35 204.029 1161.63 206.984L1162.56 368.981L1110.56 369.279Z" fill="#3E1340"/>
<mask id="path-2-inside-1_21_858" fill="white">
<path d="M377.979 127.667L365.241 134.431L392.904 129.162L415.94 124.938L444.249 123.251L471.414 122.957L495.941 123.907L527.135 128.54L549.721 133.817L588.924 143.775L625.49 154.976L657.926 167.27L687.028 177.723L665.24 164.485L643.799 152.79L621.711 142.537L599.125 132.234L579.873 123.773L560.521 116.307L541.069 109.835L526.393 105.853L506.642 102.366L486.094 101.816L470.422 102.758L456.193 104.348L441.367 106.882L426.938 110.462L409.872 115.285L393.702 121.202L377.979 127.667Z"/>
</mask>
<path d="M365.241 134.431L349.295 104.402L371.603 167.831L365.241 134.431ZM377.979 127.667L365.049 96.2216L363.506 96.8559L362.033 97.6383L377.979 127.667ZM393.702 121.202L382.017 89.273L381.39 89.5026L380.772 89.7567L393.702 121.202ZM409.872 115.285L400.626 82.566L399.392 82.9148L398.188 83.3554L409.872 115.285ZM426.938 110.462L418.751 77.4621L418.219 77.5941L417.691 77.7432L426.938 110.462ZM441.367 106.882L435.637 73.3684L434.399 73.5801L433.18 73.8825L441.367 106.882ZM456.193 104.348L452.418 70.5577L451.437 70.6673L450.464 70.8337L456.193 104.348ZM470.422 102.758L468.381 68.8193L467.513 68.8716L466.648 68.9682L470.422 102.758ZM486.094 101.816L487.006 67.8277L485.528 67.7881L484.053 67.8768L486.094 101.816ZM506.642 102.366L512.552 68.8841L510.071 68.4462L507.553 68.3787L506.642 102.366ZM526.393 105.853L535.297 73.0395L533.815 72.6372L532.303 72.3702L526.393 105.853ZM541.069 109.835L551.801 77.5739L550.895 77.2724L549.974 77.0223L541.069 109.835ZM560.521 116.307L572.759 84.5857L572.012 84.2977L571.253 84.0451L560.521 116.307ZM579.873 123.773L593.552 92.6464L592.839 92.3326L592.111 92.0519L579.873 123.773ZM599.125 132.234L613.236 101.301L613.021 101.203L612.805 101.108L599.125 132.234ZM621.711 142.537L636.026 111.697L635.924 111.65L635.821 111.603L621.711 142.537ZM643.799 152.79L660.08 122.942L659.113 122.414L658.114 121.95L643.799 152.79ZM665.24 164.485L682.893 135.428L682.216 135.016L681.521 134.637L665.24 164.485ZM687.028 177.723L675.535 209.722L704.682 148.666L687.028 177.723ZM657.926 167.27L645.875 199.063L646.153 199.168L646.432 199.269L657.926 167.27ZM625.49 154.976L637.54 123.183L636.506 122.791L635.448 122.467L625.49 154.976ZM588.924 143.775L598.882 111.266L598.093 111.024L597.294 110.821L588.924 143.775ZM549.721 133.817L558.091 100.864L557.775 100.783L557.458 100.709L549.721 133.817ZM527.135 128.54L534.871 95.4315L533.511 95.1137L532.129 94.9085L527.135 128.54ZM495.941 123.907L500.936 90.276L499.106 90.0042L497.257 89.9326L495.941 123.907ZM471.414 122.957L472.729 88.9829L471.888 88.9503L471.046 88.9594L471.414 122.957ZM444.249 123.251L443.882 89.2531L443.054 89.262L442.227 89.3112L444.249 123.251ZM415.94 124.938L413.918 90.9977L411.847 91.1211L409.807 91.4953L415.94 124.938ZM392.904 129.162L386.771 95.7201L386.657 95.741L386.543 95.7627L392.904 129.162ZM381.187 164.46L393.925 157.696L362.033 97.6383L349.295 104.402L381.187 164.46ZM390.909 159.113L406.631 152.648L380.772 89.7567L365.049 96.2216L390.909 159.113ZM405.386 153.131L421.557 147.214L398.188 83.3554L382.017 89.273L405.386 153.131ZM419.118 148.003L436.184 143.18L417.691 77.7432L400.626 82.566L419.118 148.003ZM435.125 143.461L449.553 139.882L433.18 73.8825L418.751 77.4621L435.125 143.461ZM447.096 140.396L461.922 137.861L450.464 70.8337L435.637 73.3684L447.096 140.396ZM459.968 138.137L474.197 136.548L466.648 68.9682L452.418 70.5577L459.968 138.137ZM472.463 136.697L488.135 135.754L484.053 67.8768L468.381 68.8193L472.463 136.697ZM485.183 135.803L505.73 136.354L507.553 68.3787L487.006 67.8277L485.183 135.803ZM500.732 135.849L520.483 139.335L532.303 72.3702L512.552 68.8841L500.732 135.849ZM517.488 138.666L532.164 142.649L549.974 77.0223L535.297 73.0395L517.488 138.666ZM530.336 142.097L549.788 148.568L571.253 84.0451L551.801 77.5739L530.336 142.097ZM548.282 148.028L567.634 155.494L592.111 92.0519L572.759 84.5857L548.282 148.028ZM566.193 154.899L585.445 163.361L612.805 101.108L593.552 92.6464L566.193 154.899ZM585.014 163.168L607.6 173.47L635.821 111.603L613.236 101.301L585.014 163.168ZM607.395 173.376L629.483 183.629L658.114 121.95L636.026 111.697L607.395 173.376ZM627.517 182.638L648.958 194.333L681.521 134.637L660.08 122.942L627.517 182.638ZM647.586 193.543L669.375 206.781L704.682 148.666L682.893 135.428L647.586 193.543ZM698.522 145.725L669.419 135.272L646.432 199.269L675.535 209.722L698.522 145.725ZM669.976 135.477L637.54 123.183L613.439 186.768L645.875 199.063L669.976 135.477ZM635.448 122.467L598.882 111.266L578.966 176.284L615.531 187.485L635.448 122.467ZM597.294 110.821L558.091 100.864L541.351 166.771L580.554 176.728L597.294 110.821ZM557.458 100.709L534.871 95.4315L519.398 161.648L541.985 166.926L557.458 100.709ZM532.129 94.9085L500.936 90.276L490.947 157.538L522.14 162.171L532.129 94.9085ZM497.257 89.9326L472.729 88.9829L470.098 156.932L494.626 157.882L497.257 89.9326ZM471.046 88.9594L443.882 89.2531L444.617 157.249L471.781 156.955L471.046 88.9594ZM442.227 89.3112L413.918 90.9977L417.962 158.877L446.271 157.191L442.227 89.3112ZM409.807 91.4953L386.771 95.7201L399.037 162.605L422.073 158.38L409.807 91.4953ZM386.543 95.7627L358.88 101.031L371.603 167.831L399.266 162.562L386.543 95.7627Z" fill="#3E1340" mask="url(#path-2-inside-1_21_858)"/>
<ellipse cx="352.916" cy="91.866" rx="30" ry="25" transform="rotate(5.72088 352.916 91.866)" fill="#3E1340"/>
<rect x="968" y="87" width="112" height="83" fill="white"/>
<rect x="978" y="101" width="54" height="54" rx="10" fill="#3E1340"/>
</g>
<defs>
<clipPath id="clip0_21_858">
<rect width="1320" height="515" fill="white"/>
</clipPath>
</defs>
</svg>
